<svg width="56" height="56" viewBox="0 0 56 56" fill="none" xmlns="http://www.w3.org/2000/svg">
<path d="M0 28C0 16.7643 0 11.1465 2.69649 7.11088C3.86382 5.36383 5.36383 3.86382 7.11088 2.69649C11.1465 0 16.7643 0 28 0C39.2357 0 44.8535 0 48.8891 2.69649C50.6362 3.86382 52.1362 5.36383 53.3035 7.11088C56 11.1465 56 16.7643 56 28C56 39.2357 56 44.8535 53.3035 48.8891C52.1362 50.6362 50.6362 52.1362 48.8891 53.3035C44.8535 56 39.2357 56 28 56C16.7643 56 11.1465 56 7.11088 53.3035C5.36383 52.1362 3.86382 50.6362 2.69649 48.8891C0 44.8535 0 39.2357 0 28Z" fill="url(#paint0_linear_5385_17474)"/>
<path d="M26.95 13.5C21.0442 13.5058 17.9885 13.6114 16.05 15.55C14.1114 17.4885 14.0058 20.5442 14 26.45H20.8791C20.3877 25.8362 20.0206 25.1122 19.8204 24.3114C19.0668 21.2972 21.7972 18.5668 24.8114 19.3204C25.6122 19.5206 26.3362 19.8877 26.95 20.3791V13.5Z" fill="white"/>
<path d="M14 28.55C14.0058 34.4558 14.1114 37.5115 16.05 39.45C17.9885 41.3886 21.0442 41.4942 26.95 41.5V30.4732C25.8585 32.6534 23.6039 34.1502 20.9998 34.1502C20.4199 34.1502 19.9498 33.68 19.9498 33.1001C19.9498 32.5202 20.4199 32.0501 20.9998 32.0501C23.1514 32.0501 24.9542 30.5568 25.4282 28.55H14Z" fill="white"/>
<path d="M29.05 41.5C34.9558 41.4942 38.0115 41.3886 39.95 39.45C41.8886 37.5115 41.9942 34.4558 42 28.55H30.5718C31.0458 30.5568 32.8486 32.0501 35.0002 32.0501C35.5801 32.0501 36.0502 32.5202 36.0502 33.1001C36.0502 33.68 35.5801 34.1502 35.0002 34.1502C32.3961 34.1502 30.1415 32.6534 29.05 30.4732V41.5Z" fill="white"/>
<path d="M42 26.45C41.9942 20.5442 41.8886 17.4885 39.95 15.55C38.0115 13.6114 34.9558 13.5058 29.05 13.5V20.3791C29.6638 19.8877 30.3878 19.5206 31.1886 19.3204C34.2028 18.5668 36.9332 21.2972 36.1796 24.3114C35.9794 25.1122 35.6123 25.8362 35.1209 26.45H42Z" fill="white"/>
<path d="M24.3021 21.3577C25.8583 21.7468 26.95 23.145 26.95 24.749V26.45H25.249C23.645 26.45 22.2468 25.3583 21.8577 23.8021C21.4887 22.3259 22.8259 20.9887 24.3021 21.3577Z" fill="white"/>
<path d="M29.05 24.749V26.45H30.751C32.355 26.45 33.7532 25.3583 34.1423 23.8021C34.5113 22.3259 33.1741 20.9887 31.6979 21.3577C30.1417 21.7468 29.05 23.145 29.05 24.749Z" fill="white"/>
<defs>
<linearGradient id="paint0_linear_5385_17474" x1="0.732876" y1="1.75" x2="65.5349" y2="27.9437" gradientUnits="userSpaceOnUse">
<stop stop-color="#E880F1"/>
<stop offset="1" stop-color="#FF6F71"/>
</linearGradient>
</defs>
</svg>
