<svg width="56" height="56" viewBox="0 0 56 56" fill="none" xmlns="http://www.w3.org/2000/svg">
<rect width="56" height="56" rx="16" fill="url(#paint0_linear_5385_17480)"/>
<path fill-rule="evenodd" clip-rule="evenodd" d="M31.5942 31.9184L23.475 23.8866C22.0028 22.4305 22.0028 20.0707 23.475 18.6163C24.9473 17.1603 27.3333 17.1603 28.8038 18.6163L34.6639 24.4105C35.6555 25.3912 37.2648 25.3912 38.2565 24.4105C39.2515 23.4264 39.2498 21.8146 38.2395 20.8406L32.3964 15.0632C28.9409 11.6456 23.338 11.6456 19.8825 15.0632C16.427 18.4808 16.427 24.0222 19.8825 27.4397L28.0186 35.4866C29.0102 36.4674 30.6195 36.4674 31.6112 35.4866C32.6062 34.5025 32.6045 32.8908 31.5942 31.9167V31.9184Z" fill="white"/>
<path fill-rule="evenodd" clip-rule="evenodd" d="M24.4058 23.0799L32.525 31.1117C33.9972 32.5678 33.9972 34.9276 32.525 36.382C31.0527 37.8381 28.6667 37.8381 27.1962 36.382L21.3361 30.5879C20.3445 29.6071 18.7352 29.6071 17.7435 30.5879C16.7485 31.572 16.7502 33.1837 17.7605 34.1577L23.6036 39.9368C27.0591 43.3544 32.662 43.3544 36.1175 39.9368C39.573 36.5192 39.573 30.9778 36.1175 27.5603L27.9814 19.5134C26.9898 18.5326 25.3805 18.5326 24.3888 19.5134C23.3938 20.4975 23.3955 22.1092 24.4058 23.0833V23.0799Z" fill="white"/>
<defs>
<linearGradient id="paint0_linear_5385_17480" x1="0.732876" y1="1.75" x2="65.5349" y2="27.9437" gradientUnits="userSpaceOnUse">
<stop stop-color="#008CFF"/>
<stop offset="1" stop-color="#E880F1"/>
</linearGradient>
</defs>
</svg>
