<svg width="56" height="57" viewBox="0 0 56 57" fill="none" xmlns="http://www.w3.org/2000/svg">
<rect y="0.5" width="56" height="56" rx="16" fill="url(#paint0_linear_5385_17488)"/>
<path fill-rule="evenodd" clip-rule="evenodd" d="M30.2484 29.476C30.0951 29.4886 29.3007 29.5392 27.5343 29.5392C26.1268 29.5392 25.1307 29.4971 24.7798 29.476C19.3435 29.2273 15.2865 28.2365 15.2865 27.0518C15.2865 25.8671 19.3435 24.8806 24.7798 24.6276V28.4937C25.1347 28.519 26.155 28.5822 27.5585 28.5822C29.2482 28.5822 30.0911 28.5105 30.2444 28.4937V24.6318C35.6686 24.8848 39.7176 25.8755 39.7176 27.056C39.7176 28.2365 35.6726 29.2273 30.2444 29.4802H30.2484V29.476ZM30.2484 24.2313V20.7742H37.8181V15.5H17.2061V20.7742H24.7758V24.2313C18.6257 24.5264 14 25.7997 14 27.3258C14 28.852 18.6257 30.1253 24.7758 30.4204V41.5H30.2444V30.4162C36.3824 30.121 41 28.8478 41 27.3216C41 25.7954 36.3864 24.5222 30.2444 24.2271L30.2484 24.2313Z" fill="white"/>
<defs>
<linearGradient id="paint0_linear_5385_17488" x1="0.732876" y1="2.25" x2="65.5349" y2="28.4437" gradientUnits="userSpaceOnUse">
<stop stop-color="#FFCB8F"/>
<stop offset="1" stop-color="#FF6F71"/>
</linearGradient>
</defs>
</svg>
