<svg width="20" height="21" viewBox="0 0 20 21" fill="none" xmlns="http://www.w3.org/2000/svg">
<path d="M1 0.5C0.447715 0.5 0 0.947715 0 1.5V15.5C0 16.0523 0.447715 16.5 1 16.5H2V3.5C2 2.94772 2.44772 2.5 3 2.5H16V1.5C16 0.947715 15.5523 0.5 15 0.5H1Z" fill="#4AAF57"/>
<path fill-rule="evenodd" clip-rule="evenodd" d="M5 4.5C4.44772 4.5 4 4.94772 4 5.5V19.5C4 20.0523 4.44772 20.5 5 20.5H19C19.5523 20.5 20 20.0523 20 19.5V5.5C20 4.94772 19.5523 4.5 19 4.5H5ZM13 9.5C13 8.94772 12.5523 8.5 12 8.5C11.4477 8.5 11 8.94772 11 9.5V11.5H9C8.44772 11.5 8 11.9477 8 12.5C8 13.0523 8.44772 13.5 9 13.5H11V15.5C11 16.0523 11.4477 16.5 12 16.5C12.5523 16.5 13 16.0523 13 15.5V13.5H15C15.5523 13.5 16 13.0523 16 12.5C16 11.9477 15.5523 11.5 15 11.5H13V9.5Z" fill="#4AAF57"/>
</svg>
