<?xml version="1.0" encoding="utf-8"?>
<!-- Generator: Adobe Illustrator 26.0.1, SVG Export Plug-In . SVG Version: 6.00 Build 0)  -->
<!DOCTYPE svg PUBLIC "-//W3C//DTD SVG 1.1//EN" "http://www.w3.org/Graphics/SVG/1.1/DTD/svg11.dtd" [
	<!ENTITY ns_extend "http://ns.adobe.com/Extensibility/1.0/">
	<!ENTITY ns_ai "http://ns.adobe.com/AdobeIllustrator/10.0/">
	<!ENTITY ns_graphs "http://ns.adobe.com/Graphs/1.0/">
	<!ENTITY ns_vars "http://ns.adobe.com/Variables/1.0/">
	<!ENTITY ns_imrep "http://ns.adobe.com/ImageReplacement/1.0/">
	<!ENTITY ns_sfw "http://ns.adobe.com/SaveForWeb/1.0/">
	<!ENTITY ns_custom "http://ns.adobe.com/GenericCustomNamespace/1.0/">
	<!ENTITY ns_adobe_xpath "http://ns.adobe.com/XPath/1.0/">
]>
<svg version="1.1" id="Слой_1" xmlns:x="&ns_extend;" xmlns:i="&ns_ai;" xmlns:graph="&ns_graphs;"
	 xmlns="http://www.w3.org/2000/svg" xmlns:xlink="http://www.w3.org/1999/xlink" x="0px" y="0px" viewBox="0 0 1349 265"
	 style="enable-background:new 0 0 1349 265;" xml:space="preserve">
<style type="text/css">
	.Тень{fill:none;}
	.Внешнее_x0020_свечение_x0020_5_x0020_pt_x002E_{fill:none;}
	.Синий_x0020_неон{fill:none;stroke:#8AACDA;stroke-width:7;stroke-linecap:round;stroke-linejoin:round;}
	.Выделение_x0020_желтым{fill:url(#SVGID_1_);stroke:#FFFFFF;stroke-width:0.3629;stroke-miterlimit:1;}
	.Джайв_GS{fill:#FFDD00;}
	.Алиса_GS{fill:#A6D0E4;}
	.st0{fill:#FFFFFF;}
	.st1{fill:url(#SVGID_00000052079924542718233820000000014665932483370675_);}
	.st2{fill:url(#SVGID_00000013193881912171135850000009570335369379518362_);}
</style>
<metadata>
	<sfw  xmlns="&ns_sfw;">
		<slices></slices>
		<sliceSourceBounds  bottomLeftOrigin="true" height="255" width="1345.74" x="10.34" y="-569"></sliceSourceBounds>
	</sfw>
</metadata>
<linearGradient id="SVGID_1_" gradientUnits="userSpaceOnUse" x1="-9" y1="-308" x2="-9" y2="-309">
	<stop  offset="0" style="stop-color:#656565"/>
	<stop  offset="0.618" style="stop-color:#1B1B1B"/>
	<stop  offset="0.6292" style="stop-color:#545454"/>
	<stop  offset="0.9831" style="stop-color:#3E3E3E"/>
</linearGradient>
<g>
	<g>
		<path class="st0" d="M397.04,191.14c-8.04,0-15.48-1.4-22.37-4.19c-6.89-2.79-12.77-6.65-17.63-11.56
			c-4.86-4.91-8.67-10.84-11.46-17.78c-2.79-6.93-4.19-14.4-4.19-22.45c0-10.74,2.36-20.38,7.13-28.9s11.37-15.22,19.85-20.04
			c8.48-4.82,18.04-7.23,28.68-7.23c12.31,0,23.12,3.38,32.37,10.07c9.2,6.7,15.47,15.75,18.79,27.12H437
			c-3.16-8.29-8.26-14.79-15.3-19.46c-6.98-4.67-15.24-7.03-24.67-7.03c-12.98,0-23.62,4.24-32,12.76
			c-8.38,8.53-12.57,19.42-12.57,32.66c0,13.25,4.19,24.14,12.57,32.61c8.38,8.48,19.02,12.72,32,12.72c9.7,0,18.13-2.5,25.28-7.46
			c7.15-4.97,12.25-11.9,15.3-20.67h11.2c-3.27,11.95-9.59,21.39-18.9,28.37C420.6,187.67,409.62,191.14,397.04,191.14z"/>
		<path class="st0" d="M534.24,189.5l-26.05-44.08h-27.55v44.08h-10.81V80.63h40.63c10.03,0,18.29,3.08,24.89,9.2
			c6.54,6.12,9.81,13.92,9.81,23.32c0,7.76-2.38,14.45-7.04,20.09c-4.66,5.63-10.81,9.35-18.4,11.13l26.77,45.09h-12.25V189.5z
			 M480.63,91.04v44.03h29.32c7.1,0,12.92-2.07,17.35-6.16c4.43-4.15,6.71-9.4,6.71-15.85c0-6.41-2.22-11.71-6.71-15.8
			c-4.43-4.14-10.26-6.16-17.3-6.16h-29.38V91.04z"/>
		<path class="st0" d="M647.27,80.63l-40.75,65.56v43.26h-11.2V146.2l-40.41-65.56h12.03l34.04,55.26l34.31-55.26H647.27z"/>
		<path class="st0" d="M705.36,80.63c10.14,0,18.57,3.23,25.28,9.73c6.76,6.5,10.15,14.64,10.15,24.37
			c0,9.78-3.38,17.92-10.15,24.42c-6.71,6.55-15.13,9.78-25.33,9.78h-27.39v40.46h-10.86V80.63H705.36z M704.76,138.49
			c7.15,0,13.14-2.27,17.85-6.75c4.71-4.48,7.1-10.16,7.1-16.91c0-6.79-2.38-12.38-7.1-16.86c-4.71-4.43-10.7-6.7-17.85-6.7h-26.78
			v47.21H704.76z"/>
		<path class="st0" d="M827.76,80.63v10.26h-33.93v98.56h-10.81V90.89h-33.87V80.63H827.76z"/>
		<path class="st0" d="M890.3,191.24c-8.09,0-15.63-1.44-22.67-4.29c-7.04-2.84-13.08-6.79-17.96-11.71
			c-4.93-4.91-8.87-10.89-11.7-17.82c-2.88-6.93-4.32-14.36-4.32-22.26c0-7.95,1.44-15.37,4.32-22.3
			c2.83-6.94,6.71-12.91,11.7-17.87c4.93-4.96,10.92-8.91,17.96-11.76c7.04-2.84,14.58-4.29,22.67-4.29
			c10.81,0,20.51,2.46,29.16,7.32c8.65,4.87,15.41,11.61,20.23,20.18s7.21,18.16,7.21,28.71s-2.38,20.14-7.21,28.71
			c-4.82,8.58-11.59,15.27-20.23,20.09C910.81,188.78,901.1,191.24,890.3,191.24z M890.3,180.59c13.14,0,24-4.33,32.65-12.96
			c8.59-8.67,12.92-19.46,12.92-32.47c0-8.53-1.88-16.28-5.82-23.27c-3.88-6.93-9.31-12.43-16.3-16.33
			c-6.93-3.95-14.75-5.93-23.39-5.93c-8.65,0-16.46,1.97-23.39,5.98c-6.93,3.95-12.42,9.44-16.35,16.33
			c-3.88,6.93-5.88,14.69-5.88,23.22c0,8.48,2,16.24,5.88,23.12c3.94,6.94,9.37,12.38,16.35,16.38
			C873.83,178.61,881.65,180.59,890.3,180.59z"/>
		<path class="st0" d="M1044.85,80.63h10.7v108.82h-9.2l-65.52-89.7v89.7h-10.64V80.63h9.87l64.75,88.93V80.63H1044.85z"/>
		<path class="st0" d="M1097.23,179h51.44v10.45h-62.25V80.63h60.53v10.41h-49.72v37.1h45.68v10.16h-45.68V179z"/>
		<path class="st0" d="M1182.55,179h51.5v10.45h-62.31V80.63h60.53v10.41h-49.72v37.1h45.68v10.16h-45.68V179z"/>
		<path class="st0" d="M1291.92,80.63c7.93,0,15.24,1.35,22.12,4.1c6.82,2.74,12.69,6.5,17.52,11.27
			c4.82,4.77,8.65,10.55,11.36,17.3c2.77,6.75,4.16,14.02,4.16,21.72c0,10.36-2.38,19.7-7.1,27.99
			c-4.71,8.29-11.25,14.79-19.68,19.41c-8.37,4.67-17.91,6.98-28.38,6.98H1257V80.63H1291.92z M1291.53,179.25
			c12.92,0,23.5-4.15,31.88-12.48c8.37-8.34,12.53-18.89,12.53-31.7c0-8.38-1.89-15.94-5.6-22.69c-3.77-6.75-9.09-12-15.8-15.8
			c-6.76-3.81-14.41-5.69-23.01-5.69h-23.67v88.35H1291.53z"/>
	</g>
	<g>
		
			<linearGradient id="SVGID_00000065076748979515906550000012478635790809223833_" gradientUnits="userSpaceOnUse" x1="-85.02" y1="282.58" x2="169.9689" y2="282.58" gradientTransform="matrix(1 0 0 -1 86.3622 416.0552)">
			<stop  offset="0" style="stop-color:#4AAF5B"/>
			<stop  offset="1" style="stop-color:#314992"/>
		</linearGradient>
		<path style="fill:url(#SVGID_00000065076748979515906550000012478635790809223833_);" d="M1.34,133.69
			C1.34,60.67,57.04,6,131.66,6c64.26,0,113.97,42,123.95,103.51h-68.4c-8.42-24.9-29.57-41.09-55.41-41.09
			c-34.73,0-60.17,27.65-60.17,65.22c0,37.42,25.44,64.69,60.17,64.69c27.2,0,48.55-17.53,55.46-44.5h69.07
			c-9.33,63.82-59.39,107.12-124.67,107.12C57.04,260.95,1.34,206.28,1.34,133.69z"/>
		
			<linearGradient id="SVGID_00000173861769820920240920000001696762615303679673_" gradientUnits="userSpaceOnUse" x1="-84.909" y1="282.5303" x2="169.98" y2="282.5303" gradientTransform="matrix(1 0 0 -1 86.3622 416.0552)">
			<stop  offset="0" style="stop-color:#314992"/>
			<stop  offset="1" style="stop-color:#4AAF5B"/>
		</linearGradient>
		<path style="fill:url(#SVGID_00000173861769820920240920000001696762615303679673_);" d="M137.85,235.95
			c-8.86,0-17.32-0.72-25.39-2.17c-60.02-10.64-94.03-66.81-94.08-119.07c0-0.14,0-0.24,0-0.39c0-0.09,0-0.19,0-0.24
			c0-1.21,0.05-2.41,0.1-3.61c0-0.39,0-0.82,0.05-1.2c0.04-1.25,0.14-2.46,0.24-3.71c0-0.29,0.05-0.58,0.05-0.87
			c1.26-14.88,5.4-29.19,12.6-41.66c0.05,0,0.05-0.04,0.09-0.04c0.73-1.3,1.51-2.56,2.34-3.81c0.19-0.34,0.39-0.63,0.58-0.96
			c14.55-22.35,38.92-37.86,67.08-40.56c0.04,0,0.04-0.05,0.09-0.05c3.6-0.24,7.35-0.38,11.34-0.38
			c52.14,0,107.21,42.39,115.33,92.34H256C246.03,48,196.27,6.05,132.06,6.05C73.1,6.05,26.11,39.14,8.94,89.48
			c0.05-0.53,0,0,0.09-0.53c-4.91,13.78-7.58,28.85-7.58,44.75C1.45,206.28,57.15,261,131.77,261c65.13,0,115.04-43.06,124.57-106.6
			C238.83,203.92,193.98,235.95,137.85,235.95z"/>
	</g>
</g>
</svg>
