<svg width="16" height="16" viewBox="0 0 16 16" fill="none" xmlns="http://www.w3.org/2000/svg">
<path fill-rule="evenodd" clip-rule="evenodd" d="M8 16C12.4183 16 16 12.4183 16 8C16 3.58172 12.4183 0 8 0C3.58172 0 0 3.58172 0 8C0 12.4183 3.58172 16 8 16ZM7.36213 7.79628L6.76412 11.6235C6.73754 11.7971 6.72425 11.9663 6.72425 12.1311C6.72425 12.9326 7.07863 13.3333 7.78738 13.3333C8.05759 13.3333 8.31894 13.2532 8.57143 13.0929C8.82835 12.9281 9.03211 12.7478 9.18272 12.5519C9.33776 12.3559 9.48394 12.1289 9.62126 11.8706C9.75858 11.6079 9.84718 11.4275 9.88704 11.3296C9.92691 11.2272 9.9557 11.1448 9.97342 11.0824L9.5814 10.8754L9.44186 11.1492C9.36213 11.3318 9.25581 11.5144 9.12292 11.6969C8.99003 11.8795 8.87929 11.9708 8.7907 11.9708C8.66667 11.9708 8.60465 11.8795 8.60465 11.6969V11.6235L9.20266 7.79628C9.22924 7.62263 9.24253 7.45342 9.24253 7.28867C9.24253 6.48716 8.89258 6.08641 8.19269 6.08641C7.92248 6.08641 7.65891 6.16879 7.40199 6.33354C7.1495 6.4983 6.94574 6.67863 6.7907 6.87456C6.63566 7.07048 6.48948 7.2998 6.35216 7.56251C6.21927 7.82078 6.13068 8.00111 6.08638 8.10353C6.04651 8.20149 6.01772 8.28164 6 8.34398L6.39867 8.55103L6.53156 8.27719C6.61573 8.09462 6.71982 7.91206 6.84385 7.72949C6.97231 7.54693 7.08084 7.45565 7.16944 7.45565C7.2979 7.45565 7.36213 7.54693 7.36213 7.72949V7.79628ZM10 3.82885C10 3.49043 9.89369 3.21213 9.68106 2.99395C9.46844 2.77576 9.18937 2.66667 8.84385 2.66667C8.50277 2.66667 8.2237 2.77576 8.00664 2.99395C7.79402 3.21213 7.68771 3.49043 7.68771 3.82885C7.68771 4.16726 7.79402 4.44556 8.00664 4.66374C8.2237 4.88193 8.50277 4.99102 8.84385 4.99102C9.18937 4.99102 9.46844 4.88193 9.68106 4.66374C9.89369 4.44556 10 4.16726 10 3.82885Z" fill="#8FC9FF"/>
</svg>
