<svg width="16" height="16" viewBox="0 0 16 16" fill="none" xmlns="http://www.w3.org/2000/svg">
<path fill-rule="evenodd" clip-rule="evenodd" d="M8 16C12.4183 16 16 12.4183 16 8C16 3.58172 12.4183 0 8 0C3.58172 0 0 3.58172 0 8C0 12.4183 3.58172 16 8 16ZM8 2.66667C7.28612 2.66667 6.7283 3.28305 6.79934 3.99338L7.267 8.66998C7.30466 9.04656 7.62154 9.33333 8 9.33333C8.37846 9.33333 8.69534 9.04656 8.733 8.66998L9.20066 3.99338C9.2717 3.28305 8.71388 2.66667 8 2.66667ZM8 13.3333C8.73638 13.3333 9.33333 12.7364 9.33333 12C9.33333 11.2636 8.73638 10.6667 8 10.6667C7.26362 10.6667 6.66667 11.2636 6.66667 12C6.66667 12.7364 7.26362 13.3333 8 13.3333Z" fill="#161026"/>
</svg>
