<svg width="20" height="20" viewBox="0 0 20 20" fill="none" xmlns="http://www.w3.org/2000/svg">
<path fill-rule="evenodd" clip-rule="evenodd" d="M10 20C15.5228 20 20 15.5228 20 10C20 4.47715 15.5228 0 10 0C4.47715 0 0 4.47715 0 10C0 15.5228 4.47715 20 10 20ZM15.4981 7.76688C15.9501 7.31962 15.9443 6.60013 15.4851 6.15986C15.0259 5.7196 14.2872 5.72526 13.8352 6.17252L8.54167 11.4104L6.16476 9.05852C5.71275 8.61126 4.97408 8.6056 4.5149 9.04587C4.05571 9.48614 4.0499 10.2056 4.50191 10.6529L7.71024 13.8275C7.92954 14.0445 8.22906 14.1667 8.54167 14.1667C8.85427 14.1667 9.1538 14.0445 9.37309 13.8275L15.4981 7.76688Z" fill="#161026"/>
</svg>
