<svg width="512" height="512" viewBox="0 0 512 512" fill="none" xmlns="http://www.w3.org/2000/svg">
<rect width="512" height="512" fill="#382861"/>
<path d="M269.042 362.974C210.074 362.974 169.099 314.373 169.099 255.912V255.032C169.099 196.747 210.965 149.027 269.042 149.027C303.425 149.027 330.504 163.642 357.049 187.414L405.328 132.474C373.26 101.307 334.424 80.0003 269.576 80.0003C163.755 79.8242 90 159.064 90 255.912V256.793C90 354.521 165.358 432 266.726 432C333.176 432 372.548 408.58 408 371.25L359.721 323.178C332.642 347.478 308.592 362.974 269.22 362.974H269.042Z" fill="white"/>
<path d="M235.729 255.912C235.729 272.641 249.446 286.199 266.371 286.199C283.295 286.199 297.013 272.641 297.013 255.912C297.013 239.184 283.295 225.625 266.371 225.625C249.446 225.625 235.729 239.184 235.729 255.912Z" fill="#E880F1"/>
</svg>
