<svg width="260" height="259" viewBox="0 0 260 259" fill="none" xmlns="http://www.w3.org/2000/svg">
<g clip-path="url(#clip0_1408_27541)">
<path d="M241.233 188.116L240.688 57.2524L30.4893 58.2067L31.0345 189.07L241.233 188.116Z" fill="#181839"/>
<path d="M18.4937 58.2066L19.0389 189.07L231.146 188.252L230.601 57.3887L18.4937 58.2066Z" fill="url(#paint0_linear_1408_27541)"/>
<path opacity="0.43" d="M56.2532 175.575L206.61 174.893C210.972 174.893 214.516 171.349 214.516 166.987L214.243 95.421C214.243 91.0589 210.699 87.5146 206.337 87.5146L55.8443 88.1962C51.4822 88.1962 47.938 91.7404 47.938 96.1025L48.2106 167.668C48.3469 172.03 51.8911 175.575 56.2532 175.575V175.575Z" fill="#37376A"/>
<path d="M40.9858 168.895L205.383 168.213C206.473 168.213 207.291 167.395 207.291 166.305L206.882 81.3801C206.882 80.2896 206.064 79.4717 204.974 79.4717L40.5769 80.1533C39.4864 80.1533 38.6685 80.9712 38.6685 82.0617L39.0774 166.986C39.0774 168.077 39.8953 168.895 40.9858 168.895V168.895Z" fill="white"/>
<path d="M207.019 87.9233H39.2139" stroke="#37376A" stroke-width="1.5" stroke-linecap="round" stroke-linejoin="round"/>
<path d="M192.16 84.3791C192.913 84.3791 193.523 83.7688 193.523 83.016C193.523 82.2631 192.913 81.6528 192.16 81.6528C191.407 81.6528 190.797 82.2631 190.797 83.016C190.797 83.7688 191.407 84.3791 192.16 84.3791Z" fill="#58D5C4"/>
<path d="M197.749 84.3791C198.502 84.3791 199.112 83.7688 199.112 83.016C199.112 82.2631 198.502 81.6528 197.749 81.6528C196.996 81.6528 196.386 82.2631 196.386 83.016C196.386 83.7688 196.996 84.3791 197.749 84.3791Z" fill="#58D5C4"/>
<path d="M203.338 84.3791C204.091 84.3791 204.701 83.7688 204.701 83.016C204.701 82.2631 204.091 81.6528 203.338 81.6528C202.585 81.6528 201.975 82.2631 201.975 83.016C201.975 83.7688 202.585 84.3791 203.338 84.3791Z" fill="#58D5C4"/>
<path d="M230.873 64.8862H18.7661" stroke="#37376A" stroke-width="1.5" stroke-linecap="round" stroke-linejoin="round"/>
<path d="M45.8931 83.4253H142.268" stroke="#1DE9B6" stroke-linecap="round" stroke-linejoin="round"/>
<path d="M6.36158 200.929H252.684C255.956 200.929 258.546 198.339 258.546 195.068V187.843H0.5V195.068C0.5 198.339 3.09 200.929 6.36158 200.929Z" fill="#5F3089"/>
<path d="M0.5 192.341V187.843H258.409V192.341C258.409 193.023 258.273 193.704 258.137 194.386H0.772632C0.636316 193.704 0.5 193.023 0.5 192.341V192.341Z" fill="#F778F6"/>
<path d="M105.327 187.843C105.327 189.206 106.417 190.296 107.78 190.296H136.27C137.634 190.296 138.724 189.206 138.724 187.843H105.327Z" fill="#37376A"/>
<path d="M90.8775 130.591C92.6844 130.591 94.1491 129.126 94.1491 127.319C94.1491 125.512 92.6844 124.047 90.8775 124.047C89.0707 124.047 87.606 125.512 87.606 127.319C87.606 129.126 89.0707 130.591 90.8775 130.591Z" fill="#37376A"/>
<path d="M107.235 130.591C109.042 130.591 110.507 129.126 110.507 127.319C110.507 125.512 109.042 124.047 107.235 124.047C105.429 124.047 103.964 125.512 103.964 127.319C103.964 129.126 105.429 130.591 107.235 130.591Z" fill="#37376A"/>
<path d="M123.457 130.591C125.264 130.591 126.729 129.126 126.729 127.319C126.729 125.512 125.264 124.047 123.457 124.047C121.65 124.047 120.186 125.512 120.186 127.319C120.186 129.126 121.65 130.591 123.457 130.591Z" fill="#37376A"/>
<path d="M139.815 130.591C141.622 130.591 143.087 129.126 143.087 127.319C143.087 125.512 141.622 124.047 139.815 124.047C138.008 124.047 136.543 125.512 136.543 127.319C136.543 129.126 138.008 130.591 139.815 130.591Z" fill="#37376A"/>
<path d="M156.173 130.591C157.98 130.591 159.445 129.126 159.445 127.319C159.445 125.512 157.98 124.047 156.173 124.047C154.366 124.047 152.901 125.512 152.901 127.319C152.901 129.126 154.366 130.591 156.173 130.591Z" fill="#37376A"/>
</g>
<defs>
<linearGradient id="paint0_linear_1408_27541" x1="69.6005" y1="86.9063" x2="129.237" y2="189.207" gradientUnits="userSpaceOnUse">
<stop stop-color="#FFCF33"/>
<stop offset="0.02482" stop-color="#FFC737"/>
<stop offset="0.1509" stop-color="#FFA24A"/>
<stop offset="0.2526" stop-color="#FF8B56"/>
<stop offset="0.3168" stop-color="#FF825A"/>
<stop offset="0.3283" stop-color="#F87F5C"/>
<stop offset="0.4255" stop-color="#C2636C"/>
<stop offset="0.5161" stop-color="#974D79"/>
<stop offset="0.5972" stop-color="#783D82"/>
<stop offset="0.6661" stop-color="#663387"/>
<stop offset="0.7144" stop-color="#5F3089"/>
<stop offset="0.8534" stop-color="#4A3079"/>
<stop offset="1" stop-color="#303065"/>
</linearGradient>
<clipPath id="clip0_1408_27541">
<rect width="259" height="259" fill="white" transform="translate(0.5)"/>
</clipPath>
</defs>
</svg>
