<svg width="244" height="174" viewBox="0 0 244 174" fill="none" xmlns="http://www.w3.org/2000/svg">
<g filter="url(#filter0_b_52_1031)">
<g clip-path="url(#clip0_52_1031)">
<rect x="1" y="1" width="242" height="172" rx="10" fill="url(#paint0_linear_52_1031)"/>
<path d="M53 81C68.464 81 81 68.464 81 53C81 37.536 68.464 25 53 25C37.536 25 25 37.536 25 53C25 68.464 37.536 81 53 81Z" fill="#6652CC"/>
<path d="M43.0386 52.8882C40.9905 50.8434 39.8623 48.1248 39.8623 45.2327C39.8623 42.3406 40.9905 39.622 43.0386 37.5773C45.0872 35.5326 47.8103 34.4062 50.7067 34.4062C53.6036 34.4062 56.3267 35.532 58.3748 37.5773L65.6067 44.7972C66.8082 45.9967 66.8082 47.9417 65.6067 49.1413C64.4051 50.3409 62.4569 50.3409 61.2553 49.1413L54.0235 41.9214C52.1949 40.0959 49.219 40.0959 47.3899 41.9214C45.5607 43.7475 45.5607 46.7185 47.3899 48.5446L57.4261 58.5642C58.6276 59.7638 58.6276 61.7088 57.4261 62.9083C56.825 63.5084 56.0377 63.8082 55.2504 63.8082C54.4631 63.8082 53.6758 63.5084 53.0748 62.9083L43.0386 52.8882ZM52.9252 43.0911C51.7237 41.8915 49.7755 41.8915 48.5739 43.0911C47.3724 44.2907 47.3724 46.2356 48.5739 47.4352L58.6101 57.4548C60.4393 59.2809 60.4393 62.2519 58.6101 64.078C57.6953 64.9914 56.4943 65.4478 55.2933 65.4478C54.0923 65.4478 52.8908 64.9914 51.9765 64.0786L44.7447 56.8587C43.5431 55.6591 41.5949 55.6591 40.3933 56.8587C39.1918 58.0583 39.1918 60.0033 40.3933 61.2028L47.6252 68.4227C49.6733 70.4674 52.3964 71.5938 55.2933 71.5938C58.1902 71.5938 60.9133 70.4674 62.9614 68.4227C65.0095 66.378 66.1377 63.6588 66.1377 60.7673C66.1377 57.8757 65.0095 55.1566 62.9614 53.1118L52.9252 43.0922V43.0911Z" fill="white"/>
<path d="M26.7 102.6H30.16C30.8533 102.6 31.4867 102.707 32.06 102.92C32.6333 103.12 33.1267 103.407 33.54 103.78C33.9667 104.153 34.2933 104.593 34.52 105.1C34.76 105.607 34.88 106.167 34.88 106.78C34.88 107.393 34.76 107.96 34.52 108.48C34.2933 108.987 33.9733 109.427 33.56 109.8C33.1467 110.173 32.6533 110.467 32.08 110.68C31.5067 110.88 30.88 110.98 30.2 110.98H28.56V116H26.7V102.6ZM30.16 109.24C31.0267 109.24 31.72 109.02 32.24 108.58C32.76 108.14 33.02 107.54 33.02 106.78C33.02 106.033 32.76 105.44 32.24 105C31.72 104.56 31.0267 104.34 30.16 104.34H28.56V109.24H30.16ZM38.9005 116.22C38.4338 116.22 38.0005 116.147 37.6005 116C37.2138 115.867 36.8738 115.673 36.5805 115.42C36.3005 115.153 36.0805 114.847 35.9205 114.5C35.7605 114.153 35.6805 113.767 35.6805 113.34C35.6805 112.9 35.7671 112.5 35.9405 112.14C36.1271 111.767 36.3805 111.447 36.7005 111.18C37.0205 110.913 37.3938 110.707 37.8205 110.56C38.2605 110.4 38.7405 110.32 39.2605 110.32C39.7405 110.32 40.1871 110.373 40.6005 110.48C41.0271 110.587 41.4405 110.753 41.8405 110.98V110.52C41.8405 109.8 41.6338 109.227 41.2205 108.8C40.8071 108.36 40.2605 108.14 39.5805 108.14C38.7005 108.14 37.9805 108.52 37.4205 109.28L36.2605 108.14C36.7271 107.62 37.2471 107.233 37.8205 106.98C38.3938 106.713 39.0138 106.58 39.6805 106.58C40.2538 106.58 40.7738 106.68 41.2405 106.88C41.7205 107.067 42.1271 107.333 42.4605 107.68C42.8071 108.013 43.0738 108.42 43.2605 108.9C43.4605 109.367 43.5605 109.88 43.5605 110.44V116H41.8405V114.78C41.4538 115.26 41.0138 115.62 40.5205 115.86C40.0271 116.1 39.4871 116.22 38.9005 116.22ZM39.2605 114.76C39.9805 114.76 40.5738 114.553 41.0405 114.14C41.5071 113.713 41.7671 113.16 41.8205 112.48C41.4071 112.2 41.0071 112 40.6205 111.88C40.2471 111.747 39.8271 111.68 39.3605 111.68C38.7605 111.68 38.2805 111.827 37.9205 112.12C37.5738 112.4 37.4005 112.773 37.4005 113.24C37.4005 113.707 37.5671 114.08 37.9005 114.36C38.2338 114.627 38.6871 114.76 39.2605 114.76ZM49.2856 116.22C48.4723 116.22 47.719 116.067 47.0256 115.76C46.3323 115.44 45.7456 114.967 45.2656 114.34L46.4056 113.16C46.8323 113.693 47.2856 114.08 47.7656 114.32C48.259 114.547 48.7923 114.66 49.3656 114.66C49.9123 114.66 50.3523 114.56 50.6856 114.36C51.019 114.147 51.1856 113.867 51.1856 113.52C51.1856 113.2 51.0323 112.94 50.7256 112.74C50.4323 112.54 49.939 112.353 49.2456 112.18C48.059 111.887 47.199 111.513 46.6656 111.06C46.1323 110.593 45.8656 110 45.8656 109.28C45.8656 108.453 46.1656 107.8 46.7656 107.32C47.379 106.827 48.1923 106.58 49.2056 106.58C49.9256 106.58 50.5923 106.713 51.2056 106.98C51.8323 107.247 52.379 107.64 52.8456 108.16L51.7456 109.32C51.3723 108.893 50.9656 108.593 50.5256 108.42C50.099 108.233 49.639 108.14 49.1456 108.14C48.6523 108.14 48.2656 108.233 47.9856 108.42C47.719 108.593 47.5856 108.833 47.5856 109.14C47.5856 109.46 47.7323 109.72 48.0256 109.92C48.319 110.107 48.8056 110.287 49.4856 110.46C50.699 110.74 51.5723 111.12 52.1056 111.6C52.639 112.067 52.9056 112.66 52.9056 113.38C52.9056 113.807 52.819 114.193 52.6456 114.54C52.4723 114.887 52.2256 115.187 51.9056 115.44C51.5856 115.693 51.199 115.887 50.7456 116.02C50.3056 116.153 49.819 116.22 49.2856 116.22ZM58.2309 116.22C57.4176 116.22 56.6643 116.067 55.9709 115.76C55.2776 115.44 54.6909 114.967 54.2109 114.34L55.3509 113.16C55.7776 113.693 56.2309 114.08 56.7109 114.32C57.2043 114.547 57.7376 114.66 58.3109 114.66C58.8576 114.66 59.2976 114.56 59.6309 114.36C59.9643 114.147 60.1309 113.867 60.1309 113.52C60.1309 113.2 59.9776 112.94 59.6709 112.74C59.3776 112.54 58.8843 112.353 58.1909 112.18C57.0043 111.887 56.1443 111.513 55.6109 111.06C55.0776 110.593 54.8109 110 54.8109 109.28C54.8109 108.453 55.1109 107.8 55.7109 107.32C56.3243 106.827 57.1376 106.58 58.1509 106.58C58.8709 106.58 59.5376 106.713 60.1509 106.98C60.7776 107.247 61.3243 107.64 61.7909 108.16L60.6909 109.32C60.3176 108.893 59.9109 108.593 59.4709 108.42C59.0443 108.233 58.5843 108.14 58.0909 108.14C57.5976 108.14 57.2109 108.233 56.9309 108.42C56.6643 108.593 56.5309 108.833 56.5309 109.14C56.5309 109.46 56.6776 109.72 56.9709 109.92C57.2643 110.107 57.7509 110.287 58.4309 110.46C59.6443 110.74 60.5176 111.12 61.0509 111.6C61.5843 112.067 61.8509 112.66 61.8509 113.38C61.8509 113.807 61.7643 114.193 61.5909 114.54C61.4176 114.887 61.1709 115.187 60.8509 115.44C60.5309 115.693 60.1443 115.887 59.6909 116.02C59.2509 116.153 58.7643 116.22 58.2309 116.22ZM68.7508 102.6H70.6108V108.72L75.6908 102.6H77.9308L72.5908 109.02L78.2108 116H75.8508L70.6108 109.5V116H68.7508V102.6ZM82.6203 110.92L78.5203 102.6H80.5803L83.6403 108.84L86.7803 102.6H88.7003L84.4803 110.92V116H82.6203V110.92ZM95.9608 116.22C95.0008 116.22 94.1074 116.047 93.2808 115.7C92.4541 115.353 91.7341 114.873 91.1208 114.26C90.5208 113.647 90.0474 112.927 89.7008 112.1C89.3674 111.26 89.2008 110.353 89.2008 109.38C89.2008 108.393 89.3741 107.473 89.7208 106.62C90.0808 105.767 90.5674 105.027 91.1808 104.4C91.7941 103.773 92.5141 103.28 93.3408 102.92C94.1674 102.56 95.0541 102.38 96.0008 102.38C97.0008 102.38 97.9274 102.58 98.7808 102.98C99.6474 103.38 100.401 103.94 101.041 104.66L99.7008 105.92C99.2341 105.36 98.6741 104.933 98.0208 104.64C97.3808 104.347 96.6941 104.2 95.9608 104.2C95.2674 104.2 94.6274 104.327 94.0408 104.58C93.4541 104.833 92.9474 105.187 92.5208 105.64C92.1074 106.093 91.7808 106.633 91.5408 107.26C91.3008 107.873 91.1808 108.547 91.1808 109.28C91.1808 110.027 91.3008 110.713 91.5408 111.34C91.7808 111.953 92.1141 112.493 92.5408 112.96C92.9808 113.413 93.5008 113.767 94.1008 114.02C94.7008 114.273 95.3541 114.4 96.0608 114.4C96.8341 114.4 97.5408 114.247 98.1808 113.94C98.8341 113.633 99.3808 113.207 99.8208 112.66L101.121 113.88C100.481 114.627 99.7208 115.207 98.8408 115.62C97.9741 116.02 97.0141 116.22 95.9608 116.22ZM110.229 116.22C109.762 116.22 109.329 116.147 108.929 116C108.542 115.867 108.202 115.673 107.909 115.42C107.629 115.153 107.409 114.847 107.249 114.5C107.089 114.153 107.009 113.767 107.009 113.34C107.009 112.9 107.095 112.5 107.269 112.14C107.455 111.767 107.709 111.447 108.029 111.18C108.349 110.913 108.722 110.707 109.149 110.56C109.589 110.4 110.069 110.32 110.589 110.32C111.069 110.32 111.515 110.373 111.929 110.48C112.355 110.587 112.769 110.753 113.169 110.98V110.52C113.169 109.8 112.962 109.227 112.549 108.8C112.135 108.36 111.589 108.14 110.909 108.14C110.029 108.14 109.309 108.52 108.749 109.28L107.589 108.14C108.055 107.62 108.575 107.233 109.149 106.98C109.722 106.713 110.342 106.58 111.009 106.58C111.582 106.58 112.102 106.68 112.569 106.88C113.049 107.067 113.455 107.333 113.789 107.68C114.135 108.013 114.402 108.42 114.589 108.9C114.789 109.367 114.889 109.88 114.889 110.44V116H113.169V114.78C112.782 115.26 112.342 115.62 111.849 115.86C111.355 116.1 110.815 116.22 110.229 116.22ZM110.589 114.76C111.309 114.76 111.902 114.553 112.369 114.14C112.835 113.713 113.095 113.16 113.149 112.48C112.735 112.2 112.335 112 111.949 111.88C111.575 111.747 111.155 111.68 110.689 111.68C110.089 111.68 109.609 111.827 109.249 112.12C108.902 112.4 108.729 112.773 108.729 113.24C108.729 113.707 108.895 114.08 109.229 114.36C109.562 114.627 110.015 114.76 110.589 114.76ZM117.394 106.8H119.074V108.04C119.807 107.067 120.734 106.58 121.854 106.58C122.36 106.58 122.827 106.673 123.254 106.86C123.68 107.047 124.047 107.313 124.354 107.66C124.66 107.993 124.9 108.393 125.074 108.86C125.247 109.313 125.334 109.807 125.334 110.34V116H123.614V110.66C123.614 109.9 123.407 109.293 122.994 108.84C122.594 108.373 122.054 108.14 121.374 108.14C120.694 108.14 120.147 108.373 119.734 108.84C119.32 109.307 119.114 109.92 119.114 110.68V116H117.394V106.8ZM131.763 116.22C131.15 116.22 130.57 116.1 130.023 115.86C129.49 115.607 129.023 115.267 128.623 114.84C128.223 114.4 127.91 113.887 127.683 113.3C127.456 112.713 127.343 112.08 127.343 111.4C127.343 110.733 127.456 110.107 127.683 109.52C127.923 108.933 128.243 108.427 128.643 108C129.043 107.56 129.516 107.213 130.063 106.96C130.61 106.707 131.196 106.58 131.823 106.58C132.463 106.58 133.043 106.707 133.563 106.96C134.096 107.213 134.543 107.567 134.903 108.02V101.8H136.623V116H134.963V114.62C134.603 115.113 134.15 115.507 133.603 115.8C133.056 116.08 132.443 116.22 131.763 116.22ZM132.083 114.6C132.523 114.6 132.923 114.52 133.283 114.36C133.656 114.2 133.976 113.98 134.243 113.7C134.51 113.407 134.716 113.067 134.863 112.68C135.01 112.293 135.083 111.867 135.083 111.4C135.083 110.933 135.01 110.507 134.863 110.12C134.716 109.72 134.51 109.38 134.243 109.1C133.976 108.82 133.656 108.6 133.283 108.44C132.923 108.28 132.523 108.2 132.083 108.2C131.656 108.2 131.263 108.28 130.903 108.44C130.543 108.6 130.23 108.82 129.963 109.1C129.696 109.38 129.49 109.72 129.343 110.12C129.196 110.507 129.123 110.933 129.123 111.4C129.123 111.867 129.196 112.3 129.343 112.7C129.503 113.087 129.71 113.42 129.963 113.7C130.23 113.98 130.543 114.2 130.903 114.36C131.263 114.52 131.656 114.6 132.083 114.6ZM147.744 119.54C148.611 119.54 149.284 119.393 149.764 119.1C150.258 118.807 150.504 118.4 150.504 117.88C150.504 117.36 150.264 116.953 149.784 116.66C149.318 116.367 148.644 116.22 147.764 116.22C146.911 116.22 146.244 116.36 145.764 116.64C145.284 116.933 145.044 117.347 145.044 117.88C145.044 118.4 145.278 118.807 145.744 119.1C146.224 119.393 146.891 119.54 147.744 119.54ZM147.504 112C148.184 112 148.718 111.82 149.104 111.46C149.504 111.1 149.704 110.62 149.704 110.02C149.704 109.42 149.504 108.94 149.104 108.58C148.718 108.22 148.184 108.04 147.504 108.04C146.838 108.04 146.304 108.22 145.904 108.58C145.518 108.94 145.324 109.42 145.324 110.02C145.324 110.62 145.518 111.1 145.904 111.46C146.304 111.82 146.838 112 147.504 112ZM147.744 121C147.078 121 146.471 120.927 145.924 120.78C145.378 120.633 144.911 120.427 144.524 120.16C144.138 119.893 143.838 119.573 143.624 119.2C143.424 118.827 143.324 118.407 143.324 117.94C143.324 116.9 143.831 116.127 144.844 115.62C143.991 115.3 143.564 114.767 143.564 114.02C143.564 113.673 143.658 113.367 143.844 113.1C144.031 112.82 144.298 112.6 144.644 112.44C144.311 112.133 144.051 111.78 143.864 111.38C143.691 110.967 143.604 110.513 143.604 110.02C143.604 109.513 143.698 109.053 143.884 108.64C144.084 108.213 144.358 107.847 144.704 107.54C145.051 107.233 145.464 107 145.944 106.84C146.438 106.667 146.978 106.58 147.564 106.58C148.071 106.58 148.558 106.653 149.024 106.8H152.224V108.16H150.864C151.238 108.653 151.424 109.267 151.424 110C151.424 110.507 151.324 110.973 151.124 111.4C150.938 111.827 150.671 112.193 150.324 112.5C149.978 112.807 149.564 113.047 149.084 113.22C148.618 113.38 148.098 113.46 147.524 113.46C146.911 113.46 146.338 113.353 145.804 113.14C145.378 113.22 145.164 113.467 145.164 113.88C145.164 114.173 145.304 114.393 145.584 114.54C145.878 114.687 146.291 114.76 146.824 114.76H148.104C149.384 114.76 150.391 115.04 151.124 115.6C151.858 116.147 152.224 116.887 152.224 117.82C152.224 118.3 152.118 118.733 151.904 119.12C151.691 119.52 151.391 119.86 151.004 120.14C150.618 120.42 150.144 120.633 149.584 120.78C149.038 120.927 148.424 121 147.744 121ZM158.041 116.22C157.335 116.22 156.688 116.1 156.101 115.86C155.515 115.62 155.008 115.287 154.581 114.86C154.155 114.42 153.821 113.907 153.581 113.32C153.355 112.733 153.241 112.093 153.241 111.4C153.241 110.707 153.355 110.067 153.581 109.48C153.808 108.893 154.128 108.387 154.541 107.96C154.955 107.533 155.441 107.2 156.001 106.96C156.575 106.707 157.195 106.58 157.861 106.58C158.488 106.58 159.068 106.693 159.601 106.92C160.148 107.133 160.615 107.44 161.001 107.84C161.401 108.227 161.715 108.7 161.941 109.26C162.168 109.807 162.281 110.413 162.281 111.08C162.281 111.333 162.261 111.607 162.221 111.9H155.041C155.148 112.74 155.468 113.4 156.001 113.88C156.548 114.36 157.261 114.6 158.141 114.6C159.301 114.6 160.248 114.153 160.981 113.26L162.061 114.28C161.581 114.92 160.988 115.407 160.281 115.74C159.588 116.06 158.841 116.22 158.041 116.22ZM160.481 110.48C160.361 109.72 160.061 109.14 159.581 108.74C159.115 108.327 158.521 108.12 157.801 108.12C157.068 108.12 156.461 108.333 155.981 108.76C155.515 109.173 155.215 109.747 155.081 110.48H160.481ZM167.826 116.22C166.959 116.22 166.286 115.96 165.806 115.44C165.326 114.92 165.086 114.213 165.086 113.32V108.36H163.686V106.8H165.086V104.32H166.806V106.8H169.426V108.36H166.806V113.22C166.806 113.687 166.913 114.047 167.126 114.3C167.339 114.54 167.646 114.66 168.046 114.66C168.553 114.66 169.006 114.46 169.406 114.06L170.206 115.2C169.913 115.52 169.566 115.773 169.166 115.96C168.766 116.133 168.319 116.22 167.826 116.22ZM30.08 142.22C29.12 142.22 28.26 141.987 27.5 141.52C26.7533 141.04 26.1533 140.353 25.7 139.46L27.18 138.46C27.82 139.807 28.7933 140.48 30.1 140.48C30.9 140.48 31.54 140.24 32.02 139.76C32.5 139.267 32.74 138.607 32.74 137.78C32.74 136.94 32.4867 136.273 31.98 135.78C31.4733 135.287 30.7933 135.04 29.94 135.04C29.0733 135.04 28.3267 135.293 27.7 135.8L27.04 135.42L28.08 128.6H34.3V130.34H29.46L28.96 133.52C29.4 133.373 29.86 133.3 30.34 133.3C30.9533 133.3 31.52 133.413 32.04 133.64C32.5733 133.853 33.0267 134.16 33.4 134.56C33.7733 134.947 34.0667 135.407 34.28 135.94C34.4933 136.473 34.6 137.06 34.6 137.7C34.6 138.367 34.4867 138.98 34.26 139.54C34.0333 140.087 33.72 140.56 33.32 140.96C32.92 141.36 32.44 141.673 31.88 141.9C31.3333 142.113 30.7333 142.22 30.08 142.22ZM41.8608 142.22C41.1141 142.22 40.4341 142.053 39.8208 141.72C39.2208 141.387 38.7008 140.92 38.2608 140.32C37.8341 139.72 37.5008 138.993 37.2608 138.14C37.0208 137.287 36.9008 136.34 36.9008 135.3C36.9008 134.26 37.0208 133.313 37.2608 132.46C37.5008 131.607 37.8341 130.88 38.2608 130.28C38.7008 129.68 39.2208 129.213 39.8208 128.88C40.4341 128.547 41.1141 128.38 41.8608 128.38C42.6074 128.38 43.2874 128.547 43.9008 128.88C44.5141 129.213 45.0341 129.687 45.4608 130.3C45.9008 130.9 46.2341 131.627 46.4608 132.48C46.7008 133.32 46.8208 134.26 46.8208 135.3C46.8208 136.327 46.7008 137.267 46.4608 138.12C46.2341 138.973 45.9008 139.707 45.4608 140.32C45.0341 140.92 44.5141 141.387 43.9008 141.72C43.2874 142.053 42.6074 142.22 41.8608 142.22ZM41.8608 140.46C42.7941 140.46 43.5208 140.007 44.0408 139.1C44.5741 138.18 44.8408 136.913 44.8408 135.3C44.8408 133.687 44.5741 132.427 44.0408 131.52C43.5208 130.6 42.7941 130.14 41.8608 130.14C40.9141 130.14 40.1808 130.6 39.6608 131.52C39.1408 132.427 38.8808 133.687 38.8808 135.3C38.8808 136.927 39.1408 138.193 39.6608 139.1C40.1808 140.007 40.9141 140.46 41.8608 140.46ZM56.7242 142.2C55.9242 142.12 55.1842 141.867 54.5042 141.44C53.8376 141 53.2776 140.42 52.8242 139.7L54.2242 138.54C55.0776 139.887 56.1309 140.56 57.3842 140.56C58.0909 140.56 58.6576 140.38 59.0842 140.02C59.5109 139.647 59.7242 139.153 59.7242 138.54C59.7242 138.007 59.5309 137.547 59.1442 137.16C58.7576 136.76 58.1109 136.38 57.2042 136.02C55.9642 135.513 55.0642 134.94 54.5042 134.3C53.9576 133.66 53.6842 132.9 53.6842 132.02C53.6842 131.073 53.9576 130.28 54.5042 129.64C55.0642 129 55.8042 128.6 56.7242 128.44V126.36H58.2642V128.44C59.5576 128.627 60.6376 129.293 61.5042 130.44L60.1442 131.62C59.3976 130.593 58.5176 130.08 57.5042 130.08C56.9042 130.08 56.4242 130.247 56.0642 130.58C55.7176 130.9 55.5442 131.333 55.5442 131.88C55.5442 132.4 55.7242 132.847 56.0842 133.22C56.4576 133.593 57.0842 133.953 57.9642 134.3C59.2176 134.807 60.1309 135.393 60.7042 136.06C61.2909 136.713 61.5842 137.493 61.5842 138.4C61.5842 138.893 61.5042 139.353 61.3442 139.78C61.1842 140.193 60.9576 140.567 60.6642 140.9C60.3709 141.22 60.0176 141.493 59.6042 141.72C59.2042 141.933 58.7576 142.08 58.2642 142.16V144.24H56.7242V142.2ZM67.5205 142.24C66.5738 142.24 65.7071 142.027 64.9205 141.6C64.1338 141.16 63.4871 140.527 62.9805 139.7L64.3805 138.54C64.8071 139.22 65.2805 139.72 65.8005 140.04C66.3205 140.347 66.9005 140.5 67.5405 140.5C68.2471 140.5 68.8138 140.327 69.2405 139.98C69.6671 139.633 69.8805 139.153 69.8805 138.54C69.8805 138.007 69.6871 137.547 69.3005 137.16C68.9138 136.76 68.2671 136.38 67.3605 136.02C66.1205 135.513 65.2205 134.94 64.6605 134.3C64.1138 133.66 63.8405 132.9 63.8405 132.02C63.8405 131.487 63.9338 131 64.1205 130.56C64.3071 130.107 64.5671 129.72 64.9005 129.4C65.2471 129.08 65.6538 128.833 66.1205 128.66C66.6005 128.473 67.1205 128.38 67.6805 128.38C69.2805 128.38 70.6071 129.067 71.6605 130.44L70.3005 131.62C69.9138 131.1 69.5005 130.72 69.0605 130.48C68.6338 130.24 68.1671 130.12 67.6605 130.12C67.0605 130.12 66.5805 130.28 66.2205 130.6C65.8738 130.907 65.7005 131.333 65.7005 131.88C65.7005 132.4 65.8805 132.847 66.2405 133.22C66.6138 133.593 67.2405 133.953 68.1205 134.3C69.3738 134.807 70.2871 135.393 70.8605 136.06C71.4471 136.713 71.7405 137.493 71.7405 138.4C71.7405 138.96 71.6338 139.48 71.4205 139.96C71.2205 140.427 70.9338 140.833 70.5605 141.18C70.1871 141.513 69.7405 141.773 69.2205 141.96C68.7005 142.147 68.1338 142.24 67.5205 142.24ZM74.3367 128.6H77.7967C78.4901 128.6 79.1234 128.707 79.6967 128.92C80.2701 129.12 80.7634 129.407 81.1767 129.78C81.6034 130.153 81.9301 130.593 82.1567 131.1C82.3967 131.607 82.5167 132.167 82.5167 132.78C82.5167 133.393 82.3967 133.96 82.1567 134.48C81.9301 134.987 81.6101 135.427 81.1967 135.8C80.7834 136.173 80.2901 136.467 79.7167 136.68C79.1434 136.88 78.5167 136.98 77.8367 136.98H76.1967V142H74.3367V128.6ZM77.7967 135.24C78.6634 135.24 79.3567 135.02 79.8767 134.58C80.3967 134.14 80.6567 133.54 80.6567 132.78C80.6567 132.033 80.3967 131.44 79.8767 131C79.3567 130.56 78.6634 130.34 77.7967 130.34H76.1967V135.24H77.7967ZM85.118 128.6H92.258V130.34H86.978V134.22H90.978V135.96H86.978V140.26H92.358V142H85.118V128.6ZM97.1147 132.42V142H95.2547V128.24H95.9347L104.475 138.18V128.6H106.335V142.36H105.655L97.1147 132.42ZM109.727 128.6H114.387C115.401 128.6 116.341 128.773 117.207 129.12C118.074 129.453 118.821 129.92 119.447 130.52C120.074 131.107 120.567 131.813 120.927 132.64C121.287 133.453 121.467 134.34 121.467 135.3C121.467 136.26 121.287 137.153 120.927 137.98C120.581 138.793 120.087 139.5 119.447 140.1C118.821 140.687 118.074 141.153 117.207 141.5C116.341 141.833 115.401 142 114.387 142H109.727V128.6ZM114.387 140.26C115.121 140.26 115.801 140.14 116.427 139.9C117.054 139.647 117.594 139.3 118.047 138.86C118.501 138.42 118.854 137.9 119.107 137.3C119.361 136.687 119.487 136.02 119.487 135.3C119.487 134.58 119.361 133.92 119.107 133.32C118.854 132.707 118.501 132.18 118.047 131.74C117.594 131.3 117.054 130.96 116.427 130.72C115.801 130.467 115.121 130.34 114.387 130.34H111.587V140.26H114.387Z" fill="white"/>
<g opacity="0.35">
<path fill-rule="evenodd" clip-rule="evenodd" d="M37.2657 -182.234C14.4203 -205.05 -22.6311 -205.052 -45.4833 -182.232C-68.3345 -159.413 -68.3345 -122.411 -45.4833 -99.5921L79.7131 25.43C94.7014 40.3975 94.7014 64.6646 79.7131 79.6321C64.7247 94.5996 40.4238 94.5996 25.4354 79.6321L-99.7609 -45.39C-152.589 -98.1444 -152.589 -183.68 -99.7609 -236.434C-46.9344 -289.187 38.7202 -289.19 91.545 -236.434L91.5467 -236.433L181.759 -146.346C196.747 -131.379 196.747 -107.111 181.759 -92.144C166.77 -77.1765 142.469 -77.1765 127.481 -92.144L37.2674 -182.232L37.2657 -182.234Z" stroke="white" stroke-opacity="0.1" stroke-miterlimit="10" stroke-linecap="round"/>
<path fill-rule="evenodd" clip-rule="evenodd" d="M-30.7131 -167.632C-15.7247 -182.6 8.57621 -182.6 23.5646 -167.632L148.761 -42.61C201.589 10.1444 201.589 95.6798 148.761 148.434C95.9344 201.187 10.2798 201.19 -42.545 148.434L-42.5467 148.433L-132.759 58.3461C-147.747 43.3786 -147.747 19.1115 -132.759 4.14398C-117.77 -10.8235 -93.4694 -10.8235 -78.4811 4.14398L11.7343 94.2337C34.5797 117.05 71.6311 117.052 94.4833 94.2321C117.335 71.4126 117.335 34.4115 94.4833 11.5921L-30.7131 -113.43C-45.7014 -128.398 -45.7014 -152.665 -30.7131 -167.632Z" stroke="white" stroke-opacity="0.1" stroke-miterlimit="10" stroke-linecap="round"/>
</g>
</g>
<rect x="0.5" y="0.5" width="243" height="173" rx="10.5" stroke="white" stroke-opacity="0.08"/>
</g>
<defs>
<filter id="filter0_b_52_1031" x="-80" y="-80" width="404" height="334" filterUnits="userSpaceOnUse" color-interpolation-filters="sRGB">
<feFlood flood-opacity="0" result="BackgroundImageFix"/>
<feGaussianBlur in="BackgroundImageFix" stdDeviation="40"/>
<feComposite in2="SourceAlpha" operator="in" result="effect1_backgroundBlur_52_1031"/>
<feBlend mode="normal" in="SourceGraphic" in2="effect1_backgroundBlur_52_1031" result="shape"/>
</filter>
<linearGradient id="paint0_linear_52_1031" x1="243" y1="173" x2="80.5612" y2="-55.5476" gradientUnits="userSpaceOnUse">
<stop offset="0.197917" stop-color="#171718"/>
<stop offset="1" stop-color="#313133"/>
</linearGradient>
<clipPath id="clip0_52_1031">
<rect x="1" y="1" width="242" height="172" rx="10" fill="white"/>
</clipPath>
</defs>
</svg>
