<svg width="244" height="182" viewBox="0 0 244 182" fill="none" xmlns="http://www.w3.org/2000/svg">
<g filter="url(#filter0_b_3556_75917)">
<g clip-path="url(#clip0_3556_75917)">
<rect x="1" y="1" width="242" height="180" rx="20" fill="url(#paint0_linear_3556_75917)"/>
<path d="M53 81C68.464 81 81 68.464 81 53C81 37.536 68.464 25 53 25C37.536 25 25 37.536 25 53C25 68.464 37.536 81 53 81Z" fill="white"/>
<path d="M43.0386 52.8882C40.9905 50.8434 39.8623 48.1248 39.8623 45.2327C39.8623 42.3406 40.9905 39.622 43.0386 37.5773C45.0872 35.5326 47.8103 34.4062 50.7067 34.4062C53.6036 34.4062 56.3267 35.532 58.3748 37.5773L65.6067 44.7972C66.8082 45.9967 66.8082 47.9417 65.6067 49.1413C64.4051 50.3409 62.4569 50.3409 61.2553 49.1413L54.0235 41.9214C52.1949 40.0959 49.219 40.0959 47.3899 41.9214C45.5607 43.7475 45.5607 46.7185 47.3899 48.5446L57.4261 58.5642C58.6276 59.7638 58.6276 61.7088 57.4261 62.9083C56.825 63.5084 56.0377 63.8082 55.2504 63.8082C54.4631 63.8082 53.6758 63.5084 53.0748 62.9083L43.0386 52.8882ZM52.9252 43.0911C51.7237 41.8915 49.7755 41.8915 48.5739 43.0911C47.3724 44.2907 47.3724 46.2356 48.5739 47.4352L58.6101 57.4548C60.4393 59.2809 60.4393 62.2519 58.6101 64.078C57.6953 64.9914 56.4943 65.4478 55.2933 65.4478C54.0923 65.4478 52.8908 64.9914 51.9765 64.0786L44.7447 56.8587C43.5431 55.6591 41.5949 55.6591 40.3933 56.8587C39.1918 58.0583 39.1918 60.0033 40.3933 61.2028L47.6252 68.4227C49.6733 70.4674 52.3964 71.5938 55.2933 71.5938C58.1902 71.5938 60.9133 70.4674 62.9614 68.4227C65.0095 66.378 66.1377 63.6588 66.1377 60.7673C66.1377 57.8757 65.0095 55.1566 62.9614 53.1118L52.9252 43.0922V43.0911Z" fill="#7103FD"/>
<path d="M26.8 102.92H31.672C35.128 102.92 37.624 105.224 37.624 108.368C37.624 111.512 35.152 113.792 31.792 113.792H30.304V119H26.8V102.92ZM31.672 110.504C33.136 110.504 34.12 109.712 34.12 108.368C34.12 107.048 33.136 106.208 31.672 106.208H30.304V110.504H31.672ZM42.0488 119.336C39.8408 119.336 38.2328 117.848 38.2328 115.856C38.2328 113.72 40.0808 112.136 42.6728 112.136C43.7048 112.136 44.6168 112.352 45.4328 112.808V112.592C45.4328 111.272 44.4728 110.432 43.1288 110.432C42.1928 110.432 41.4488 110.816 40.8488 111.608L38.9288 109.376C40.2728 108.152 41.6888 107.624 43.5128 107.624C46.5608 107.624 48.6488 109.688 48.6488 112.616V119H45.4328V117.872C44.4968 118.928 43.4648 119.336 42.0488 119.336ZM43.0808 116.912C44.3288 116.912 45.2648 116.168 45.4328 115.04C44.6888 114.56 43.9688 114.32 43.2248 114.32C42.0968 114.32 41.4488 114.848 41.4488 115.64C41.4488 116.432 42.0488 116.912 43.0808 116.912ZM55.3638 119.336C53.3238 119.336 51.4518 118.64 50.2038 117.368L51.9558 115.16C53.0838 116.216 54.3078 116.768 55.4838 116.768C56.4198 116.768 56.9238 116.48 56.9238 115.928C56.9238 115.376 56.3478 115.112 54.6918 114.752C52.1478 114.176 50.8758 113 50.8758 111.224C50.8758 109.088 52.6758 107.624 55.4358 107.624C57.1638 107.624 58.8438 108.176 60.1158 109.304L58.4838 111.536C57.3318 110.552 56.3478 110.192 55.3638 110.192C54.5478 110.192 54.1398 110.432 54.1398 110.912C54.1398 111.416 54.6678 111.68 56.3238 112.064C58.9878 112.712 60.1878 113.888 60.1878 115.688C60.1878 117.896 58.2678 119.336 55.3638 119.336ZM66.4263 119.336C64.3863 119.336 62.5143 118.64 61.2663 117.368L63.0183 115.16C64.1463 116.216 65.3703 116.768 66.5463 116.768C67.4823 116.768 67.9863 116.48 67.9863 115.928C67.9863 115.376 67.4103 115.112 65.7543 114.752C63.2103 114.176 61.9383 113 61.9383 111.224C61.9383 109.088 63.7383 107.624 66.4983 107.624C68.2263 107.624 69.9063 108.176 71.1783 109.304L69.5463 111.536C68.3943 110.552 67.4103 110.192 66.4263 110.192C65.6103 110.192 65.2023 110.432 65.2023 110.912C65.2023 111.416 65.7303 111.68 67.3863 112.064C70.0503 112.712 71.2503 113.888 71.2503 115.688C71.2503 117.896 69.3303 119.336 66.4263 119.336ZM79.0422 102.92H82.5462V110.144L87.5382 102.92H91.5702L86.1702 110.576L91.8822 119H87.6822L82.5462 111.392V119H79.0422V102.92ZM96.5734 113.24L91.6534 102.92H95.4694L98.4214 109.424L101.445 102.92H105.069L100.077 113.192V119H96.5734V113.24ZM113.411 119.336C108.587 119.336 105.059 115.808 105.059 110.984C105.059 106.184 108.659 102.584 113.387 102.584C115.883 102.584 118.091 103.568 119.651 105.368L117.203 107.744C116.267 106.664 114.995 105.992 113.483 105.992C110.723 105.992 108.755 108.104 108.755 110.936C108.755 113.816 110.771 115.928 113.579 115.928C115.115 115.928 116.435 115.232 117.323 114.152L119.771 116.48C118.235 118.304 116.027 119.336 113.411 119.336ZM129.939 119.336C127.731 119.336 126.123 117.848 126.123 115.856C126.123 113.72 127.971 112.136 130.563 112.136C131.595 112.136 132.507 112.352 133.323 112.808V112.592C133.323 111.272 132.363 110.432 131.019 110.432C130.083 110.432 129.339 110.816 128.739 111.608L126.819 109.376C128.163 108.152 129.579 107.624 131.403 107.624C134.451 107.624 136.539 109.688 136.539 112.616V119H133.323V117.872C132.387 118.928 131.355 119.336 129.939 119.336ZM130.971 116.912C132.219 116.912 133.155 116.168 133.323 115.04C132.579 114.56 131.859 114.32 131.115 114.32C129.987 114.32 129.339 114.848 129.339 115.64C129.339 116.432 129.939 116.912 130.971 116.912ZM139.054 107.96H142.15V109.28C142.918 108.224 144.022 107.624 145.294 107.624C147.694 107.624 149.446 109.592 149.446 112.16V119H146.23V112.952C146.23 111.488 145.486 110.552 144.262 110.552C143.038 110.552 142.27 111.512 142.27 113.024V119H139.054V107.96ZM156.672 119.336C153.696 119.336 151.368 116.816 151.368 113.48C151.368 110.216 153.696 107.624 156.72 107.624C158.04 107.624 159.144 108.08 159.984 108.92V101.96H163.2V119H160.128V117.8C159.288 118.736 158.112 119.336 156.672 119.336ZM157.368 116.408C158.976 116.408 160.128 115.112 160.128 113.48C160.128 111.848 158.976 110.552 157.368 110.552C155.808 110.552 154.656 111.848 154.656 113.48C154.656 115.112 155.808 116.408 157.368 116.408ZM176.373 122.552C177.909 122.552 178.869 122 178.869 121.064C178.869 120.128 177.933 119.576 176.397 119.576C174.861 119.576 173.925 120.128 173.925 121.064C173.925 122 174.837 122.552 176.373 122.552ZM176.349 125C172.965 125 170.757 123.464 170.757 121.136C170.757 120.008 171.237 119.12 172.197 118.472C171.333 118.016 170.901 117.392 170.901 116.552C170.901 115.616 171.453 114.944 172.317 114.536C171.549 113.792 171.093 112.856 171.093 111.728C171.093 109.328 173.157 107.624 176.085 107.624C176.829 107.624 177.525 107.744 178.173 107.96H182.013V110.144H180.669C180.933 110.6 181.053 111.128 181.053 111.68C181.053 114.104 178.965 115.808 176.061 115.808C175.461 115.808 174.909 115.736 174.381 115.592C173.973 115.712 173.757 115.952 173.757 116.336C173.757 116.888 174.213 117.128 175.341 117.128H176.757C179.541 117.128 182.013 118.28 182.013 120.92C182.013 123.416 179.805 125 176.349 125ZM176.061 113.36C177.189 113.36 177.909 112.712 177.909 111.728C177.909 110.696 177.189 110.072 176.061 110.072C174.933 110.072 174.237 110.696 174.237 111.728C174.237 112.712 174.933 113.36 176.061 113.36ZM188.703 119.336C185.175 119.336 182.751 116.912 182.751 113.528C182.751 110.144 185.175 107.624 188.511 107.624C191.631 107.624 194.007 109.856 194.007 113C194.007 113.576 193.983 113.864 193.887 114.416H186.087C186.399 115.76 187.455 116.576 189.015 116.576C190.143 116.576 191.127 116.192 191.991 115.256L193.695 117.152C192.447 118.592 190.647 119.336 188.703 119.336ZM190.815 112.184C190.527 110.84 189.687 110.12 188.463 110.12C187.215 110.12 186.327 110.912 186.039 112.184H190.815ZM200.782 119.336C198.19 119.336 196.798 117.824 196.798 115.16V110.552H195.094V107.96H196.798V104.84H200.014V107.96H203.062V110.552H200.014V114.896C200.014 115.928 200.398 116.528 201.334 116.528C201.838 116.528 202.366 116.312 202.87 115.904L204.142 118.04C203.302 118.904 202.198 119.336 200.782 119.336ZM30.856 149.336C28.36 149.336 26.272 148.136 25.24 146.096L27.88 144.248C28.552 145.568 29.512 146.24 30.76 146.24C32.32 146.24 33.352 145.208 33.352 143.768C33.352 142.256 32.296 141.32 30.688 141.32C29.896 141.32 29.296 141.488 28.6 141.944L26.848 140.96L27.904 132.92H36.256V135.92H30.424L30.088 138.368C30.496 138.272 30.928 138.224 31.432 138.224C34.504 138.224 36.856 140.528 36.856 143.672C36.856 146.984 34.336 149.336 30.856 149.336ZM45.3563 149.336C41.4443 149.336 38.9003 146.024 38.9003 140.936C38.9003 135.848 41.4443 132.584 45.3563 132.584C49.2923 132.584 51.8123 135.848 51.8123 140.936C51.8123 146.048 49.2923 149.336 45.3563 149.336ZM45.3563 146.048C47.1563 146.048 48.1163 144.224 48.1163 140.96C48.1163 137.696 47.1083 135.872 45.3563 135.872C43.6043 135.872 42.5963 137.672 42.5963 140.96C42.5963 144.248 43.6043 146.048 45.3563 146.048ZM63.3961 149.384C61.3081 149.12 59.5801 147.992 58.5241 146.168L60.9721 144.128C61.8121 145.616 62.8921 146.36 64.2601 146.36C65.4841 146.36 66.3001 145.712 66.3001 144.752C66.3001 143.864 65.6761 143.312 63.7561 142.472C60.7801 141.152 59.4841 139.616 59.4841 137.384C59.4841 134.96 61.0201 133.232 63.3961 132.728V130.088H65.7481V132.656C67.3561 132.92 68.7241 133.76 69.8761 135.2L67.5481 137.312C66.6601 136.136 65.7961 135.584 64.7161 135.584C63.6601 135.584 62.9881 136.16 62.9881 137.048C62.9881 138.032 63.8281 138.56 65.4841 139.304C68.5321 140.648 69.8281 142.232 69.8281 144.464C69.8281 146.96 68.2201 148.736 65.7481 149.288V151.832H63.3961V149.384ZM76.8466 149.432C74.3506 149.432 72.3106 148.28 71.0866 146.168L73.5346 144.128C74.3746 145.616 75.4546 146.36 76.8226 146.36C78.0466 146.36 78.8626 145.712 78.8626 144.752C78.8626 143.864 78.2386 143.312 76.3186 142.472C73.3426 141.152 72.0466 139.616 72.0466 137.384C72.0466 134.552 74.2066 132.584 77.2786 132.584C79.3186 132.584 81.0226 133.448 82.4386 135.2L80.1106 137.312C79.2226 136.136 78.3586 135.584 77.2786 135.584C76.2226 135.584 75.5506 136.16 75.5506 137.048C75.5506 138.032 76.3906 138.56 78.0466 139.304C81.0946 140.648 82.3666 142.232 82.3666 144.464C82.3666 147.416 80.1106 149.432 76.8466 149.432ZM85.0891 132.92H89.9611C93.4171 132.92 95.9131 135.224 95.9131 138.368C95.9131 141.512 93.4411 143.792 90.0811 143.792H88.5931V149H85.0891V132.92ZM89.9611 140.504C91.4251 140.504 92.4091 139.712 92.4091 138.368C92.4091 137.048 91.4251 136.208 89.9611 136.208H88.5931V140.504H89.9611ZM98.6828 132.92H107.875V136.208H102.187V139.16H106.339V142.448H102.187V145.712H107.995V149H98.6828V132.92ZM114.3 139.424V149H110.988V132.632H112.812L121.788 142.496V132.92H125.1V149.288H123.276L114.3 139.424ZM128.706 132.92H135.066C139.842 132.92 143.418 136.352 143.418 140.96C143.418 145.544 139.842 149 135.066 149H128.706V132.92ZM135.09 145.712C137.754 145.712 139.722 143.696 139.722 140.96C139.722 138.224 137.754 136.208 135.09 136.208H132.21V145.712H135.09Z" fill="white"/>
<path fill-rule="evenodd" clip-rule="evenodd" d="M36.6295 -208.13C11.3436 -233.405 -29.6659 -233.407 -54.9592 -208.128C-80.2516 -182.849 -80.2516 -141.861 -54.9592 -116.583L83.6112 21.9117C100.201 38.4921 100.201 65.3742 83.6112 81.9546C67.0217 98.5349 40.1248 98.5349 23.5354 81.9546L-115.035 -56.5397C-173.506 -114.979 -173.506 -209.731 -115.035 -268.171C-56.5654 -326.608 38.2393 -326.611 96.7071 -268.171L96.7089 -268.169L196.558 -168.375C213.147 -151.794 213.147 -124.912 196.558 -108.332C179.968 -91.7515 153.071 -91.7515 136.482 -108.332L36.6313 -208.128L36.6295 -208.13Z" stroke="white" stroke-opacity="0.1" stroke-width="2" stroke-miterlimit="10" stroke-linecap="round"/>
<path fill-rule="evenodd" clip-rule="evenodd" d="M-38.6112 -191.955C-22.0217 -208.535 4.87517 -208.535 21.4647 -191.955L160.035 -53.4603C218.506 4.97891 218.506 99.7314 160.035 158.171C101.565 216.608 6.76072 216.611 -51.7071 158.171L-51.7089 158.169L-151.558 58.3747C-168.147 41.7944 -168.147 14.9123 -151.558 -1.66809C-134.968 -18.2485 -108.072 -18.2485 -91.482 -1.66809L8.37055 98.1296C33.6564 123.405 74.6659 123.407 99.9592 98.1277C125.252 72.8493 125.252 31.861 99.9592 6.58259L-38.6112 -131.912C-55.2007 -148.492 -55.2007 -175.374 -38.6112 -191.955Z" stroke="white" stroke-opacity="0.1" stroke-width="2" stroke-miterlimit="10" stroke-linecap="round"/>
</g>
<rect x="0.5" y="0.5" width="243" height="181" rx="20.5" stroke="#251E3A"/>
</g>
<defs>
<filter id="filter0_b_3556_75917" x="-80" y="-80" width="404" height="342" filterUnits="userSpaceOnUse" color-interpolation-filters="sRGB">
<feFlood flood-opacity="0" result="BackgroundImageFix"/>
<feGaussianBlur in="BackgroundImageFix" stdDeviation="40"/>
<feComposite in2="SourceAlpha" operator="in" result="effect1_backgroundBlur_3556_75917"/>
<feBlend mode="normal" in="SourceGraphic" in2="effect1_backgroundBlur_3556_75917" result="shape"/>
</filter>
<linearGradient id="paint0_linear_3556_75917" x1="243" y1="181" x2="70.6065" y2="-50.7734" gradientUnits="userSpaceOnUse">
<stop offset="0.197917" stop-color="#161026"/>
<stop offset="1" stop-color="#413A57"/>
</linearGradient>
<clipPath id="clip0_3556_75917">
<rect x="1" y="1" width="242" height="180" rx="20" fill="white"/>
</clipPath>
</defs>
</svg>
