<svg width="40" height="18" viewBox="0 0 40 18" fill="none" xmlns="http://www.w3.org/2000/svg">
<path fill-rule="evenodd" clip-rule="evenodd" d="M8.89764 14.4692C5.9641 14.4692 3.93595 11.9822 3.93595 8.99919V8.94959C3.93595 5.96657 6.0134 3.53024 8.89764 3.53024C10.6093 3.53024 11.9536 4.27532 13.273 5.49483L15.6691 2.68434C14.0799 1.09282 12.1492 0 8.92203 0C3.6672 0 0 4.05158 0 8.99919V9.04825C0 14.0465 3.74035 18 8.77572 18C12.0756 18 14.0311 16.8064 15.791 14.8919L13.3955 12.4308C12.0506 13.6735 10.8532 14.4692 8.89764 14.4692Z" fill="white"/>
<path fill-rule="evenodd" clip-rule="evenodd" d="M17.5 0.821637H18.8019L23.7426 15.0683L28.3457 0.774747H29.2438L33.8479 15.0683L38.787 0.821637H40L34.2962 16.9444H33.3536L28.75 3.04004L24.1469 16.9444H23.2033L17.5 0.821637Z" fill="white"/>
<path fill-rule="evenodd" clip-rule="evenodd" d="M7 9C7 10.1044 7.89564 11 9 11C10.1044 11 11 10.1044 11 9C11 7.89564 10.1044 7 9 7C7.89564 7 7 7.89564 7 9Z" fill="#E880F1"/>
</svg>
