<svg width="225" height="20" viewBox="0 0 225 20" fill="none" xmlns="http://www.w3.org/2000/svg">
<path fill-rule="evenodd" clip-rule="evenodd" d="M10.0558 15.9381C6.89416 15.9381 4.70831 13.3221 4.70831 10.1845V10.1323C4.70831 6.99464 6.94729 4.43257 10.0558 4.43257C11.9006 4.43257 13.3494 5.2157 14.7714 6.49844L17.3538 3.54225C15.641 1.86879 13.5602 0.71875 10.0821 0.71875C4.41865 0.71875 0.466309 4.98037 0.466309 10.1845V10.2366C0.466309 15.4935 4.4975 19.6519 9.9244 19.6519C13.4808 19.6519 15.5884 18.3964 17.4852 16.3827L14.9034 13.7939C13.454 15.1011 12.1634 15.9381 10.0558 15.9381Z" fill="white"/>
<path fill-rule="evenodd" clip-rule="evenodd" d="M31.9966 7.33631C31.9966 8.87877 30.8637 9.92447 28.8881 9.92447H24.7781V4.66876H28.8093C30.7854 4.66876 31.9966 5.55738 31.9966 7.28301V7.33631ZM36.1067 7.12706V7.07375C36.1067 5.34812 35.5536 3.91001 34.5258 2.88983C33.3141 1.68818 31.4962 1.0332 29.1515 1.0332H20.7212V19.3386H24.7781V13.4806H27.966L31.9172 19.3386H36.6597L32.1543 12.8013C34.4996 11.9387 36.1067 10.0821 36.1067 7.12706Z" fill="white"/>
<path fill-rule="evenodd" clip-rule="evenodd" d="M46.3506 8.38258L41.9509 1.0332H37.209L44.2956 12.1219V19.3386H48.353V12.0425L55.439 1.0332H50.8291L46.3506 8.38258Z" fill="white"/>
<path fill-rule="evenodd" clip-rule="evenodd" d="M65.4988 1.0332H57.9644V19.3386H62.0224V16.6036H62.019V9.13282H62.0224V4.66876H65.1566C67.1848 4.66876 68.4497 5.63563 68.4497 7.44065V7.49226C68.4497 9.06194 67.2642 10.2653 65.236 10.2653H64.3231V13.8475H65.1041C69.2404 13.8475 72.5597 11.6501 72.5597 7.41457V7.3624C72.5597 3.62306 69.8985 1.0332 65.4988 1.0332Z" fill="white"/>
<path fill-rule="evenodd" clip-rule="evenodd" d="M74.2412 4.74702H79.8532V19.3386H83.9101V4.74702H89.5221V1.0332H74.2412V4.74702Z" fill="white"/>
<path fill-rule="evenodd" clip-rule="evenodd" d="M106.378 10.2366C106.378 13.376 104.113 15.9381 100.846 15.9381C97.5799 15.9381 95.2621 13.3227 95.2621 10.1845V10.1329C95.2621 6.99464 97.5274 4.43257 100.794 4.43257C104.061 4.43257 106.378 7.04681 106.378 10.1845V10.2366ZM100.846 0.71875C95.1558 0.71875 91.0195 4.98093 91.0195 10.1845V10.2366C91.0195 15.4407 95.1033 19.6519 100.794 19.6519C106.484 19.6519 110.621 15.3886 110.621 10.1845V10.1329C110.621 4.92876 106.536 0.71875 100.846 0.71875Z" fill="white"/>
<path fill-rule="evenodd" clip-rule="evenodd" d="M100.743 8.6582C99.839 8.6582 99.106 9.38577 99.106 10.2829C99.106 11.18 99.839 11.9076 100.743 11.9076C101.647 11.9076 102.38 11.18 102.38 10.2829C102.38 9.38577 101.647 8.6582 100.743 8.6582Z" fill="#E880F1"/>
<path fill-rule="evenodd" clip-rule="evenodd" d="M148.304 11.9062C147.4 11.9062 146.667 12.6338 146.667 13.5309C146.667 14.4281 147.4 15.1556 148.304 15.1556C149.208 15.1556 149.941 14.4281 149.941 13.5309C149.941 12.6338 149.208 11.9062 148.304 11.9062Z" fill="#E880F1"/>
<path fill-rule="evenodd" clip-rule="evenodd" d="M8.26465 10.2809C8.26465 11.1781 8.99764 11.9056 9.90146 11.9056C10.8053 11.9056 11.5383 11.1781 11.5383 10.2809C11.5383 9.38382 10.8053 8.65625 9.90146 8.65625C8.99764 8.65625 8.26465 9.38382 8.26465 10.2809Z" fill="#E880F1"/>
<path fill-rule="evenodd" clip-rule="evenodd" d="M112.529 0.729209H114.057L119.853 17.0192L125.253 0.675903H126.307L131.708 17.0192L137.503 0.729209H138.926L132.234 19.1645H131.128L125.728 3.26576L120.327 19.1645H119.221L112.529 0.729209Z" fill="white"/>
<path fill-rule="evenodd" clip-rule="evenodd" d="M153.093 12.6793L148.246 2.08795L143.372 12.6793L142.793 13.9071L140.448 19.0329H139.026L147.614 0.597656H148.931L157.519 19.0329H156.018L153.673 13.9071" fill="white"/>
<path fill-rule="evenodd" clip-rule="evenodd" d="M161.414 0.728516H162.784V17.7772H173.612V19.0322H161.414V0.728516Z" fill="white"/>
<path fill-rule="evenodd" clip-rule="evenodd" d="M177.718 0.728516H179.088V17.7772H189.915V19.0322H177.718V0.728516Z" fill="white"/>
<path fill-rule="evenodd" clip-rule="evenodd" d="M194.021 0.728516H207.14V1.98347H195.39V9.17406H205.956V10.4296H195.39V17.7772H207.273V19.0322H194.021V0.728516Z" fill="white"/>
<path fill-rule="evenodd" clip-rule="evenodd" d="M216.778 1.98347H210.351V0.728516H224.576V1.98347H218.148V19.0322H216.778V1.98347Z" fill="white"/>
</svg>
