<svg width="200" height="200" viewBox="0 0 200 200" fill="none" xmlns="http://www.w3.org/2000/svg">
<path d="M81.6602 91.1196C101.278 91.1196 117.181 75.2162 117.181 55.5984C117.181 35.9805 101.278 20.0771 81.6602 20.0771C62.0423 20.0771 46.1389 35.9805 46.1389 55.5984C46.1389 75.2162 62.0423 91.1196 81.6602 91.1196Z" fill="url(#paint0_linear_2033_17551)"/>
<path d="M139.382 160.618L157.143 179.923L184.556 145.56M103.861 126.641H68.3397C51.7889 126.641 43.5135 126.641 36.9857 129.345C28.282 132.95 21.3669 139.865 17.7618 148.569C15.0579 155.096 15.0579 163.372 15.0579 179.923M134.942 22.6592C147.96 27.9286 157.143 40.6911 157.143 55.5984C157.143 70.5057 147.96 83.2681 134.942 88.5376M117.181 55.5984C117.181 75.2162 101.278 91.1196 81.6602 91.1196C62.0423 91.1196 46.1389 75.2162 46.1389 55.5984C46.1389 35.9805 62.0423 20.0771 81.6602 20.0771C101.278 20.0771 117.181 35.9805 117.181 55.5984Z" stroke="white" stroke-width="8" stroke-linecap="round" stroke-linejoin="round"/>
<defs>
<linearGradient id="paint0_linear_2033_17551" x1="15.0579" y1="179.923" x2="184.556" y2="179.923" gradientUnits="userSpaceOnUse">
<stop stop-color="#3F2F70"/>
<stop offset="1" stop-color="#E87C69"/>
</linearGradient>
</defs>
</svg>
