<svg width="244" height="174" viewBox="0 0 244 174" fill="none" xmlns="http://www.w3.org/2000/svg">
<g filter="url(#filter0_b_35_904)">
<g clip-path="url(#clip0_35_904)">
<rect x="1" y="1" width="242" height="172" rx="10" fill="url(#paint0_linear_35_904)"/>
<path d="M53 81C68.464 81 81 68.464 81 53C81 37.536 68.464 25 53 25C37.536 25 25 37.536 25 53C25 68.464 37.536 81 53 81Z" fill="#6652CC"/>
<path d="M43.0386 52.8882C40.9905 50.8434 39.8623 48.1248 39.8623 45.2327C39.8623 42.3406 40.9905 39.622 43.0386 37.5773C45.0872 35.5326 47.8103 34.4062 50.7067 34.4062C53.6036 34.4062 56.3267 35.532 58.3748 37.5773L65.6067 44.7972C66.8082 45.9967 66.8082 47.9417 65.6067 49.1413C64.4051 50.3409 62.4569 50.3409 61.2553 49.1413L54.0235 41.9214C52.1949 40.0959 49.219 40.0959 47.3899 41.9214C45.5607 43.7475 45.5607 46.7185 47.3899 48.5446L57.4261 58.5642C58.6276 59.7638 58.6276 61.7088 57.4261 62.9083C56.825 63.5084 56.0377 63.8082 55.2504 63.8082C54.4631 63.8082 53.6758 63.5084 53.0748 62.9083L43.0386 52.8882ZM52.9252 43.0911C51.7237 41.8915 49.7755 41.8915 48.5739 43.0911C47.3724 44.2907 47.3724 46.2356 48.5739 47.4352L58.6101 57.4548C60.4393 59.2809 60.4393 62.2519 58.6101 64.078C57.6953 64.9914 56.4943 65.4478 55.2933 65.4478C54.0923 65.4478 52.8908 64.9914 51.9765 64.0786L44.7447 56.8587C43.5431 55.6591 41.5949 55.6591 40.3933 56.8587C39.1918 58.0583 39.1918 60.0033 40.3933 61.2028L47.6252 68.4227C49.6733 70.4674 52.3964 71.5938 55.2933 71.5938C58.1902 71.5938 60.9133 70.4674 62.9614 68.4227C65.0095 66.378 66.1377 63.6588 66.1377 60.7673C66.1377 57.8757 65.0095 55.1566 62.9614 53.1118L52.9252 43.0922V43.0911Z" fill="white"/>
<path d="M26.7 116V102.6H28.56V116H26.7ZM31.5539 116V106.8H33.2339V108.04C33.9539 107.08 34.8939 106.58 36.0139 106.58C38.0339 106.58 39.4939 108.18 39.4939 110.34V116H37.7739V110.66C37.7739 109.14 36.8939 108.14 35.5339 108.14C34.1939 108.14 33.2739 109.18 33.2739 110.68V116H31.5539ZM44.9231 116.36L40.9031 106.8H42.7431L45.2431 112.96L47.7631 106.8H49.6031L45.6031 116.36H44.9231ZM51.0847 116V106.8H52.8047V116H51.0847ZM51.9447 105.06C51.3047 105.06 50.8047 104.56 50.8047 103.92C50.8047 103.26 51.3047 102.76 51.9647 102.76C52.5847 102.76 53.1047 103.26 53.1047 103.92C53.1047 104.56 52.5847 105.06 51.9447 105.06ZM58.8416 116.22C57.1216 116.22 56.1016 115.1 56.1016 113.32V108.36H54.7016V106.8H56.1016V104.32H57.8216V106.8H60.4416V108.36H57.8216V113.22C57.8216 114.14 58.2616 114.66 59.0616 114.66C59.5616 114.66 60.0016 114.48 60.4216 114.06L61.2216 115.2C60.6416 115.84 59.8216 116.22 58.8416 116.22ZM66.7328 116.22C63.9128 116.22 61.9328 114.18 61.9328 111.4C61.9328 108.64 63.8728 106.58 66.5528 106.58C69.0728 106.58 70.9728 108.42 70.9728 111.08C70.9728 111.36 70.9528 111.6 70.9128 111.9H63.7328C63.9328 113.56 65.0928 114.6 66.8328 114.6C67.9728 114.6 68.9328 114.16 69.6728 113.26L70.7528 114.28C69.7928 115.54 68.3328 116.22 66.7328 116.22ZM63.7728 110.48H69.1728C68.9328 108.96 67.9328 108.12 66.4928 108.12C65.0328 108.12 64.0328 109.02 63.7728 110.48ZM78.1719 116V108.36H76.7719V106.8H78.1719V104.74C78.1719 102.98 79.3119 101.8 81.0119 101.8C81.9319 101.8 82.7119 102.12 83.3519 102.76L82.3919 104.04C81.9519 103.56 81.5719 103.36 81.0919 103.36C80.3519 103.36 79.8919 103.9 79.8919 104.74V106.8H82.4919V108.36H79.8919V116H78.1719ZM84.0539 116V106.8H85.7339V108.14C86.3739 107.1 87.2539 106.58 88.3339 106.58C88.5739 106.58 88.8339 106.62 88.9539 106.64L88.6739 108.52C88.4339 108.44 88.2139 108.4 87.9739 108.4C86.6539 108.4 85.7739 109.3 85.7739 110.72V116H84.0539ZM90.4402 116V106.8H92.1602V116H90.4402ZM91.3002 105.06C90.6602 105.06 90.1602 104.56 90.1602 103.92C90.1602 103.26 90.6602 102.76 91.3202 102.76C91.9402 102.76 92.4602 103.26 92.4602 103.92C92.4602 104.56 91.9402 105.06 91.3002 105.06ZM99.057 116.22C96.237 116.22 94.257 114.18 94.257 111.4C94.257 108.64 96.197 106.58 98.877 106.58C101.397 106.58 103.297 108.42 103.297 111.08C103.297 111.36 103.277 111.6 103.237 111.9H96.057C96.257 113.56 97.417 114.6 99.157 114.6C100.297 114.6 101.257 114.16 101.997 113.26L103.077 114.28C102.117 115.54 100.657 116.22 99.057 116.22ZM96.097 110.48H101.497C101.257 108.96 100.257 108.12 98.817 108.12C97.357 108.12 96.357 109.02 96.097 110.48ZM105.402 116V106.8H107.082V108.04C107.802 107.08 108.742 106.58 109.862 106.58C111.882 106.58 113.342 108.18 113.342 110.34V116H111.622V110.66C111.622 109.14 110.742 108.14 109.382 108.14C108.042 108.14 107.122 109.18 107.122 110.68V116H105.402ZM119.771 116.22C117.311 116.22 115.351 114.1 115.351 111.4C115.351 108.72 117.311 106.58 119.831 106.58C121.091 106.58 122.191 107.12 122.911 108.02V101.8H124.631V116H122.971V114.62C122.251 115.6 121.111 116.22 119.771 116.22ZM120.091 114.6C121.831 114.6 123.091 113.24 123.091 111.4C123.091 109.54 121.831 108.2 120.091 108.2C118.391 108.2 117.131 109.54 117.131 111.4C117.131 113.26 118.411 114.6 120.091 114.6ZM130.458 116.22C128.838 116.22 127.398 115.58 126.438 114.34L127.578 113.16C128.418 114.22 129.398 114.66 130.538 114.66C131.618 114.66 132.358 114.2 132.358 113.52C132.358 112.88 131.798 112.52 130.418 112.18C128.058 111.6 127.038 110.72 127.038 109.28C127.038 107.64 128.358 106.58 130.378 106.58C131.817 106.58 133.098 107.12 134.018 108.16L132.918 109.32C132.178 108.48 131.298 108.14 130.318 108.14C129.338 108.14 128.758 108.54 128.758 109.14C128.758 109.78 129.298 110.12 130.658 110.46C133.058 111.02 134.078 111.94 134.078 113.38C134.078 115.08 132.618 116.22 130.458 116.22ZM143.197 116.22C141.317 116.22 139.977 115.02 139.977 113.34C139.977 111.6 141.497 110.32 143.557 110.32C144.517 110.32 145.337 110.54 146.137 110.98V110.52C146.137 109.1 145.217 108.14 143.877 108.14C142.997 108.14 142.277 108.52 141.717 109.28L140.557 108.14C141.477 107.1 142.657 106.58 143.977 106.58C146.257 106.58 147.857 108.2 147.857 110.44V116H146.137V114.78C145.377 115.74 144.357 116.22 143.197 116.22ZM143.557 114.76C144.977 114.76 146.017 113.84 146.117 112.48C145.297 111.92 144.577 111.68 143.657 111.68C142.457 111.68 141.697 112.3 141.697 113.24C141.697 114.18 142.417 114.76 143.557 114.76ZM150.363 116V106.8H152.043V108.04C152.763 107.08 153.703 106.58 154.823 106.58C156.843 106.58 158.303 108.18 158.303 110.34V116H156.583V110.66C156.583 109.14 155.703 108.14 154.342 108.14C153.003 108.14 152.083 109.18 152.083 110.68V116H150.363ZM164.732 116.22C162.272 116.22 160.312 114.1 160.312 111.4C160.312 108.72 162.272 106.58 164.792 106.58C166.052 106.58 167.152 107.12 167.872 108.02V101.8H169.592V116H167.932V114.62C167.212 115.6 166.072 116.22 164.732 116.22ZM165.052 114.6C166.792 114.6 168.052 113.24 168.052 111.4C168.052 109.54 166.792 108.2 165.052 108.2C163.352 108.2 162.092 109.54 162.092 111.4C162.092 113.26 163.372 114.6 165.052 114.6ZM30.42 145.54C32.14 145.54 33.18 144.92 33.18 143.88C33.18 142.84 32.18 142.22 30.44 142.22C28.74 142.22 27.72 142.82 27.72 143.88C27.72 144.92 28.72 145.54 30.42 145.54ZM30.18 138C31.52 138 32.38 137.2 32.38 136.02C32.38 134.82 31.52 134.04 30.18 134.04C28.86 134.04 28 134.82 28 136.02C28 137.2 28.86 138 30.18 138ZM30.42 147C27.74 147 26 145.78 26 143.94C26 142.9 26.52 142.12 27.52 141.62C26.68 141.3 26.24 140.74 26.24 140.02C26.24 139.32 26.64 138.76 27.32 138.44C26.66 137.84 26.28 137 26.28 136.02C26.28 134 27.9 132.58 30.24 132.58C30.76 132.58 31.26 132.66 31.7 132.8H34.9V134.16H33.54C33.92 134.66 34.1 135.3 34.1 136C34.1 138.04 32.48 139.46 30.2 139.46C29.58 139.46 28.98 139.34 28.48 139.14C28.08 139.22 27.84 139.5 27.84 139.88C27.84 140.46 28.44 140.76 29.5 140.76H30.78C33.32 140.76 34.9 141.96 34.9 143.82C34.9 145.76 33.14 147 30.42 147ZM40.7172 142.22C37.8972 142.22 35.9172 140.18 35.9172 137.4C35.9172 134.64 37.8572 132.58 40.5372 132.58C43.0572 132.58 44.9572 134.42 44.9572 137.08C44.9572 137.36 44.9372 137.6 44.8972 137.9H37.7172C37.9172 139.56 39.0772 140.6 40.8172 140.6C41.9572 140.6 42.9172 140.16 43.6572 139.26L44.7372 140.28C43.7772 141.54 42.3172 142.22 40.7172 142.22ZM37.7572 136.48H43.1572C42.9172 134.96 41.9172 134.12 40.4772 134.12C39.0172 134.12 38.0172 135.02 37.7572 136.48ZM50.5017 142.22C48.7817 142.22 47.7617 141.1 47.7617 139.32V134.36H46.3617V132.8H47.7617V130.32H49.4817V132.8H52.1017V134.36H49.4817V139.22C49.4817 140.14 49.9217 140.66 50.7217 140.66C51.2217 140.66 51.6617 140.48 52.0817 140.06L52.8817 141.2C52.3017 141.84 51.4817 142.22 50.5017 142.22ZM62.6581 142.22C60.7581 142.22 59.1781 141.24 58.2781 139.46L59.7581 138.46C60.3981 139.8 61.3781 140.48 62.6781 140.48C64.2781 140.48 65.3181 139.42 65.3181 137.78C65.3181 136.12 64.2181 135.04 62.5181 135.04C61.6781 135.04 60.9181 135.28 60.2781 135.8L59.6181 135.42L60.6581 128.6H66.8781V130.34H62.0381L61.5381 133.52C61.9581 133.38 62.4381 133.3 62.9181 133.3C65.3981 133.3 67.1781 135.16 67.1781 137.7C67.1781 140.34 65.2981 142.22 62.6581 142.22ZM74.4389 142.22C71.4589 142.22 69.4789 139.46 69.4789 135.3C69.4789 131.14 71.4589 128.38 74.4389 128.38C77.4389 128.38 79.3989 131.16 79.3989 135.3C79.3989 139.42 77.4389 142.22 74.4389 142.22ZM74.4389 140.46C76.2989 140.46 77.4189 138.52 77.4189 135.3C77.4189 132.08 76.2989 130.14 74.4389 130.14C72.5589 130.14 71.4589 132.08 71.4589 135.3C71.4589 138.54 72.5589 140.46 74.4389 140.46ZM86.5678 142.22C83.5878 142.22 81.6078 139.46 81.6078 135.3C81.6078 131.14 83.5878 128.38 86.5678 128.38C89.5678 128.38 91.5278 131.16 91.5278 135.3C91.5278 139.42 89.5678 142.22 86.5678 142.22ZM86.5678 140.46C88.4278 140.46 89.5478 138.52 89.5478 135.3C89.5478 132.08 88.4278 130.14 86.5678 130.14C84.6878 130.14 83.5878 132.08 83.5878 135.3C83.5878 138.54 84.6878 140.46 86.5678 140.46ZM102.071 142.24C100.191 142.24 98.5313 141.34 97.5313 139.7L98.9313 138.54C99.7913 139.9 100.831 140.5 102.091 140.5C103.491 140.5 104.431 139.76 104.431 138.54C104.431 137.48 103.711 136.74 101.911 136.02C99.4513 135.02 98.3913 133.78 98.3913 132.02C98.3913 129.88 99.9712 128.38 102.231 128.38C103.811 128.38 105.171 129.08 106.211 130.44L104.851 131.62C104.091 130.58 103.231 130.12 102.211 130.12C101.011 130.12 100.251 130.8 100.251 131.88C100.251 132.92 100.931 133.6 102.671 134.3C105.171 135.32 106.291 136.6 106.291 138.4C106.291 140.66 104.531 142.24 102.071 142.24ZM108.888 142V128.6H112.348C115.108 128.6 117.068 130.34 117.068 132.78C117.068 135.22 115.108 136.98 112.388 136.98H110.748V142H108.888ZM110.748 135.24H112.348C114.068 135.24 115.208 134.3 115.208 132.78C115.208 131.3 114.068 130.34 112.348 130.34H110.748V135.24ZM119.669 142V128.6H126.809V130.34H121.529V134.22H125.529V135.96H121.529V140.26H126.909V142H119.669ZM140.205 142.36L131.665 132.42V142H129.805V128.24H130.485L139.025 138.18V128.6H140.885V142.36H140.205ZM144.278 142V128.6H148.938C152.998 128.6 156.018 131.46 156.018 135.3C156.018 139.14 153.018 142 148.938 142H144.278ZM146.138 140.26H148.938C151.898 140.26 154.038 138.16 154.038 135.3C154.038 132.42 151.898 130.34 148.938 130.34H146.138V140.26ZM166.049 142.22C164.329 142.22 163.309 141.1 163.309 139.32V134.36H161.909V132.8H163.309V130.32H165.029V132.8H167.649V134.36H165.029V139.22C165.029 140.14 165.469 140.66 166.269 140.66C166.769 140.66 167.209 140.48 167.629 140.06L168.429 141.2C167.849 141.84 167.029 142.22 166.049 142.22ZM173.92 142.22C171.26 142.22 169.14 140.08 169.14 137.4C169.14 134.74 171.26 132.58 173.92 132.58C176.56 132.58 178.68 134.72 178.68 137.4C178.68 140.06 176.56 142.22 173.92 142.22ZM173.92 140.6C175.66 140.6 176.9 139.26 176.9 137.4C176.9 135.54 175.66 134.2 173.92 134.2C172.18 134.2 170.92 135.54 170.92 137.4C170.92 139.26 172.18 140.6 173.92 140.6ZM180.773 142V127.8H182.493V137.08L186.253 132.8H188.273L184.373 137.16L188.513 142H186.293L182.493 137.54V142H180.773ZM193.823 142.22C191.003 142.22 189.023 140.18 189.023 137.4C189.023 134.64 190.963 132.58 193.643 132.58C196.163 132.58 198.063 134.42 198.063 137.08C198.063 137.36 198.043 137.6 198.003 137.9H190.823C191.023 139.56 192.183 140.6 193.923 140.6C195.063 140.6 196.023 140.16 196.763 139.26L197.843 140.28C196.883 141.54 195.423 142.22 193.823 142.22ZM190.863 136.48H196.263C196.023 134.96 195.023 134.12 193.583 134.12C192.123 134.12 191.123 135.02 190.863 136.48ZM200.167 142V132.8H201.847V134.04C202.567 133.08 203.507 132.58 204.627 132.58C206.647 132.58 208.107 134.18 208.107 136.34V142H206.387V136.66C206.387 135.14 205.507 134.14 204.147 134.14C202.807 134.14 201.887 135.18 201.887 136.68V142H200.167ZM213.836 142.22C212.216 142.22 210.776 141.58 209.816 140.34L210.956 139.16C211.796 140.22 212.776 140.66 213.916 140.66C214.996 140.66 215.736 140.2 215.736 139.52C215.736 138.88 215.176 138.52 213.796 138.18C211.436 137.6 210.416 136.72 210.416 135.28C210.416 133.64 211.736 132.58 213.756 132.58C215.196 132.58 216.476 133.12 217.396 134.16L216.296 135.32C215.556 134.48 214.676 134.14 213.696 134.14C212.716 134.14 212.136 134.54 212.136 135.14C212.136 135.78 212.676 136.12 214.036 136.46C216.436 137.02 217.456 137.94 217.456 139.38C217.456 141.08 215.996 142.22 213.836 142.22Z" fill="white"/>
<g opacity="0.35">
<path fill-rule="evenodd" clip-rule="evenodd" d="M37.2658 -182.234C14.4203 -205.05 -22.6311 -205.052 -45.4833 -182.232C-68.3345 -159.413 -68.3345 -122.411 -45.4833 -99.5921L79.7131 25.43C94.7014 40.3975 94.7014 64.6646 79.7131 79.6321C64.7247 94.5996 40.4238 94.5996 25.4354 79.6321L-99.7609 -45.39C-152.589 -98.1444 -152.589 -183.68 -99.7609 -236.434C-46.9344 -289.187 38.7202 -289.19 91.545 -236.434L91.5467 -236.433L181.759 -146.346C196.747 -131.379 196.747 -107.111 181.759 -92.144C166.77 -77.1765 142.469 -77.1765 127.481 -92.144L37.2674 -182.232L37.2658 -182.234Z" stroke="white" stroke-opacity="0.1" stroke-miterlimit="10" stroke-linecap="round"/>
<path fill-rule="evenodd" clip-rule="evenodd" d="M-30.7131 -167.632C-15.7247 -182.6 8.57622 -182.6 23.5646 -167.632L148.761 -42.61C201.589 10.1444 201.589 95.6798 148.761 148.434C95.9344 201.187 10.2798 201.19 -42.545 148.434L-42.5467 148.433L-132.759 58.3461C-147.747 43.3786 -147.747 19.1115 -132.759 4.14399C-117.77 -10.8235 -93.4694 -10.8235 -78.4811 4.14399L11.7343 94.2337C34.5797 117.05 71.6311 117.052 94.4833 94.2321C117.335 71.4126 117.335 34.4115 94.4833 11.5921L-30.7131 -113.43C-45.7014 -128.398 -45.7014 -152.665 -30.7131 -167.632Z" stroke="white" stroke-opacity="0.1" stroke-miterlimit="10" stroke-linecap="round"/>
</g>
</g>
<rect x="0.5" y="0.5" width="243" height="173" rx="10.5" stroke="white" stroke-opacity="0.08"/>
</g>
<defs>
<filter id="filter0_b_35_904" x="-80" y="-80" width="404" height="334" filterUnits="userSpaceOnUse" color-interpolation-filters="sRGB">
<feFlood flood-opacity="0" result="BackgroundImageFix"/>
<feGaussianBlur in="BackgroundImageFix" stdDeviation="40"/>
<feComposite in2="SourceAlpha" operator="in" result="effect1_backgroundBlur_35_904"/>
<feBlend mode="normal" in="SourceGraphic" in2="effect1_backgroundBlur_35_904" result="shape"/>
</filter>
<linearGradient id="paint0_linear_35_904" x1="243" y1="173" x2="80.5612" y2="-55.5476" gradientUnits="userSpaceOnUse">
<stop offset="0.197917" stop-color="#171718"/>
<stop offset="1" stop-color="#313133"/>
</linearGradient>
<clipPath id="clip0_35_904">
<rect x="1" y="1" width="242" height="172" rx="10" fill="white"/>
</clipPath>
</defs>
</svg>
