<svg width="32" height="32" viewBox="0 0 32 32" fill="none" xmlns="http://www.w3.org/2000/svg">
<path d="M16 32C24.8366 32 32 24.8366 32 16C32 7.16344 24.8366 0 16 0C7.16344 0 0 7.16344 0 16C0 24.8366 7.16344 32 16 32Z" fill="white"/>
<path d="M10.3077 15.9361C9.1374 14.7677 8.49273 13.2142 8.49273 11.5616C8.49273 9.90891 9.1374 8.35543 10.3077 7.18702C11.4784 6.01861 13.0345 5.375 14.6895 5.375C16.3449 5.375 17.901 6.01829 19.0713 7.18702L23.2038 11.3127C23.8904 11.9981 23.8904 13.1096 23.2038 13.795C22.5172 14.4805 21.4039 14.4805 20.7173 13.795L16.5849 9.66937C15.54 8.6262 13.8394 8.6262 12.7942 9.66937C11.749 10.7129 11.749 12.4106 12.7942 13.4541L18.5292 19.1796C19.2158 19.865 19.2158 20.9764 18.5292 21.6619C18.1857 22.0048 17.7358 22.1761 17.286 22.1761C16.8361 22.1761 16.3862 22.0048 16.0427 21.6619L10.3077 15.9361ZM15.9573 10.3378C15.2707 9.6523 14.1574 9.6523 13.4708 10.3378C12.7842 11.0232 12.7842 12.1347 13.4708 12.8201L19.2058 18.5456C20.251 19.5891 20.251 21.2868 19.2058 22.3303C18.683 22.8522 17.9967 23.113 17.3105 23.113C16.6242 23.113 15.9376 22.8522 15.4151 22.3306L11.2827 18.205C10.5961 17.5195 9.4828 17.5195 8.7962 18.205C8.1096 18.8904 8.1096 20.0019 8.7962 20.6873L12.9287 24.813C14.099 25.9814 15.6551 26.625 17.3105 26.625C18.9659 26.625 20.5219 25.9814 21.6923 24.813C22.8626 23.6446 23.5073 22.0908 23.5073 20.4384C23.5073 18.7861 22.8626 17.2323 21.6923 16.0639L15.9573 10.3384V10.3378Z" fill="#7103FD"/>
</svg>
