<svg width="313" height="24" viewBox="0 0 313 24" fill="none" xmlns="http://www.w3.org/2000/svg">
<path d="M12 24C18.6274 24 24 18.6274 24 12C24 5.37258 18.6274 0 12 0C5.37258 0 0 5.37258 0 12C0 18.6274 5.37258 24 12 24Z" fill="url(#paint0_linear_63_711)"/>
<path d="M8.31271 11.9579C7.55459 11.1881 7.13699 10.1646 7.13699 9.07585C7.13699 7.98705 7.55459 6.96358 8.31271 6.1938C9.07104 5.42402 10.079 5 11.1511 5C12.2234 5 13.2314 5.42381 13.9895 6.1938L16.6664 8.91188C17.1112 9.36348 17.1112 10.0957 16.6664 10.5473C16.2217 10.9989 15.5005 10.9989 15.0558 10.5473L12.3789 7.82923C11.702 7.14197 10.6004 7.14197 9.92337 7.82923C9.24631 8.5167 9.24631 9.6352 9.92337 10.3227L13.6383 14.0948C14.0831 14.5464 14.0831 15.2786 13.6383 15.7302C13.4159 15.9561 13.1244 16.069 12.833 16.069C12.5416 16.069 12.2502 15.9561 12.0277 15.7302L8.31271 11.9579ZM11.9723 8.26959C11.5276 7.81799 10.8064 7.81799 10.3617 8.26959C9.9169 8.72119 9.9169 9.45342 10.3617 9.90502L14.0766 13.6771C14.7537 14.3646 14.7537 15.4831 14.0766 16.1706C13.738 16.5144 13.2934 16.6862 12.8489 16.6862C12.4043 16.6862 11.9596 16.5144 11.6212 16.1708L8.94423 13.4527C8.49947 13.0011 7.77833 13.0011 7.33357 13.4527C6.88881 13.9043 6.88881 14.6365 7.33357 15.0881L10.0105 17.8062C10.7686 18.576 11.7766 19 12.8489 19C13.9212 19 14.9292 18.576 15.6873 17.8062C16.4454 17.0364 16.863 16.0127 16.863 14.9242C16.863 13.8356 16.4454 12.8119 15.6873 12.0421L11.9723 8.27001V8.26959Z" fill="white"/>
<path d="M35.28 6.28H37.184V17H35.28V6.28ZM39.4288 9.64H41.1088V10.472C41.6688 9.784 42.3728 9.448 43.2528 9.448C44.9008 9.448 46.0688 10.744 46.0688 12.456V17H44.3088V12.856C44.3088 11.752 43.7168 11.048 42.7568 11.048C41.7968 11.048 41.1888 11.784 41.1888 12.888V17H39.4288V9.64ZM47.0331 9.64H48.9051L50.6651 13.928L52.4411 9.64H54.2331L50.9851 17.24H50.1851L47.0331 9.64ZM55.2725 9.64H57.0325V17H55.2725V9.64ZM56.1525 8.376C55.5285 8.376 55.0645 7.912 55.0645 7.288C55.0645 6.664 55.5285 6.2 56.1525 6.2C56.7765 6.2 57.2405 6.664 57.2405 7.288C57.2405 7.912 56.7765 8.376 56.1525 8.376ZM61.872 17.192C60.336 17.192 59.44 16.232 59.44 14.648V11.16H58.32V9.64H59.44V7.608H61.2V9.64H63.2V11.16H61.2V14.472C61.2 15.176 61.472 15.592 62.096 15.592C62.448 15.592 62.8 15.432 63.136 15.128L63.92 16.392C63.456 16.904 62.704 17.192 61.872 17.192ZM68.2758 17.192C66.0198 17.192 64.4038 15.576 64.4038 13.336C64.4038 11.096 65.9878 9.448 68.1478 9.448C70.1958 9.448 71.7638 10.936 71.7638 13.112C71.7638 13.352 71.7478 13.528 71.6998 13.832H66.2278C66.4198 14.904 67.1558 15.544 68.3718 15.544C69.2518 15.544 69.9558 15.208 70.4838 14.552L71.5718 15.656C70.7878 16.664 69.6038 17.192 68.2758 17.192ZM69.9398 12.472C69.7318 11.448 69.0758 10.888 68.0998 10.888C67.1238 10.888 66.4518 11.496 66.2438 12.472H69.9398ZM77.3638 11.16H76.2438V9.64H77.3638V8.264C77.3638 6.664 78.3718 5.64 79.8918 5.64C80.6758 5.64 81.3638 5.912 81.9238 6.44L81.0118 7.752C80.6758 7.384 80.4038 7.24 80.0358 7.24C79.4598 7.24 79.1238 7.656 79.1238 8.296V9.64H81.2038V11.16H79.1238V17H77.3638V11.16ZM82.3975 9.64H84.0775V10.648C84.5415 9.848 85.1975 9.448 86.0775 9.448C86.3175 9.448 86.5255 9.48 86.6375 9.496L86.3975 11.384C86.1735 11.304 85.9495 11.272 85.7095 11.272C84.7495 11.272 84.1575 11.944 84.1575 12.968V17H82.3975V9.64ZM87.7569 9.64H89.5169V17H87.7569V9.64ZM88.6369 8.376C88.0129 8.376 87.5489 7.912 87.5489 7.288C87.5489 6.664 88.0129 6.2 88.6369 6.2C89.2609 6.2 89.7249 6.664 89.7249 7.288C89.7249 7.912 89.2609 8.376 88.6369 8.376ZM94.9164 17.192C92.6604 17.192 91.0444 15.576 91.0444 13.336C91.0444 11.096 92.6284 9.448 94.7884 9.448C96.8364 9.448 98.4044 10.936 98.4044 13.112C98.4044 13.352 98.3884 13.528 98.3404 13.832H92.8684C93.0604 14.904 93.7964 15.544 95.0124 15.544C95.8924 15.544 96.5964 15.208 97.1244 14.552L98.2124 15.656C97.4284 16.664 96.2444 17.192 94.9164 17.192ZM96.5804 12.472C96.3724 11.448 95.7164 10.888 94.7404 10.888C93.7644 10.888 93.0924 11.496 92.8844 12.472H96.5804ZM99.9288 9.64H101.609V10.472C102.169 9.784 102.873 9.448 103.753 9.448C105.401 9.448 106.569 10.744 106.569 12.456V17H104.809V12.856C104.809 11.752 104.217 11.048 103.257 11.048C102.297 11.048 101.689 11.784 101.689 12.888V17H99.9288V9.64ZM111.565 17.192C109.565 17.192 108.013 15.496 108.013 13.32C108.013 11.16 109.597 9.448 111.645 9.448C112.541 9.448 113.357 9.768 113.933 10.344V5.64H115.693V17H114.013V16.072C113.453 16.728 112.605 17.192 111.565 17.192ZM111.917 15.592C113.149 15.592 114.045 14.648 114.045 13.32C114.045 11.992 113.149 11.048 111.917 11.048C110.717 11.048 109.805 11.992 109.805 13.32C109.805 14.648 110.717 15.592 111.917 15.592ZM120.304 17.192C118.96 17.192 117.792 16.728 116.976 15.816L118.064 14.536C118.816 15.32 119.568 15.672 120.416 15.672C121.136 15.672 121.584 15.416 121.584 14.984C121.584 14.584 121.2 14.376 120.224 14.136C118.288 13.688 117.456 12.952 117.456 11.736C117.456 10.328 118.56 9.448 120.304 9.448C121.456 9.448 122.528 9.832 123.344 10.6L122.32 11.848C121.632 11.224 120.944 10.968 120.224 10.968C119.584 10.968 119.216 11.192 119.216 11.592C119.216 11.976 119.552 12.184 120.512 12.392C122.56 12.856 123.376 13.64 123.376 14.84C123.376 16.296 122.176 17.192 120.304 17.192ZM130.431 17.192C128.943 17.192 127.855 16.232 127.855 14.888C127.855 13.464 129.071 12.424 130.735 12.424C131.375 12.424 132.063 12.584 132.655 12.904V12.648C132.655 11.688 132.015 11.048 131.007 11.048C130.383 11.048 129.855 11.32 129.423 11.88L128.319 10.648C129.103 9.848 130.047 9.448 131.135 9.448C133.119 9.448 134.415 10.744 134.415 12.648V17H132.655V16.216C132.079 16.872 131.311 17.192 130.431 17.192ZM130.847 15.768C131.791 15.768 132.479 15.192 132.623 14.312C132.063 13.928 131.519 13.736 130.959 13.736C130.111 13.736 129.599 14.136 129.599 14.76C129.599 15.384 130.079 15.768 130.847 15.768ZM136.257 9.64H137.937V10.472C138.497 9.784 139.201 9.448 140.081 9.448C141.729 9.448 142.897 10.744 142.897 12.456V17H141.137V12.856C141.137 11.752 140.545 11.048 139.585 11.048C138.625 11.048 138.017 11.784 138.017 12.888V17H136.257V9.64ZM147.893 17.192C145.893 17.192 144.341 15.496 144.341 13.32C144.341 11.16 145.925 9.448 147.973 9.448C148.869 9.448 149.685 9.768 150.261 10.344V5.64H152.021V17H150.341V16.072C149.781 16.728 148.933 17.192 147.893 17.192ZM148.245 15.592C149.477 15.592 150.373 14.648 150.373 13.32C150.373 11.992 149.477 11.048 148.245 11.048C147.045 11.048 146.133 11.992 146.133 13.32C146.133 14.648 147.045 15.592 148.245 15.592ZM160.868 19.56C162.068 19.56 162.772 19.128 162.772 18.44C162.772 17.736 162.052 17.32 160.884 17.32C159.684 17.32 158.98 17.736 158.98 18.44C158.98 19.128 159.7 19.56 160.868 19.56ZM160.852 21C158.628 21 157.22 20.024 157.22 18.488C157.22 17.688 157.588 17.08 158.308 16.68C157.684 16.392 157.364 15.96 157.364 15.384C157.364 14.792 157.7 14.344 158.26 14.088C157.732 13.592 157.428 12.952 157.428 12.2C157.428 10.584 158.788 9.448 160.708 9.448C161.172 9.448 161.604 9.512 161.988 9.64H164.532V10.92H163.556C163.796 11.256 163.908 11.704 163.908 12.168C163.908 13.784 162.548 14.92 160.676 14.92C160.212 14.92 159.796 14.856 159.428 14.728C159.124 14.792 158.964 14.968 158.964 15.272C158.964 15.672 159.364 15.88 160.164 15.88H161.14C163.236 15.88 164.532 16.872 164.532 18.408C164.532 19.992 163.108 21 160.852 21ZM160.66 13.48C161.556 13.48 162.148 12.952 162.148 12.184C162.148 11.4 161.556 10.888 160.66 10.888C159.764 10.888 159.188 11.4 159.188 12.184C159.188 12.952 159.764 13.48 160.66 13.48ZM169.057 17.192C166.801 17.192 165.185 15.576 165.185 13.336C165.185 11.096 166.769 9.448 168.929 9.448C170.977 9.448 172.545 10.936 172.545 13.112C172.545 13.352 172.529 13.528 172.481 13.832H167.009C167.201 14.904 167.937 15.544 169.153 15.544C170.033 15.544 170.737 15.208 171.265 14.552L172.353 15.656C171.569 16.664 170.385 17.192 169.057 17.192ZM170.721 12.472C170.513 11.448 169.857 10.888 168.881 10.888C167.905 10.888 167.233 11.496 167.025 12.472H170.721ZM176.981 17.192C175.445 17.192 174.549 16.232 174.549 14.648V11.16H173.429V9.64H174.549V7.608H176.309V9.64H178.309V11.16H176.309V14.472C176.309 15.176 176.581 15.592 177.205 15.592C177.557 15.592 177.909 15.432 178.245 15.128L179.029 16.392C178.565 16.904 177.813 17.192 176.981 17.192ZM186.781 17.192C185.181 17.192 183.885 16.424 183.181 15.016L184.653 13.928C185.117 14.952 185.821 15.464 186.765 15.464C187.965 15.464 188.717 14.712 188.717 13.56C188.717 12.408 187.917 11.64 186.653 11.64C186.093 11.64 185.629 11.768 185.037 12.136L184.285 11.704L185.053 6.28H190.301V8.008H186.429L186.125 10.056C186.445 9.976 186.781 9.928 187.117 9.928C189.149 9.928 190.621 11.432 190.621 13.48C190.621 15.64 189.005 17.192 186.781 17.192ZM196.35 17.192C193.87 17.192 192.222 14.968 192.222 11.64C192.222 8.264 193.87 6.088 196.35 6.088C198.846 6.088 200.462 8.264 200.462 11.64C200.462 15.016 198.846 17.192 196.35 17.192ZM196.35 15.432C197.694 15.432 198.462 14.056 198.462 11.64C198.462 9.224 197.694 7.848 196.35 7.848C195.006 7.848 194.222 9.224 194.222 11.64C194.222 14.072 195.006 15.432 196.35 15.432ZM206.194 17.192C203.714 17.192 202.066 14.968 202.066 11.64C202.066 8.264 203.714 6.088 206.194 6.088C208.69 6.088 210.306 8.264 210.306 11.64C210.306 15.016 208.69 17.192 206.194 17.192ZM206.194 15.432C207.538 15.432 208.306 14.056 208.306 11.64C208.306 9.224 207.538 7.848 206.194 7.848C204.85 7.848 204.066 9.224 204.066 11.64C204.066 14.072 204.85 15.432 206.194 15.432ZM218.593 17.24C217.009 17.24 215.681 16.52 214.865 15.176L216.273 14.008C216.897 15.048 217.665 15.512 218.625 15.512C219.601 15.512 220.241 15 220.241 14.184C220.241 13.48 219.777 13 218.433 12.44C216.401 11.592 215.521 10.6 215.521 9.128C215.521 7.352 216.881 6.088 218.801 6.088C220.129 6.088 221.281 6.68 222.129 7.768L220.801 8.952C220.209 8.2 219.537 7.816 218.785 7.816C217.953 7.816 217.425 8.264 217.425 9.016C217.425 9.704 217.905 10.152 219.169 10.68C221.265 11.576 222.145 12.584 222.145 14.056C222.145 15.928 220.673 17.24 218.593 17.24ZM223.983 6.28H226.991C229.247 6.28 230.863 7.736 230.863 9.752C230.863 11.768 229.263 13.256 227.039 13.256H225.887V17H223.983V6.28ZM226.991 11.496C228.191 11.496 228.959 10.84 228.959 9.768C228.959 8.728 228.191 8.04 226.991 8.04H225.887V11.496H226.991ZM232.78 6.28H238.7V8.072H234.684V10.6H237.676V12.392H234.684V15.208H238.78V17H232.78V6.28ZM242.744 9.992V17H240.936V6.04H241.736L248.248 13.288V6.28H250.056V17.24H249.256L242.744 9.992ZM252.624 6.28H256.608C259.808 6.28 262.224 8.584 262.224 11.64C262.224 14.712 259.824 17 256.608 17H252.624V6.28ZM256.624 15.208C258.704 15.208 260.224 13.704 260.224 11.64C260.224 9.576 258.704 8.072 256.624 8.072H254.528V15.208H256.624ZM270.247 17.192C268.711 17.192 267.815 16.232 267.815 14.648V11.16H266.695V9.64H267.815V7.608H269.575V9.64H271.575V11.16H269.575V14.472C269.575 15.176 269.847 15.592 270.471 15.592C270.823 15.592 271.175 15.432 271.511 15.128L272.295 16.392C271.831 16.904 271.079 17.192 270.247 17.192ZM276.667 17.192C274.491 17.192 272.779 15.48 272.779 13.32C272.779 11.16 274.491 9.448 276.667 9.448C278.827 9.448 280.539 11.16 280.539 13.32C280.539 15.448 278.827 17.192 276.667 17.192ZM276.667 15.544C277.883 15.544 278.747 14.6 278.747 13.32C278.747 12.04 277.883 11.096 276.667 11.096C275.435 11.096 274.571 12.024 274.571 13.32C274.571 14.616 275.435 15.544 276.667 15.544ZM282.054 5.64H283.814V13.032L286.438 9.64H288.502L285.718 13.112L288.694 17H286.47L283.814 13.448V17H282.054V5.64ZM292.651 17.192C290.395 17.192 288.779 15.576 288.779 13.336C288.779 11.096 290.363 9.448 292.523 9.448C294.571 9.448 296.139 10.936 296.139 13.112C296.139 13.352 296.123 13.528 296.075 13.832H290.603C290.795 14.904 291.531 15.544 292.747 15.544C293.627 15.544 294.331 15.208 294.859 14.552L295.947 15.656C295.163 16.664 293.979 17.192 292.651 17.192ZM294.315 12.472C294.107 11.448 293.451 10.888 292.475 10.888C291.499 10.888 290.827 11.496 290.619 12.472H294.315ZM297.663 9.64H299.343V10.472C299.903 9.784 300.607 9.448 301.487 9.448C303.135 9.448 304.303 10.744 304.303 12.456V17H302.543V12.856C302.543 11.752 301.951 11.048 300.991 11.048C300.031 11.048 299.423 11.784 299.423 12.888V17H297.663V9.64ZM308.836 17.192C307.492 17.192 306.324 16.728 305.508 15.816L306.596 14.536C307.348 15.32 308.1 15.672 308.948 15.672C309.668 15.672 310.116 15.416 310.116 14.984C310.116 14.584 309.732 14.376 308.756 14.136C306.82 13.688 305.988 12.952 305.988 11.736C305.988 10.328 307.092 9.448 308.836 9.448C309.988 9.448 311.06 9.832 311.876 10.6L310.852 11.848C310.164 11.224 309.476 10.968 308.756 10.968C308.116 10.968 307.748 11.192 307.748 11.592C307.748 11.976 308.084 12.184 309.044 12.392C311.092 12.856 311.908 13.64 311.908 14.84C311.908 16.296 310.708 17.192 308.836 17.192Z" fill="url(#paint1_linear_63_711)"/>
<defs>
<linearGradient id="paint0_linear_63_711" x1="0.31409" y1="0.750001" x2="28.0864" y2="11.9759" gradientUnits="userSpaceOnUse">
<stop stop-color="#E880F1"/>
<stop offset="1" stop-color="#FF6F71"/>
</linearGradient>
<linearGradient id="paint1_linear_63_711" x1="37.6513" y1="1.6875" x2="51.4211" y2="72.2735" gradientUnits="userSpaceOnUse">
<stop stop-color="#E880F1"/>
<stop offset="1" stop-color="#FF6F71"/>
</linearGradient>
</defs>
</svg>
