<svg width="22" height="16" viewBox="0 0 22 16" fill="none" xmlns="http://www.w3.org/2000/svg">
<path fill-rule="evenodd" clip-rule="evenodd" d="M0 1C0 0.447715 0.447715 0 1 0H13C13.5523 0 14 0.447715 14 1V9C14 9.55228 13.5523 10 13 10H1C0.447716 10 0 9.55229 0 9V1ZM0 13C0 12.4477 0.447715 12 1 12H5C5.55228 12 6 12.4477 6 13V15C6 15.5523 5.55228 16 5 16H1C0.447715 16 0 15.5523 0 15V13ZM9 12C8.44772 12 8 12.4477 8 13V15C8 15.5523 8.44772 16 9 16H13C13.5523 16 14 15.5523 14 15V13C14 12.4477 13.5523 12 13 12H9ZM16 13C16 12.4477 16.4477 12 17 12H21C21.5523 12 22 12.4477 22 13V15C22 15.5523 21.5523 16 21 16H17C16.4477 16 16 15.5523 16 15V13ZM17 0C16.4477 0 16 0.447715 16 1V9C16 9.55229 16.4477 10 17 10H21C21.5523 10 22 9.55228 22 9V1C22 0.447715 21.5523 0 21 0H17Z" fill="#504C5C"/>
</svg>
