<svg width="24" height="31" viewBox="0 0 24 31" fill="none" xmlns="http://www.w3.org/2000/svg">
<path fill-rule="evenodd" clip-rule="evenodd" d="M2 7.05469C1.44772 7.05469 1 7.5024 1 8.05469V22.0547C1 22.607 1.44772 23.0547 2 23.0547H22C22.5523 23.0547 23 22.607 23 22.0547V8.05469C23 7.5024 22.5523 7.05469 22 7.05469H2ZM20 11.0547H11.8293C11.4175 9.8895 10.3062 9.05469 9 9.05469C7.69378 9.05469 6.58254 9.8895 6.17071 11.0547H4C3.44772 11.0547 3 11.5024 3 12.0547C3 12.607 3.44772 13.0547 4 13.0547H6.17071C6.58254 14.2199 7.69378 15.0547 9 15.0547C10.3062 15.0547 11.4175 14.2199 11.8293 13.0547H20C20.5523 13.0547 21 12.607 21 12.0547C21 11.5024 20.5523 11.0547 20 11.0547ZM4 17.0547C3.44772 17.0547 3 17.5024 3 18.0547C3 18.607 3.44772 19.0547 4 19.0547H12.1707C12.5825 20.2199 13.6938 21.0547 15 21.0547C16.3062 21.0547 17.4175 20.2199 17.8293 19.0547H20C20.5523 19.0547 21 18.607 21 18.0547C21 17.5024 20.5523 17.0547 20 17.0547H17.8293C17.4175 15.8895 16.3062 15.0547 15 15.0547C13.6938 15.0547 12.5825 15.8895 12.1707 17.0547H4Z" fill="#504C5C"/>
<circle cx="9" cy="12.0547" r="2" fill="#504C5C"/>
<circle cx="15" cy="18.0547" r="2" fill="#504C5C"/>
</svg>
