<svg width="40" height="30" viewBox="0 0 40 30" fill="none" xmlns="http://www.w3.org/2000/svg">
<path d="M5.5 7.5C5.5 6.11929 6.58198 5 7.91667 5H32.0833C33.418 5 34.5 6.11929 34.5 7.5V9.375H5.5V7.5Z" fill="white"/>
<path fill-rule="evenodd" clip-rule="evenodd" d="M5.5 13.125H34.5V22.5C34.5 23.8807 33.418 25 32.0833 25H7.91667C6.58198 25 5.5 23.8807 5.5 22.5V13.125ZM29.0625 22.0226C28.7418 22.3195 28.3184 22.5 27.8542 22.5C26.8532 22.5 26.0417 21.6605 26.0417 20.625C26.0417 19.5895 26.8532 18.75 27.8542 18.75C28.3184 18.75 28.7418 18.9305 29.0625 19.2274C29.3832 18.9305 29.8066 18.75 30.2708 18.75C31.2718 18.75 32.0833 19.5895 32.0833 20.625C32.0833 21.6605 31.2718 22.5 30.2708 22.5C29.8066 22.5 29.3832 22.3195 29.0625 22.0226Z" fill="white"/>
<path d="M5.5 7.5C5.5 6.11929 6.58198 5 7.91667 5H32.0833C33.418 5 34.5 6.11929 34.5 7.5V9.375H5.5V7.5Z" fill="white"/>
<path fill-rule="evenodd" clip-rule="evenodd" d="M5.5 13.125H34.5V22.5C34.5 23.8807 33.418 25 32.0833 25H7.91667C6.58198 25 5.5 23.8807 5.5 22.5V13.125ZM29.0625 22.0226C28.7418 22.3195 28.3184 22.5 27.8542 22.5C26.8532 22.5 26.0417 21.6605 26.0417 20.625C26.0417 19.5895 26.8532 18.75 27.8542 18.75C28.3184 18.75 28.7418 18.9305 29.0625 19.2274C29.3832 18.9305 29.8066 18.75 30.2708 18.75C31.2718 18.75 32.0833 19.5895 32.0833 20.625C32.0833 21.6605 31.2718 22.5 30.2708 22.5C29.8066 22.5 29.3832 22.3195 29.0625 22.0226Z" fill="white"/>
</svg>
