<svg width="40" height="30" viewBox="0 0 40 30" fill="none" xmlns="http://www.w3.org/2000/svg">
<path d="M0.0107918 20.7351L0.420455 20.6952C0.445644 20.8292 0.494698 20.9285 0.570267 20.9917C0.645836 21.0549 0.74792 21.0858 0.875194 21.0858C1.01042 21.0858 1.11383 21.0575 1.18277 21.002C1.25171 20.9466 1.28618 20.8808 1.28618 20.806C1.28618 20.7583 1.2716 20.7171 1.24243 20.6835C1.21327 20.65 1.16289 20.6204 1.09129 20.5959C1.04224 20.5791 0.92955 20.5495 0.754549 20.5082C0.529168 20.454 0.371401 20.387 0.279923 20.3083C0.152649 20.1975 0.0876865 20.0608 0.0876865 19.9009C0.0876865 19.7977 0.118179 19.701 0.177839 19.6121C0.237498 19.5218 0.324999 19.4535 0.439015 19.4071C0.553032 19.3606 0.689586 19.3362 0.850004 19.3362C1.11251 19.3362 1.30872 19.3916 1.4413 19.5038C1.57387 19.6159 1.64281 19.7655 1.64944 19.9525L1.22652 19.9679C1.20796 19.8635 1.16951 19.7887 1.10985 19.7423C1.0502 19.6959 0.961369 19.674 0.843375 19.674C0.725382 19.674 0.624623 19.6985 0.555683 19.7475C0.510607 19.7784 0.489395 19.821 0.489395 19.8738C0.489395 19.9215 0.510607 19.9628 0.551706 19.9976C0.604737 20.0414 0.733336 20.0866 0.938831 20.133C1.14433 20.1794 1.29546 20.2284 1.39357 20.2787C1.49168 20.329 1.56857 20.3986 1.62425 20.485C1.67994 20.5727 1.70778 20.681 1.70778 20.8099C1.70778 20.9272 1.67463 21.0355 1.60834 21.1374C1.54206 21.2393 1.44793 21.3153 1.32596 21.3643C1.20398 21.4133 1.05285 21.4391 0.871216 21.4391C0.607388 21.4391 0.404545 21.3798 0.262688 21.2599C0.120831 21.14 0.0359815 20.9659 0.00946607 20.7377L0.0107918 20.7351Z" fill="#FFFFFF"/>
<path d="M2.14794 19.7281V19.3697H2.54965V19.7281H2.14794ZM2.14794 21.4005V19.9293H2.54965V21.4005H2.14794Z" fill="#FFFFFF"/>
<path d="M4.02255 21.4004V20.6487C4.02255 20.4901 4.0146 20.387 3.99736 20.3406C3.98013 20.2941 3.95229 20.258 3.91384 20.231C3.87539 20.2052 3.82899 20.1923 3.77596 20.1923C3.70702 20.1923 3.64471 20.2103 3.59035 20.2477C3.536 20.2851 3.49755 20.3341 3.47766 20.3947C3.45778 20.4553 3.44717 20.5688 3.44717 20.7338V21.4017H3.04546V19.9305H3.418V20.1472C3.55058 19.9795 3.7163 19.8944 3.91649 19.8944C4.00532 19.8944 4.08487 19.9099 4.15911 19.9409C4.23203 19.9718 4.28771 20.0118 4.32483 20.0595C4.36195 20.1072 4.38847 20.1626 4.40305 20.2232C4.41763 20.2838 4.42559 20.3715 4.42559 20.485V21.4004H4.02255Z" fill="#FFFFFF"/>
<path d="M4.87769 21.4971L5.33376 21.5461C5.34171 21.6003 5.35895 21.639 5.38679 21.6596C5.42523 21.6892 5.48489 21.7034 5.56709 21.7034C5.67183 21.7034 5.75005 21.688 5.80308 21.6583C5.83887 21.6377 5.86539 21.6054 5.88263 21.5603C5.89456 21.5281 5.90119 21.4688 5.90119 21.3811V21.1658C5.78452 21.3231 5.63338 21.4017 5.45175 21.4017C5.24891 21.4017 5.08716 21.3179 4.96784 21.1503C4.87504 21.0175 4.82864 20.8537 4.82864 20.6565C4.82864 20.4089 4.88962 20.2207 5.01159 20.0904C5.13357 19.9602 5.28603 19.8944 5.46766 19.8944C5.64929 19.8944 5.80971 19.9744 5.93168 20.1343V19.9305H6.30422V21.2522C6.30422 21.4262 6.28964 21.5564 6.26047 21.6415C6.2313 21.7279 6.1902 21.795 6.13585 21.844C6.08282 21.893 6.01122 21.9317 5.9224 21.9587C5.83357 21.9858 5.72088 22 5.58565 22C5.32845 22 5.14682 21.9574 5.03944 21.8711C4.93205 21.7847 4.87769 21.6764 4.87769 21.5436C4.87769 21.5307 4.87769 21.5152 4.87902 21.4958L4.87769 21.4971ZM5.2383 20.6333C5.2383 20.7893 5.26879 20.904 5.33111 20.9775C5.39342 21.0497 5.46899 21.0871 5.55914 21.0871C5.65592 21.0871 5.73812 21.0497 5.8044 20.9749C5.87069 20.9002 5.90516 20.7906 5.90516 20.6436C5.90516 20.4966 5.87334 20.378 5.80838 20.3032C5.74475 20.2297 5.66387 20.1923 5.56577 20.1923C5.46766 20.1923 5.39209 20.2284 5.33111 20.3019C5.26879 20.3741 5.2383 20.485 5.2383 20.6345V20.6333Z" fill="#FFFFFF"/>
<path d="M6.78413 21.4005V19.3697H7.18584V21.4005H6.78413Z" fill="#FFFFFF"/>
<path d="M8.56332 20.9376L8.96105 21.002C8.90935 21.1439 8.82848 21.2522 8.71711 21.3257C8.60575 21.4004 8.46787 21.4365 8.30082 21.4365C8.03699 21.4365 7.8421 21.3527 7.71483 21.1851C7.6154 21.051 7.56502 20.8808 7.56502 20.6758C7.56502 20.4308 7.63131 20.24 7.76256 20.1007C7.89381 19.9615 8.05953 19.8932 8.26105 19.8932C8.48643 19.8932 8.66541 19.9654 8.79533 20.1111C8.92526 20.2568 8.98757 20.4798 8.98227 20.779H7.97601C7.97866 20.895 8.0118 20.9853 8.07411 21.0497C8.13643 21.1142 8.21464 21.1464 8.30745 21.1464C8.37109 21.1464 8.42412 21.1297 8.46654 21.0974C8.51029 21.0639 8.54211 21.011 8.56465 20.9376H8.56332ZM8.58453 20.543C8.58188 20.4283 8.55139 20.3419 8.49438 20.2813C8.43737 20.2219 8.36711 20.1923 8.28491 20.1923C8.19741 20.1923 8.12449 20.2232 8.06748 20.2864C8.01048 20.3496 7.98131 20.4347 7.98264 20.543H8.58453Z" fill="#FFFFFF"/>
<path d="M10.2975 19.3697H11.8433V19.7127H10.7204V20.1639H11.7651V20.5069H10.7204V21.0588H11.8844V21.4017H10.2975V19.3697Z" fill="#FFFFFF"/>
<path d="M13.3202 21.4004V21.18C13.2645 21.2586 13.1929 21.3205 13.1028 21.3669C13.0126 21.4133 12.9172 21.4365 12.8177 21.4365C12.7183 21.4365 12.6242 21.4146 12.5433 21.3708C12.4624 21.3269 12.4041 21.2663 12.367 21.1877C12.3312 21.109 12.3126 21.0007 12.3126 20.8615V19.9293H12.7143V20.6062C12.7143 20.8138 12.7223 20.9401 12.7369 20.9866C12.7514 21.033 12.778 21.0704 12.8177 21.0974C12.8562 21.1245 12.9066 21.1387 12.9662 21.1387C13.0352 21.1387 13.0961 21.1206 13.1505 21.0845C13.2049 21.0484 13.242 21.0033 13.2619 20.9492C13.2818 20.895 13.2924 20.7622 13.2924 20.552V19.9306H13.6941V21.4017H13.3215L13.3202 21.4004Z" fill="#FFFFFF"/>
<path d="M14.5757 21.4004H14.174V19.9293H14.5465V20.1381C14.6102 20.0389 14.6672 19.9744 14.7189 19.9409C14.7693 19.9086 14.8276 19.8919 14.8926 19.8919C14.9841 19.8919 15.0716 19.9164 15.1564 19.9654L15.0344 20.3058C14.9668 20.2632 14.9032 20.2426 14.8462 20.2426C14.7892 20.2426 14.7428 20.2581 14.703 20.2877C14.6645 20.3174 14.6327 20.3715 14.6102 20.4502C14.5876 20.5288 14.577 20.6939 14.577 20.944V21.3992L14.5757 21.4004Z" fill="#FFFFFF"/>
<path d="M15.3181 20.6449C15.3181 20.5146 15.3513 20.3896 15.4162 20.2684C15.4812 20.1472 15.574 20.0543 15.6946 19.9899C15.8153 19.9254 15.9492 19.8944 16.0977 19.8944C16.327 19.8944 16.514 19.9666 16.6611 20.1123C16.807 20.2568 16.8812 20.4411 16.8812 20.6616C16.8812 20.8821 16.807 21.0703 16.6598 21.2173C16.5126 21.3643 16.3257 21.4378 16.1016 21.4378C15.9624 21.4378 15.8312 21.4069 15.7052 21.3463C15.5793 21.2857 15.4838 21.1954 15.4175 21.0768C15.3526 20.9582 15.3194 20.8151 15.3194 20.6449H15.3181ZM15.7278 20.6655C15.7278 20.8125 15.7636 20.9247 15.8352 21.002C15.9068 21.0794 15.9943 21.1193 16.099 21.1193C16.2037 21.1193 16.2912 21.0807 16.3628 21.002C16.4344 20.9247 16.4689 20.8112 16.4689 20.6629C16.4689 20.5146 16.4331 20.4076 16.3628 20.329C16.2912 20.2516 16.2037 20.2116 16.099 20.2116C15.9943 20.2116 15.9054 20.2503 15.8352 20.329C15.7636 20.4063 15.7278 20.5185 15.7278 20.6655Z" fill="#FFFFFF"/>
<path d="M18.1884 21.4005V19.3697H18.8646C19.1204 19.3697 19.2875 19.38 19.3657 19.4006C19.485 19.4316 19.5858 19.4973 19.6667 19.5992C19.7475 19.7011 19.7873 19.8326 19.7873 19.995C19.7873 20.1201 19.7634 20.2245 19.717 20.3096C19.6706 20.3947 19.611 20.4618 19.5394 20.5095C19.4678 20.5585 19.3949 20.5894 19.3206 20.6062C19.2199 20.6255 19.074 20.6359 18.8845 20.6359H18.61V21.4017H18.1871L18.1884 21.4005ZM18.6114 19.7127V20.2929H18.842C19.0078 20.2929 19.1191 20.2826 19.1748 20.2606C19.2305 20.2387 19.2742 20.2052 19.3061 20.1601C19.3379 20.1149 19.3538 20.0621 19.3538 20.0015C19.3538 19.9267 19.3312 19.8661 19.2875 19.8171C19.2424 19.7694 19.1867 19.7385 19.1191 19.7268C19.0687 19.7178 18.968 19.7127 18.8168 19.7127H18.6114Z" fill="#FFFFFF"/>
<path d="M20.5112 20.3767L20.1505 20.3122C20.1916 20.1704 20.2619 20.0646 20.3613 19.9963C20.4608 19.928 20.6093 19.8932 20.8055 19.8932C20.9844 19.8932 21.117 19.9138 21.2045 19.955C21.292 19.9963 21.353 20.0492 21.3888 20.1124C21.4246 20.1755 21.4418 20.2916 21.4418 20.4618L21.4379 20.9169C21.4379 21.0459 21.4445 21.1426 21.4564 21.2032C21.4697 21.2651 21.4935 21.3308 21.528 21.4004H21.1303C21.1197 21.3747 21.1064 21.3373 21.0918 21.287C21.0852 21.2638 21.0799 21.2496 21.0773 21.2418C21.0083 21.3063 20.9354 21.3553 20.8585 21.3875C20.7803 21.4198 20.6981 21.4365 20.6093 21.4365C20.4541 21.4365 20.3308 21.3953 20.2407 21.3128C20.1505 21.2302 20.1068 21.1258 20.1068 21.0007C20.1068 20.9182 20.1267 20.8434 20.1678 20.7777C20.2089 20.7119 20.2659 20.6629 20.3401 20.6281C20.4144 20.5933 20.5204 20.5636 20.6583 20.5366C20.8452 20.503 20.9752 20.4708 21.0468 20.4411V20.4025C21.0468 20.3264 21.0282 20.2722 20.9898 20.24C20.9513 20.2078 20.8797 20.1923 20.7737 20.1923C20.7021 20.1923 20.6464 20.2065 20.6066 20.2336C20.5668 20.2606 20.5337 20.3096 20.5098 20.378L20.5112 20.3767ZM21.0494 20.6952C20.9977 20.7119 20.9168 20.7313 20.8068 20.7545C20.6968 20.7777 20.6238 20.8009 20.5894 20.8228C20.5377 20.8589 20.5112 20.9053 20.5112 20.9608C20.5112 21.0162 20.5324 21.0626 20.5735 21.1026C20.6146 21.1426 20.6676 21.1619 20.7326 21.1619C20.8041 21.1619 20.8731 21.1387 20.938 21.0923C20.9858 21.0575 21.0176 21.0136 21.0335 20.9633C21.0441 20.9298 21.0494 20.8666 21.0494 20.7725V20.6952Z" fill="#FFFFFF"/>
<path d="M21.7322 19.9293H22.1591L22.521 20.9737L22.875 19.9293H23.2887L22.7557 21.345L22.6589 21.6029C22.6231 21.6893 22.59 21.755 22.5582 21.8001C22.5263 21.8453 22.4892 21.8827 22.4481 21.911C22.407 21.9394 22.3553 21.9613 22.2957 21.9768C22.2347 21.9923 22.1671 22 22.0915 22C22.0159 22 21.939 21.9923 21.8648 21.9768L21.8277 21.6712C21.89 21.6828 21.947 21.6893 21.9987 21.6893C22.0928 21.6893 22.1618 21.6622 22.2068 21.6093C22.2519 21.5552 22.2864 21.4868 22.3102 21.4043L21.7335 19.9293H21.7322Z" fill="#FFFFFF"/>
<path d="M23.6042 19.9293H23.9727V20.1304C24.1053 19.9718 24.2631 19.8932 24.446 19.8932C24.5428 19.8932 24.6277 19.9125 24.6993 19.9512C24.7709 19.9899 24.8292 20.0492 24.8756 20.1278C24.9419 20.0492 25.0148 19.9899 25.0904 19.9512C25.1673 19.9125 25.2495 19.8932 25.337 19.8932C25.4483 19.8932 25.5425 19.9151 25.6194 19.9589C25.6962 20.0028 25.7546 20.0672 25.7917 20.1523C25.8195 20.2155 25.8328 20.3174 25.8328 20.4579V21.4004H25.4311V20.5585C25.4311 20.4128 25.4178 20.3174 25.39 20.2748C25.3529 20.2194 25.2959 20.191 25.219 20.191C25.1633 20.191 25.1103 20.2078 25.0612 20.2413C25.0121 20.2748 24.9764 20.3238 24.9551 20.3883C24.9339 20.4527 24.922 20.5546 24.922 20.6926V21.4004H24.5203V20.5933C24.5203 20.4502 24.5137 20.3573 24.4991 20.3161C24.4845 20.2748 24.4633 20.2439 24.4328 20.2232C24.4023 20.2026 24.3625 20.1923 24.3108 20.1923C24.2498 20.1923 24.1942 20.2091 24.1438 20.2413C24.0947 20.2735 24.0589 20.3199 24.0377 20.3818C24.0165 20.4424 24.0059 20.5443 24.0059 20.6861V21.4017H23.6042V19.9293Z" fill="#FFFFFF"/>
<path d="M27.1957 20.9376L27.5935 21.002C27.5417 21.1439 27.4609 21.2522 27.3495 21.3257C27.2381 21.4004 27.1003 21.4365 26.9332 21.4365C26.6694 21.4365 26.4745 21.3527 26.3472 21.1851C26.2478 21.051 26.1974 20.8808 26.1974 20.6758C26.1974 20.4308 26.2637 20.24 26.395 20.1007C26.5262 19.9615 26.6919 19.8932 26.8934 19.8932C27.1188 19.8932 27.2978 19.9654 27.4277 20.1111C27.5577 20.2568 27.6213 20.4798 27.6147 20.779H26.6084C26.6111 20.895 26.6442 20.9853 26.7065 21.0497C26.7688 21.1142 26.8457 21.1464 26.9398 21.1464C27.0035 21.1464 27.0565 21.1297 27.0989 21.0974C27.1427 21.0639 27.1745 21.011 27.197 20.9376H27.1957ZM27.2169 20.543C27.2143 20.4283 27.1838 20.3419 27.1268 20.2813C27.0698 20.2219 26.9995 20.1923 26.9173 20.1923C26.8298 20.1923 26.7569 20.2232 26.6999 20.2864C26.6429 20.3496 26.615 20.4347 26.615 20.543H27.2169Z" fill="#FFFFFF"/>
<path d="M29.0014 21.4004V20.6487C29.0014 20.4901 28.9935 20.387 28.9762 20.3406C28.959 20.2941 28.9311 20.258 28.8927 20.231C28.8543 20.2052 28.8079 20.1923 28.7548 20.1923C28.6859 20.1923 28.6236 20.2103 28.5692 20.2477C28.5149 20.2851 28.4764 20.3341 28.4565 20.3947C28.4366 20.4553 28.426 20.5688 28.426 20.7338V21.4017H28.0243V19.9305H28.3969V20.1472C28.5294 19.9795 28.6952 19.8944 28.8954 19.8944C28.9842 19.8944 29.0651 19.9099 29.138 19.9409C29.2109 19.9718 29.2666 20.0118 29.3037 20.0595C29.3408 20.1072 29.3673 20.1626 29.3819 20.2232C29.3965 20.2838 29.4044 20.3715 29.4044 20.485V21.4004H29.0014Z" fill="#FFFFFF"/>
<path d="M30.5883 20.24H30.3152V20.8344C30.3152 20.9543 30.3179 21.0252 30.3232 21.0446C30.3285 21.0639 30.3404 21.0807 30.3577 21.0936C30.3762 21.1064 30.3974 21.1129 30.424 21.1129C30.4611 21.1129 30.5128 21.1 30.5817 21.0755L30.6175 21.3772C30.5247 21.4159 30.42 21.4352 30.3033 21.4352C30.2317 21.4352 30.1668 21.4236 30.1097 21.4004C30.0527 21.3772 30.0103 21.3463 29.9825 21.3089C29.956 21.2715 29.9374 21.2212 29.9268 21.1567C29.9188 21.1116 29.9135 21.0201 29.9135 20.8821V20.2387H29.7319V19.928H29.9135V19.634L30.3152 19.4045V19.928H30.5883V20.24Z" fill="#FFFFFF"/>
<path d="M30.8137 20.9853L31.2154 20.9247C31.2327 20.9994 31.2671 21.0575 31.3188 21.0961C31.3705 21.1348 31.4435 21.1542 31.5376 21.1542C31.641 21.1542 31.7192 21.1361 31.7709 21.0987C31.8054 21.0729 31.824 21.0381 31.824 20.9943C31.824 20.9646 31.8147 20.9401 31.7948 20.9208C31.7749 20.9027 31.7298 20.8847 31.6596 20.8692C31.3348 20.7996 31.1293 20.7364 31.0418 20.6784C30.9211 20.5984 30.8615 20.4876 30.8615 20.347C30.8615 20.2194 30.9132 20.1123 31.0179 20.0247C31.1226 19.9383 31.283 19.8944 31.5018 19.8944C31.7206 19.8944 31.8651 19.9267 31.9658 19.9924C32.0666 20.0582 32.1368 20.1536 32.1753 20.2813L31.7988 20.3496C31.7829 20.2929 31.751 20.249 31.706 20.2181C31.6609 20.1871 31.5946 20.1729 31.5111 20.1729C31.405 20.1729 31.3281 20.1871 31.2817 20.2168C31.2512 20.2374 31.2353 20.2632 31.2353 20.2967C31.2353 20.3251 31.2486 20.3483 31.2751 20.3676C31.3109 20.3934 31.4368 20.4308 31.6503 20.4772C31.8651 20.5249 32.0135 20.583 32.0984 20.6513C32.1819 20.7209 32.2243 20.8176 32.2243 20.9427C32.2243 21.0781 32.166 21.1954 32.0507 21.2921C31.9353 21.3901 31.763 21.4378 31.5363 21.4378C31.3308 21.4378 31.1677 21.3979 31.0471 21.3166C30.9264 21.2354 30.8482 21.1258 30.8111 20.9865L30.8137 20.9853Z" fill="#FFFFFF"/>
<path d="M35.4473 21.4005H34.9925L34.8122 20.9414H33.9704L33.798 21.4005H33.3512L34.16 19.3697H34.6041L35.4473 21.4005ZM34.673 20.5985L34.3814 19.8455L34.099 20.5985H34.673Z" fill="#FFFFFF"/>
<path d="M36.138 21.4004H35.7363V19.9293H36.1088V20.1381C36.1725 20.0389 36.2295 19.9744 36.2812 19.9409C36.3316 19.9086 36.3899 19.8919 36.4549 19.8919C36.5463 19.8919 36.6338 19.9164 36.7187 19.9654L36.5967 20.3058C36.5291 20.2632 36.4655 20.2426 36.4085 20.2426C36.3515 20.2426 36.3037 20.2581 36.2653 20.2877C36.2268 20.3174 36.195 20.3715 36.1725 20.4502C36.1499 20.5288 36.1393 20.6939 36.1393 20.944V21.3992L36.138 21.4004Z" fill="#FFFFFF"/>
<path d="M37.8576 20.9376L38.2553 21.002C38.2036 21.1439 38.1227 21.2522 38.0113 21.3257C37.9 21.4004 37.7621 21.4365 37.5951 21.4365C37.3312 21.4365 37.1363 21.3527 37.0091 21.1851C36.9096 21.051 36.8592 20.8808 36.8592 20.6758C36.8592 20.4308 36.9255 20.24 37.0568 20.1007C37.188 19.9615 37.3538 19.8932 37.5553 19.8932C37.7807 19.8932 37.9583 19.9654 38.0896 20.1111C38.2195 20.2568 38.2818 20.4798 38.2765 20.779H37.2702C37.2729 20.895 37.306 20.9853 37.3683 21.0497C37.4307 21.1142 37.5089 21.1464 37.6017 21.1464C37.6653 21.1464 37.7183 21.1297 37.7608 21.0974C37.8032 21.0639 37.8363 21.011 37.8589 20.9376H37.8576ZM37.8788 20.543C37.8761 20.4283 37.8456 20.3419 37.7886 20.2813C37.7316 20.2219 37.6613 20.1923 37.5791 20.1923C37.4916 20.1923 37.4187 20.2232 37.3617 20.2864C37.3047 20.3496 37.2755 20.4347 37.2769 20.543H37.8788Z" fill="#FFFFFF"/>
<path d="M38.9831 20.3767L38.6225 20.3122C38.6636 20.1704 38.7339 20.0646 38.8333 19.9963C38.9328 19.928 39.0812 19.8932 39.2775 19.8932C39.4564 19.8932 39.589 19.9138 39.6765 19.955C39.764 19.9963 39.825 20.0492 39.8608 20.1124C39.8966 20.1755 39.9138 20.2916 39.9138 20.4618L39.9099 20.9169C39.9099 21.0459 39.9165 21.1426 39.9284 21.2032C39.9417 21.2651 39.9655 21.3308 40 21.4004H39.6023C39.5917 21.3747 39.5784 21.3373 39.5638 21.287C39.5572 21.2638 39.5519 21.2496 39.5492 21.2418C39.4803 21.3063 39.4074 21.3553 39.3305 21.3875C39.2523 21.4198 39.1701 21.4365 39.0812 21.4365C38.9261 21.4365 38.8028 21.3953 38.7127 21.3128C38.6225 21.2302 38.5788 21.1258 38.5788 21.0007C38.5788 20.9182 38.5987 20.8434 38.6398 20.7777C38.6809 20.7119 38.7379 20.6629 38.8121 20.6281C38.8864 20.5933 38.9924 20.5636 39.1303 20.5366C39.3172 20.503 39.4472 20.4708 39.5187 20.4411V20.4025C39.5187 20.3264 39.5002 20.2722 39.4617 20.24C39.4233 20.2078 39.3517 20.1923 39.2456 20.1923C39.174 20.1923 39.1184 20.2065 39.0786 20.2336C39.0388 20.2606 39.0057 20.3096 38.9818 20.378L38.9831 20.3767ZM39.5214 20.6952C39.4697 20.7119 39.3888 20.7313 39.2788 20.7545C39.1674 20.7777 39.0958 20.8009 39.0614 20.8228C39.0097 20.8589 38.9831 20.9053 38.9831 20.9608C38.9831 21.0162 39.0043 21.0626 39.0454 21.1026C39.0865 21.1426 39.1396 21.1619 39.2045 21.1619C39.2761 21.1619 39.3451 21.1387 39.41 21.0923C39.4578 21.0575 39.4896 21.0136 39.5055 20.9633C39.5161 20.9298 39.5214 20.8666 39.5214 20.7725V20.6952Z" fill="#FFFFFF"/>
<path d="M8.88398 11.3898H6.14759C6.14759 10.9527 6.09456 10.66 5.98983 10.5104C5.82676 10.2899 5.37732 10.1791 4.64152 10.1791C3.90572 10.1791 3.45363 10.2422 3.22295 10.3699C2.99226 10.4975 2.87692 10.7747 2.87692 11.2028C2.87692 11.5896 2.97901 11.8449 3.1845 11.9661C3.33166 12.0525 3.52522 12.1041 3.76784 12.1196L4.31936 12.157C5.50195 12.233 6.2404 12.2872 6.53472 12.3181C7.46939 12.4097 8.14818 12.6521 8.56845 13.044C8.89989 13.3496 9.09743 13.7493 9.15974 14.2432C9.19687 14.5384 9.21543 14.8724 9.21543 15.2437C9.21543 16.0999 9.1319 16.7265 8.96353 17.1236C8.6586 17.8521 7.97451 18.3124 6.90991 18.5058C6.46313 18.5871 5.78168 18.6283 4.86292 18.6283C3.33033 18.6283 2.26309 18.5393 1.65986 18.3614C0.920084 18.1435 0.432201 17.7 0.196214 17.0346C0.0649627 16.6633 0 16.0457 0 15.1818H2.73639C2.73639 15.2785 2.73639 15.352 2.73639 15.4023C2.73639 15.8639 2.87294 16.1605 3.14473 16.2933C3.33299 16.3848 3.56102 16.4325 3.82882 16.4377H4.83508C5.34816 16.4377 5.67562 16.4119 5.81748 16.3603C6.06937 16.2636 6.23377 16.1089 6.31332 15.8948C6.35574 15.7633 6.37563 15.5918 6.37563 15.383C6.37563 14.9149 6.20063 14.63 5.8493 14.5281C5.71805 14.4881 5.10819 14.4314 4.01973 14.3605C3.14473 14.2999 2.53752 14.2419 2.19813 14.1851C1.30191 14.0227 0.70531 13.6874 0.407011 13.1781C0.144509 12.7449 0.0132577 12.0912 0.0132577 11.2157C0.0132577 10.5491 0.0835235 10.0153 0.225381 9.61302C0.367238 9.21073 0.595271 8.90644 0.909478 8.69756C1.37085 8.37651 1.96081 8.18955 2.67938 8.13282C3.2773 8.08253 3.94019 8.05674 4.66936 8.05674C5.81748 8.05674 6.6368 8.12121 7.12336 8.24886C8.3139 8.5596 8.90917 9.43122 8.90917 10.8637C8.90917 10.981 8.89989 11.1564 8.88266 11.3911L8.88398 11.3898Z" fill="#FFFFFF"/>
<path d="M20.9167 18.6283V8H26.3961C27.1478 8 27.7205 8.05931 28.1156 8.17922C29.0171 8.45386 29.6217 9.01603 29.9319 9.86572C30.0923 10.3118 30.1719 10.9836 30.1719 11.8797C30.1719 12.9576 30.083 13.7326 29.908 14.2045C29.5567 15.1367 28.8328 15.6743 27.7404 15.8136C27.6118 15.8342 27.0656 15.8536 26.1004 15.8678L25.6126 15.8832H23.8586V18.627H20.918L20.9167 18.6283ZM25.6908 13.4192C26.2715 13.3986 26.6254 13.3548 26.7527 13.2877C26.9264 13.1949 27.0431 13.0092 27.1014 12.7294C27.1385 12.5438 27.1571 12.2678 27.1571 11.9004C27.1571 11.4504 27.12 11.1177 27.0457 10.8998C26.9396 10.5955 26.6864 10.4098 26.2847 10.3415C26.2052 10.3312 26.0156 10.326 25.7146 10.326H23.8559V13.4192H25.6908Z" fill="#FFFFFF"/>
<path d="M36.4494 16.7909H32.5172L31.9882 18.6283H28.9455L32.2281 8H36.6642L39.9879 18.6283H37.0089L36.4481 16.7909H36.4494ZM35.8647 14.7202L34.4873 10.1133L33.1495 14.7202H35.8647Z" fill="#FFFFFF"/>
<path d="M16.8571 9.49567C18.0702 9.49567 19.1534 10.0398 19.864 10.8908L20.4977 9.56917C19.506 8.65758 18.1564 8.09541 16.6689 8.09541C14.3514 8.09541 12.3694 9.45699 11.5554 11.3833H10.3184L9.58793 12.9048H11.1789C11.1669 13.0453 11.159 13.1871 11.159 13.3316C11.159 13.5056 11.1682 13.6784 11.1855 13.8486H10.386L9.65687 15.3713H11.5925C12.4291 17.25 14.3872 18.5677 16.6675 18.5677C17.817 18.5677 18.8842 18.2325 19.7672 17.66V15.7943C19.0553 16.5821 18.0158 17.0798 16.8558 17.0798C15.4995 17.0798 14.3077 16.4003 13.613 15.3713H17.6658L18.3963 13.8486H13.0177C12.9899 13.6655 12.9753 13.4785 12.9753 13.2877C12.9753 13.1588 12.9819 13.0311 12.9952 12.9048H18.8498L19.5789 11.3833H13.5003C14.1724 10.2551 15.4226 9.49567 16.8558 9.49567H16.8571Z" fill="#FFFFFF"/>
<path d="M16.8571 9.54081C18.0132 9.54081 19.0964 10.0437 19.8282 10.9192L19.8759 10.9759L19.9077 10.9101L20.5415 9.58852L20.556 9.55887L20.5322 9.53566C19.4888 8.57636 18.118 8.04901 16.6689 8.04901C15.538 8.04901 14.4495 8.37006 13.5215 8.97865C12.616 9.57176 11.92 10.3982 11.5116 11.3653L11.5554 11.3369H10.2893L10.2773 11.3627L9.54818 12.8854L9.51768 12.9499H11.1815L11.1351 12.9009C11.1219 13.0595 11.1152 13.1988 11.1152 13.3316C11.1152 13.5018 11.1245 13.6784 11.1418 13.8538L11.1882 13.8035H10.3595L10.3476 13.8293L9.61712 15.352L9.58662 15.4165H11.5952L11.5527 15.3894C12.4251 17.348 14.435 18.6141 16.6715 18.6141C17.7931 18.6141 18.8736 18.2982 19.7977 17.7L19.8189 17.6871V15.6757L19.7367 15.7672C19.0075 16.5743 17.9602 17.0359 16.8611 17.0359C15.5685 17.0359 14.37 16.4041 13.6581 15.3482L13.6196 15.4191H17.703L17.7149 15.3933L18.4454 13.8705L18.4772 13.8061H13.0243L13.0707 13.8447C13.0429 13.6604 13.0283 13.4734 13.0283 13.2903C13.0283 13.1652 13.035 13.0376 13.0482 12.9125L13.0018 12.9538H18.8869L18.8988 12.928L19.628 11.4052L19.6598 11.3408H13.5083L13.548 11.4091C14.2334 10.259 15.5035 9.54468 16.8638 9.54468L16.8571 9.54081ZM13.5016 11.4285H19.5803L19.5379 11.364L18.8087 12.8867L18.8511 12.8609H12.9541L12.9501 12.9022C12.9368 13.0311 12.9302 13.1614 12.9302 13.289C12.9302 13.4773 12.9448 13.6681 12.9726 13.8576L12.9793 13.8963H18.399L18.3566 13.8318L17.6261 15.3546L17.6685 15.3288H13.5281L13.5759 15.3997C14.3064 16.4828 15.5327 17.1288 16.8571 17.1288C17.9827 17.1288 19.0566 16.6556 19.8043 15.8291L19.7221 15.7994V17.6652L19.7433 17.6278C18.8352 18.2157 17.7733 18.5265 16.6702 18.5265C14.4708 18.5265 12.4954 17.2822 11.6376 15.3572L11.6257 15.3301H9.65954L9.70197 15.3959L10.4311 13.8731L10.3887 13.9002H11.2399L11.2346 13.8499C11.2173 13.6784 11.208 13.5056 11.208 13.3367C11.208 13.2078 11.2147 13.0698 11.2279 12.9138L11.2319 12.8648H9.5906L9.63303 12.9293L10.3635 11.4065L10.3211 11.4336H11.5885L11.6005 11.4052C12.0022 10.4537 12.6849 9.64267 13.5759 9.05859C14.488 8.46161 15.5579 8.14571 16.6702 8.14571C18.0941 8.14571 19.4424 8.66404 20.4672 9.60657L20.4566 9.55371L19.8229 10.8766L19.9011 10.8676C19.1507 9.97018 18.0411 9.45572 16.8571 9.45572C15.4638 9.45572 14.1632 10.1881 13.4605 11.3666L13.4194 11.4349H13.5016V11.4285Z" fill="#FFFFFF"/>
<path d="M0.0107918 20.7351L0.420455 20.6952C0.445644 20.8292 0.494698 20.9285 0.570267 20.9917C0.645836 21.0549 0.74792 21.0858 0.875194 21.0858C1.01042 21.0858 1.11383 21.0575 1.18277 21.002C1.25171 20.9466 1.28618 20.8808 1.28618 20.806C1.28618 20.7583 1.2716 20.7171 1.24243 20.6835C1.21327 20.65 1.16289 20.6204 1.09129 20.5959C1.04224 20.5791 0.92955 20.5495 0.754549 20.5082C0.529168 20.454 0.371401 20.387 0.279923 20.3083C0.152649 20.1975 0.0876865 20.0608 0.0876865 19.9009C0.0876865 19.7977 0.118179 19.701 0.177839 19.6121C0.237498 19.5218 0.324999 19.4535 0.439015 19.4071C0.553032 19.3606 0.689586 19.3362 0.850004 19.3362C1.11251 19.3362 1.30872 19.3916 1.4413 19.5038C1.57387 19.6159 1.64281 19.7655 1.64944 19.9525L1.22652 19.9679C1.20796 19.8635 1.16951 19.7887 1.10985 19.7423C1.0502 19.6959 0.961369 19.674 0.843375 19.674C0.725382 19.674 0.624623 19.6985 0.555683 19.7475C0.510607 19.7784 0.489395 19.821 0.489395 19.8738C0.489395 19.9215 0.510607 19.9628 0.551706 19.9976C0.604737 20.0414 0.733336 20.0866 0.938831 20.133C1.14433 20.1794 1.29546 20.2284 1.39357 20.2787C1.49168 20.329 1.56857 20.3986 1.62425 20.485C1.67994 20.5727 1.70778 20.681 1.70778 20.8099C1.70778 20.9272 1.67463 21.0355 1.60834 21.1374C1.54206 21.2393 1.44793 21.3153 1.32596 21.3643C1.20398 21.4133 1.05285 21.4391 0.871216 21.4391C0.607388 21.4391 0.404545 21.3798 0.262688 21.2599C0.120831 21.14 0.0359815 20.9659 0.00946607 20.7377L0.0107918 20.7351Z" fill="#FFFFFF"/>
<path d="M2.14794 19.7281V19.3697H2.54965V19.7281H2.14794ZM2.14794 21.4005V19.9293H2.54965V21.4005H2.14794Z" fill="#FFFFFF"/>
<path d="M4.02255 21.4004V20.6487C4.02255 20.4901 4.0146 20.387 3.99736 20.3406C3.98013 20.2941 3.95229 20.258 3.91384 20.231C3.87539 20.2052 3.82899 20.1923 3.77596 20.1923C3.70702 20.1923 3.64471 20.2103 3.59035 20.2477C3.536 20.2851 3.49755 20.3341 3.47766 20.3947C3.45778 20.4553 3.44717 20.5688 3.44717 20.7338V21.4017H3.04546V19.9305H3.418V20.1472C3.55058 19.9795 3.7163 19.8944 3.91649 19.8944C4.00532 19.8944 4.08487 19.9099 4.15911 19.9409C4.23203 19.9718 4.28771 20.0118 4.32483 20.0595C4.36195 20.1072 4.38847 20.1626 4.40305 20.2232C4.41763 20.2838 4.42559 20.3715 4.42559 20.485V21.4004H4.02255Z" fill="#FFFFFF"/>
<path d="M4.87769 21.4971L5.33376 21.5461C5.34171 21.6003 5.35895 21.639 5.38679 21.6596C5.42523 21.6892 5.48489 21.7034 5.56709 21.7034C5.67183 21.7034 5.75005 21.688 5.80308 21.6583C5.83887 21.6377 5.86539 21.6054 5.88263 21.5603C5.89456 21.5281 5.90119 21.4688 5.90119 21.3811V21.1658C5.78452 21.3231 5.63338 21.4017 5.45175 21.4017C5.24891 21.4017 5.08716 21.3179 4.96784 21.1503C4.87504 21.0175 4.82864 20.8537 4.82864 20.6565C4.82864 20.4089 4.88962 20.2207 5.01159 20.0904C5.13357 19.9602 5.28603 19.8944 5.46766 19.8944C5.64929 19.8944 5.80971 19.9744 5.93168 20.1343V19.9305H6.30422V21.2522C6.30422 21.4262 6.28964 21.5564 6.26047 21.6415C6.2313 21.7279 6.1902 21.795 6.13585 21.844C6.08282 21.893 6.01122 21.9317 5.9224 21.9587C5.83357 21.9858 5.72088 22 5.58565 22C5.32845 22 5.14682 21.9574 5.03944 21.8711C4.93205 21.7847 4.87769 21.6764 4.87769 21.5436C4.87769 21.5307 4.87769 21.5152 4.87902 21.4958L4.87769 21.4971ZM5.2383 20.6333C5.2383 20.7893 5.26879 20.904 5.33111 20.9775C5.39342 21.0497 5.46899 21.0871 5.55914 21.0871C5.65592 21.0871 5.73812 21.0497 5.8044 20.9749C5.87069 20.9002 5.90516 20.7906 5.90516 20.6436C5.90516 20.4966 5.87334 20.378 5.80838 20.3032C5.74475 20.2297 5.66387 20.1923 5.56577 20.1923C5.46766 20.1923 5.39209 20.2284 5.33111 20.3019C5.26879 20.3741 5.2383 20.485 5.2383 20.6345V20.6333Z" fill="#FFFFFF"/>
<path d="M6.78413 21.4005V19.3697H7.18584V21.4005H6.78413Z" fill="#FFFFFF"/>
<path d="M8.56332 20.9376L8.96105 21.002C8.90935 21.1439 8.82848 21.2522 8.71711 21.3257C8.60575 21.4004 8.46787 21.4365 8.30082 21.4365C8.03699 21.4365 7.8421 21.3527 7.71483 21.1851C7.6154 21.051 7.56502 20.8808 7.56502 20.6758C7.56502 20.4308 7.63131 20.24 7.76256 20.1007C7.89381 19.9615 8.05953 19.8932 8.26105 19.8932C8.48643 19.8932 8.66541 19.9654 8.79533 20.1111C8.92526 20.2568 8.98757 20.4798 8.98227 20.779H7.97601C7.97866 20.895 8.0118 20.9853 8.07411 21.0497C8.13643 21.1142 8.21464 21.1464 8.30745 21.1464C8.37109 21.1464 8.42412 21.1297 8.46654 21.0974C8.51029 21.0639 8.54211 21.011 8.56465 20.9376H8.56332ZM8.58453 20.543C8.58188 20.4283 8.55139 20.3419 8.49438 20.2813C8.43737 20.2219 8.36711 20.1923 8.28491 20.1923C8.19741 20.1923 8.12449 20.2232 8.06748 20.2864C8.01048 20.3496 7.98131 20.4347 7.98264 20.543H8.58453Z" fill="#FFFFFF"/>
<path d="M10.2975 19.3697H11.8433V19.7127H10.7204V20.1639H11.7651V20.5069H10.7204V21.0588H11.8844V21.4017H10.2975V19.3697Z" fill="#FFFFFF"/>
<path d="M13.3202 21.4004V21.18C13.2645 21.2586 13.1929 21.3205 13.1028 21.3669C13.0126 21.4133 12.9172 21.4365 12.8177 21.4365C12.7183 21.4365 12.6242 21.4146 12.5433 21.3708C12.4624 21.3269 12.4041 21.2663 12.367 21.1877C12.3312 21.109 12.3126 21.0007 12.3126 20.8615V19.9293H12.7143V20.6062C12.7143 20.8138 12.7223 20.9401 12.7369 20.9866C12.7514 21.033 12.778 21.0704 12.8177 21.0974C12.8562 21.1245 12.9066 21.1387 12.9662 21.1387C13.0352 21.1387 13.0961 21.1206 13.1505 21.0845C13.2049 21.0484 13.242 21.0033 13.2619 20.9492C13.2818 20.895 13.2924 20.7622 13.2924 20.552V19.9306H13.6941V21.4017H13.3215L13.3202 21.4004Z" fill="#FFFFFF"/>
<path d="M14.5757 21.4004H14.174V19.9293H14.5465V20.1381C14.6102 20.0389 14.6672 19.9744 14.7189 19.9409C14.7693 19.9086 14.8276 19.8919 14.8926 19.8919C14.9841 19.8919 15.0716 19.9164 15.1564 19.9654L15.0344 20.3058C14.9668 20.2632 14.9032 20.2426 14.8462 20.2426C14.7892 20.2426 14.7428 20.2581 14.703 20.2877C14.6645 20.3174 14.6327 20.3715 14.6102 20.4502C14.5876 20.5288 14.577 20.6939 14.577 20.944V21.3992L14.5757 21.4004Z" fill="#FFFFFF"/>
<path d="M15.3181 20.6449C15.3181 20.5146 15.3513 20.3896 15.4162 20.2684C15.4812 20.1472 15.574 20.0543 15.6946 19.9899C15.8153 19.9254 15.9492 19.8944 16.0977 19.8944C16.327 19.8944 16.514 19.9666 16.6611 20.1123C16.807 20.2568 16.8812 20.4411 16.8812 20.6616C16.8812 20.8821 16.807 21.0703 16.6598 21.2173C16.5126 21.3643 16.3257 21.4378 16.1016 21.4378C15.9624 21.4378 15.8312 21.4069 15.7052 21.3463C15.5793 21.2857 15.4838 21.1954 15.4175 21.0768C15.3526 20.9582 15.3194 20.8151 15.3194 20.6449H15.3181ZM15.7278 20.6655C15.7278 20.8125 15.7636 20.9247 15.8352 21.002C15.9068 21.0794 15.9943 21.1193 16.099 21.1193C16.2037 21.1193 16.2912 21.0807 16.3628 21.002C16.4344 20.9247 16.4689 20.8112 16.4689 20.6629C16.4689 20.5146 16.4331 20.4076 16.3628 20.329C16.2912 20.2516 16.2037 20.2116 16.099 20.2116C15.9943 20.2116 15.9054 20.2503 15.8352 20.329C15.7636 20.4063 15.7278 20.5185 15.7278 20.6655Z" fill="#FFFFFF"/>
<path d="M18.1884 21.4005V19.3697H18.8646C19.1204 19.3697 19.2875 19.38 19.3657 19.4006C19.485 19.4316 19.5858 19.4973 19.6667 19.5992C19.7475 19.7011 19.7873 19.8326 19.7873 19.995C19.7873 20.1201 19.7634 20.2245 19.717 20.3096C19.6706 20.3947 19.611 20.4618 19.5394 20.5095C19.4678 20.5585 19.3949 20.5894 19.3206 20.6062C19.2199 20.6255 19.074 20.6359 18.8845 20.6359H18.61V21.4017H18.1871L18.1884 21.4005ZM18.6114 19.7127V20.2929H18.842C19.0078 20.2929 19.1191 20.2826 19.1748 20.2606C19.2305 20.2387 19.2742 20.2052 19.3061 20.1601C19.3379 20.1149 19.3538 20.0621 19.3538 20.0015C19.3538 19.9267 19.3312 19.8661 19.2875 19.8171C19.2424 19.7694 19.1867 19.7385 19.1191 19.7268C19.0687 19.7178 18.968 19.7127 18.8168 19.7127H18.6114Z" fill="#FFFFFF"/>
<path d="M20.5112 20.3767L20.1505 20.3122C20.1916 20.1704 20.2619 20.0646 20.3613 19.9963C20.4608 19.928 20.6093 19.8932 20.8055 19.8932C20.9844 19.8932 21.117 19.9138 21.2045 19.955C21.292 19.9963 21.353 20.0492 21.3888 20.1124C21.4246 20.1755 21.4418 20.2916 21.4418 20.4618L21.4379 20.9169C21.4379 21.0459 21.4445 21.1426 21.4564 21.2032C21.4697 21.2651 21.4935 21.3308 21.528 21.4004H21.1303C21.1197 21.3747 21.1064 21.3373 21.0918 21.287C21.0852 21.2638 21.0799 21.2496 21.0773 21.2418C21.0083 21.3063 20.9354 21.3553 20.8585 21.3875C20.7803 21.4198 20.6981 21.4365 20.6093 21.4365C20.4541 21.4365 20.3308 21.3953 20.2407 21.3128C20.1505 21.2302 20.1068 21.1258 20.1068 21.0007C20.1068 20.9182 20.1267 20.8434 20.1678 20.7777C20.2089 20.7119 20.2659 20.6629 20.3401 20.6281C20.4144 20.5933 20.5204 20.5636 20.6583 20.5366C20.8452 20.503 20.9752 20.4708 21.0468 20.4411V20.4025C21.0468 20.3264 21.0282 20.2722 20.9898 20.24C20.9513 20.2078 20.8797 20.1923 20.7737 20.1923C20.7021 20.1923 20.6464 20.2065 20.6066 20.2336C20.5668 20.2606 20.5337 20.3096 20.5098 20.378L20.5112 20.3767ZM21.0494 20.6952C20.9977 20.7119 20.9168 20.7313 20.8068 20.7545C20.6968 20.7777 20.6238 20.8009 20.5894 20.8228C20.5377 20.8589 20.5112 20.9053 20.5112 20.9608C20.5112 21.0162 20.5324 21.0626 20.5735 21.1026C20.6146 21.1426 20.6676 21.1619 20.7326 21.1619C20.8041 21.1619 20.8731 21.1387 20.938 21.0923C20.9858 21.0575 21.0176 21.0136 21.0335 20.9633C21.0441 20.9298 21.0494 20.8666 21.0494 20.7725V20.6952Z" fill="#FFFFFF"/>
<path d="M21.7322 19.9293H22.1591L22.521 20.9737L22.875 19.9293H23.2887L22.7557 21.345L22.6589 21.6029C22.6231 21.6893 22.59 21.755 22.5582 21.8001C22.5263 21.8453 22.4892 21.8827 22.4481 21.911C22.407 21.9394 22.3553 21.9613 22.2957 21.9768C22.2347 21.9923 22.1671 22 22.0915 22C22.0159 22 21.939 21.9923 21.8648 21.9768L21.8277 21.6712C21.89 21.6828 21.947 21.6893 21.9987 21.6893C22.0928 21.6893 22.1618 21.6622 22.2068 21.6093C22.2519 21.5552 22.2864 21.4868 22.3102 21.4043L21.7335 19.9293H21.7322Z" fill="#FFFFFF"/>
<path d="M23.6042 19.9293H23.9727V20.1304C24.1053 19.9718 24.2631 19.8932 24.446 19.8932C24.5428 19.8932 24.6277 19.9125 24.6993 19.9512C24.7709 19.9899 24.8292 20.0492 24.8756 20.1278C24.9419 20.0492 25.0148 19.9899 25.0904 19.9512C25.1673 19.9125 25.2495 19.8932 25.337 19.8932C25.4483 19.8932 25.5425 19.9151 25.6194 19.9589C25.6962 20.0028 25.7546 20.0672 25.7917 20.1523C25.8195 20.2155 25.8328 20.3174 25.8328 20.4579V21.4004H25.4311V20.5585C25.4311 20.4128 25.4178 20.3174 25.39 20.2748C25.3529 20.2194 25.2959 20.191 25.219 20.191C25.1633 20.191 25.1103 20.2078 25.0612 20.2413C25.0121 20.2748 24.9764 20.3238 24.9551 20.3883C24.9339 20.4527 24.922 20.5546 24.922 20.6926V21.4004H24.5203V20.5933C24.5203 20.4502 24.5137 20.3573 24.4991 20.3161C24.4845 20.2748 24.4633 20.2439 24.4328 20.2232C24.4023 20.2026 24.3625 20.1923 24.3108 20.1923C24.2498 20.1923 24.1942 20.2091 24.1438 20.2413C24.0947 20.2735 24.0589 20.3199 24.0377 20.3818C24.0165 20.4424 24.0059 20.5443 24.0059 20.6861V21.4017H23.6042V19.9293Z" fill="#FFFFFF"/>
<path d="M27.1957 20.9376L27.5935 21.002C27.5417 21.1439 27.4609 21.2522 27.3495 21.3257C27.2381 21.4004 27.1003 21.4365 26.9332 21.4365C26.6694 21.4365 26.4745 21.3527 26.3472 21.1851C26.2478 21.051 26.1974 20.8808 26.1974 20.6758C26.1974 20.4308 26.2637 20.24 26.395 20.1007C26.5262 19.9615 26.6919 19.8932 26.8934 19.8932C27.1188 19.8932 27.2978 19.9654 27.4277 20.1111C27.5577 20.2568 27.6213 20.4798 27.6147 20.779H26.6084C26.6111 20.895 26.6442 20.9853 26.7065 21.0497C26.7688 21.1142 26.8457 21.1464 26.9398 21.1464C27.0035 21.1464 27.0565 21.1297 27.0989 21.0974C27.1427 21.0639 27.1745 21.011 27.197 20.9376H27.1957ZM27.2169 20.543C27.2143 20.4283 27.1838 20.3419 27.1268 20.2813C27.0698 20.2219 26.9995 20.1923 26.9173 20.1923C26.8298 20.1923 26.7569 20.2232 26.6999 20.2864C26.6429 20.3496 26.615 20.4347 26.615 20.543H27.2169Z" fill="#FFFFFF"/>
<path d="M29.0014 21.4004V20.6487C29.0014 20.4901 28.9935 20.387 28.9762 20.3406C28.959 20.2941 28.9311 20.258 28.8927 20.231C28.8543 20.2052 28.8079 20.1923 28.7548 20.1923C28.6859 20.1923 28.6236 20.2103 28.5692 20.2477C28.5149 20.2851 28.4764 20.3341 28.4565 20.3947C28.4366 20.4553 28.426 20.5688 28.426 20.7338V21.4017H28.0243V19.9305H28.3969V20.1472C28.5294 19.9795 28.6952 19.8944 28.8954 19.8944C28.9842 19.8944 29.0651 19.9099 29.138 19.9409C29.2109 19.9718 29.2666 20.0118 29.3037 20.0595C29.3408 20.1072 29.3673 20.1626 29.3819 20.2232C29.3965 20.2838 29.4044 20.3715 29.4044 20.485V21.4004H29.0014Z" fill="#FFFFFF"/>
<path d="M30.5883 20.24H30.3152V20.8344C30.3152 20.9543 30.3179 21.0252 30.3232 21.0446C30.3285 21.0639 30.3404 21.0807 30.3577 21.0936C30.3762 21.1064 30.3974 21.1129 30.424 21.1129C30.4611 21.1129 30.5128 21.1 30.5817 21.0755L30.6175 21.3772C30.5247 21.4159 30.42 21.4352 30.3033 21.4352C30.2317 21.4352 30.1668 21.4236 30.1097 21.4004C30.0527 21.3772 30.0103 21.3463 29.9825 21.3089C29.956 21.2715 29.9374 21.2212 29.9268 21.1567C29.9188 21.1116 29.9135 21.0201 29.9135 20.8821V20.2387H29.7319V19.928H29.9135V19.634L30.3152 19.4045V19.928H30.5883V20.24Z" fill="#FFFFFF"/>
<path d="M30.8137 20.9853L31.2154 20.9247C31.2327 20.9994 31.2671 21.0575 31.3188 21.0961C31.3705 21.1348 31.4435 21.1542 31.5376 21.1542C31.641 21.1542 31.7192 21.1361 31.7709 21.0987C31.8054 21.0729 31.824 21.0381 31.824 20.9943C31.824 20.9646 31.8147 20.9401 31.7948 20.9208C31.7749 20.9027 31.7298 20.8847 31.6596 20.8692C31.3348 20.7996 31.1293 20.7364 31.0418 20.6784C30.9211 20.5984 30.8615 20.4876 30.8615 20.347C30.8615 20.2194 30.9132 20.1123 31.0179 20.0247C31.1226 19.9383 31.283 19.8944 31.5018 19.8944C31.7206 19.8944 31.8651 19.9267 31.9658 19.9924C32.0666 20.0582 32.1368 20.1536 32.1753 20.2813L31.7988 20.3496C31.7829 20.2929 31.751 20.249 31.706 20.2181C31.6609 20.1871 31.5946 20.1729 31.5111 20.1729C31.405 20.1729 31.3281 20.1871 31.2817 20.2168C31.2512 20.2374 31.2353 20.2632 31.2353 20.2967C31.2353 20.3251 31.2486 20.3483 31.2751 20.3676C31.3109 20.3934 31.4368 20.4308 31.6503 20.4772C31.8651 20.5249 32.0135 20.583 32.0984 20.6513C32.1819 20.7209 32.2243 20.8176 32.2243 20.9427C32.2243 21.0781 32.166 21.1954 32.0507 21.2921C31.9353 21.3901 31.763 21.4378 31.5363 21.4378C31.3308 21.4378 31.1677 21.3979 31.0471 21.3166C30.9264 21.2354 30.8482 21.1258 30.8111 20.9865L30.8137 20.9853Z" fill="#FFFFFF"/>
<path d="M35.4473 21.4005H34.9925L34.8122 20.9414H33.9704L33.798 21.4005H33.3512L34.16 19.3697H34.6041L35.4473 21.4005ZM34.673 20.5985L34.3814 19.8455L34.099 20.5985H34.673Z" fill="#FFFFFF"/>
<path d="M36.138 21.4004H35.7363V19.9293H36.1088V20.1381C36.1725 20.0389 36.2295 19.9744 36.2812 19.9409C36.3316 19.9086 36.3899 19.8919 36.4549 19.8919C36.5463 19.8919 36.6338 19.9164 36.7187 19.9654L36.5967 20.3058C36.5291 20.2632 36.4655 20.2426 36.4085 20.2426C36.3515 20.2426 36.3037 20.2581 36.2653 20.2877C36.2268 20.3174 36.195 20.3715 36.1725 20.4502C36.1499 20.5288 36.1393 20.6939 36.1393 20.944V21.3992L36.138 21.4004Z" fill="#FFFFFF"/>
<path d="M37.8576 20.9376L38.2553 21.002C38.2036 21.1439 38.1227 21.2522 38.0113 21.3257C37.9 21.4004 37.7621 21.4365 37.5951 21.4365C37.3312 21.4365 37.1363 21.3527 37.0091 21.1851C36.9096 21.051 36.8592 20.8808 36.8592 20.6758C36.8592 20.4308 36.9255 20.24 37.0568 20.1007C37.188 19.9615 37.3538 19.8932 37.5553 19.8932C37.7807 19.8932 37.9583 19.9654 38.0896 20.1111C38.2195 20.2568 38.2818 20.4798 38.2765 20.779H37.2702C37.2729 20.895 37.306 20.9853 37.3683 21.0497C37.4307 21.1142 37.5089 21.1464 37.6017 21.1464C37.6653 21.1464 37.7183 21.1297 37.7608 21.0974C37.8032 21.0639 37.8363 21.011 37.8589 20.9376H37.8576ZM37.8788 20.543C37.8761 20.4283 37.8456 20.3419 37.7886 20.2813C37.7316 20.2219 37.6613 20.1923 37.5791 20.1923C37.4916 20.1923 37.4187 20.2232 37.3617 20.2864C37.3047 20.3496 37.2755 20.4347 37.2769 20.543H37.8788Z" fill="#FFFFFF"/>
<path d="M38.9831 20.3767L38.6225 20.3122C38.6636 20.1704 38.7339 20.0646 38.8333 19.9963C38.9328 19.928 39.0812 19.8932 39.2775 19.8932C39.4564 19.8932 39.589 19.9138 39.6765 19.955C39.764 19.9963 39.825 20.0492 39.8608 20.1124C39.8966 20.1755 39.9138 20.2916 39.9138 20.4618L39.9099 20.9169C39.9099 21.0459 39.9165 21.1426 39.9284 21.2032C39.9417 21.2651 39.9655 21.3308 40 21.4004H39.6023C39.5917 21.3747 39.5784 21.3373 39.5638 21.287C39.5572 21.2638 39.5519 21.2496 39.5492 21.2418C39.4803 21.3063 39.4074 21.3553 39.3305 21.3875C39.2523 21.4198 39.1701 21.4365 39.0812 21.4365C38.9261 21.4365 38.8028 21.3953 38.7127 21.3128C38.6225 21.2302 38.5788 21.1258 38.5788 21.0007C38.5788 20.9182 38.5987 20.8434 38.6398 20.7777C38.6809 20.7119 38.7379 20.6629 38.8121 20.6281C38.8864 20.5933 38.9924 20.5636 39.1303 20.5366C39.3172 20.503 39.4472 20.4708 39.5187 20.4411V20.4025C39.5187 20.3264 39.5002 20.2722 39.4617 20.24C39.4233 20.2078 39.3517 20.1923 39.2456 20.1923C39.174 20.1923 39.1184 20.2065 39.0786 20.2336C39.0388 20.2606 39.0057 20.3096 38.9818 20.378L38.9831 20.3767ZM39.5214 20.6952C39.4697 20.7119 39.3888 20.7313 39.2788 20.7545C39.1674 20.7777 39.0958 20.8009 39.0614 20.8228C39.0097 20.8589 38.9831 20.9053 38.9831 20.9608C38.9831 21.0162 39.0043 21.0626 39.0454 21.1026C39.0865 21.1426 39.1396 21.1619 39.2045 21.1619C39.2761 21.1619 39.3451 21.1387 39.41 21.0923C39.4578 21.0575 39.4896 21.0136 39.5055 20.9633C39.5161 20.9298 39.5214 20.8666 39.5214 20.7725V20.6952Z" fill="#FFFFFF"/>
<path d="M8.88398 11.3898H6.14759C6.14759 10.9527 6.09456 10.66 5.98983 10.5104C5.82676 10.2899 5.37732 10.1791 4.64152 10.1791C3.90572 10.1791 3.45363 10.2422 3.22295 10.3699C2.99226 10.4975 2.87692 10.7747 2.87692 11.2028C2.87692 11.5896 2.97901 11.8449 3.1845 11.9661C3.33166 12.0525 3.52522 12.1041 3.76784 12.1196L4.31936 12.157C5.50195 12.233 6.2404 12.2872 6.53472 12.3181C7.46939 12.4097 8.14818 12.6521 8.56845 13.044C8.89989 13.3496 9.09743 13.7493 9.15974 14.2432C9.19687 14.5384 9.21543 14.8724 9.21543 15.2437C9.21543 16.0999 9.1319 16.7265 8.96353 17.1236C8.6586 17.8521 7.97451 18.3124 6.90991 18.5058C6.46313 18.5871 5.78168 18.6283 4.86292 18.6283C3.33033 18.6283 2.26309 18.5393 1.65986 18.3614C0.920084 18.1435 0.432201 17.7 0.196214 17.0346C0.0649627 16.6633 0 16.0457 0 15.1818H2.73639C2.73639 15.2785 2.73639 15.352 2.73639 15.4023C2.73639 15.8639 2.87294 16.1605 3.14473 16.2933C3.33299 16.3848 3.56102 16.4325 3.82882 16.4377H4.83508C5.34816 16.4377 5.67562 16.4119 5.81748 16.3603C6.06937 16.2636 6.23377 16.1089 6.31332 15.8948C6.35574 15.7633 6.37563 15.5918 6.37563 15.383C6.37563 14.9149 6.20063 14.63 5.8493 14.5281C5.71805 14.4881 5.10819 14.4314 4.01973 14.3605C3.14473 14.2999 2.53752 14.2419 2.19813 14.1851C1.30191 14.0227 0.70531 13.6874 0.407011 13.1781C0.144509 12.7449 0.0132577 12.0912 0.0132577 11.2157C0.0132577 10.5491 0.0835235 10.0153 0.225381 9.61302C0.367238 9.21073 0.595271 8.90644 0.909478 8.69756C1.37085 8.37651 1.96081 8.18955 2.67938 8.13282C3.2773 8.08253 3.94019 8.05674 4.66936 8.05674C5.81748 8.05674 6.6368 8.12121 7.12336 8.24886C8.3139 8.5596 8.90917 9.43122 8.90917 10.8637C8.90917 10.981 8.89989 11.1564 8.88266 11.3911L8.88398 11.3898Z" fill="#FFFFFF"/>
<path d="M20.9167 18.6283V8H26.3961C27.1478 8 27.7205 8.05931 28.1156 8.17922C29.0171 8.45386 29.6217 9.01603 29.9319 9.86572C30.0923 10.3118 30.1719 10.9836 30.1719 11.8797C30.1719 12.9576 30.083 13.7326 29.908 14.2045C29.5567 15.1367 28.8328 15.6743 27.7404 15.8136C27.6118 15.8342 27.0656 15.8536 26.1004 15.8678L25.6126 15.8832H23.8586V18.627H20.918L20.9167 18.6283ZM25.6908 13.4192C26.2715 13.3986 26.6254 13.3548 26.7527 13.2877C26.9264 13.1949 27.0431 13.0092 27.1014 12.7294C27.1385 12.5438 27.1571 12.2678 27.1571 11.9004C27.1571 11.4504 27.12 11.1177 27.0457 10.8998C26.9396 10.5955 26.6864 10.4098 26.2847 10.3415C26.2052 10.3312 26.0156 10.326 25.7146 10.326H23.8559V13.4192H25.6908Z" fill="#FFFFFF"/>
<path d="M36.4494 16.7909H32.5172L31.9882 18.6283H28.9455L32.2281 8H36.6642L39.9879 18.6283H37.0089L36.4481 16.7909H36.4494ZM35.8647 14.7202L34.4873 10.1133L33.1495 14.7202H35.8647Z" fill="#FFFFFF"/>
<path d="M16.8571 9.49567C18.0702 9.49567 19.1534 10.0398 19.864 10.8908L20.4977 9.56917C19.506 8.65758 18.1564 8.09541 16.6689 8.09541C14.3514 8.09541 12.3694 9.45699 11.5554 11.3833H10.3184L9.58793 12.9048H11.1789C11.1669 13.0453 11.159 13.1871 11.159 13.3316C11.159 13.5056 11.1682 13.6784 11.1855 13.8486H10.386L9.65687 15.3713H11.5925C12.4291 17.25 14.3872 18.5677 16.6675 18.5677C17.817 18.5677 18.8842 18.2325 19.7672 17.66V15.7943C19.0553 16.5821 18.0158 17.0798 16.8558 17.0798C15.4995 17.0798 14.3077 16.4003 13.613 15.3713H17.6658L18.3963 13.8486H13.0177C12.9899 13.6655 12.9753 13.4785 12.9753 13.2877C12.9753 13.1588 12.9819 13.0311 12.9952 12.9048H18.8498L19.5789 11.3833H13.5003C14.1724 10.2551 15.4226 9.49567 16.8558 9.49567H16.8571Z" fill="#FFFFFF"/>
<path d="M16.8571 9.54081C18.0132 9.54081 19.0964 10.0437 19.8282 10.9192L19.8759 10.9759L19.9077 10.9101L20.5415 9.58852L20.556 9.55887L20.5322 9.53566C19.4888 8.57636 18.118 8.04901 16.6689 8.04901C15.538 8.04901 14.4495 8.37006 13.5215 8.97865C12.616 9.57176 11.92 10.3982 11.5116 11.3653L11.5554 11.3369H10.2893L10.2773 11.3627L9.54818 12.8854L9.51768 12.9499H11.1815L11.1351 12.9009C11.1219 13.0595 11.1152 13.1988 11.1152 13.3316C11.1152 13.5018 11.1245 13.6784 11.1418 13.8538L11.1882 13.8035H10.3595L10.3476 13.8293L9.61712 15.352L9.58662 15.4165H11.5952L11.5527 15.3894C12.4251 17.348 14.435 18.6141 16.6715 18.6141C17.7931 18.6141 18.8736 18.2982 19.7977 17.7L19.8189 17.6871V15.6757L19.7367 15.7672C19.0075 16.5743 17.9602 17.0359 16.8611 17.0359C15.5685 17.0359 14.37 16.4041 13.6581 15.3482L13.6196 15.4191H17.703L17.7149 15.3933L18.4454 13.8705L18.4772 13.8061H13.0243L13.0707 13.8447C13.0429 13.6604 13.0283 13.4734 13.0283 13.2903C13.0283 13.1652 13.035 13.0376 13.0482 12.9125L13.0018 12.9538H18.8869L18.8988 12.928L19.628 11.4052L19.6598 11.3408H13.5083L13.548 11.4091C14.2334 10.259 15.5035 9.54468 16.8638 9.54468L16.8571 9.54081ZM13.5016 11.4285H19.5803L19.5379 11.364L18.8087 12.8867L18.8511 12.8609H12.9541L12.9501 12.9022C12.9368 13.0311 12.9302 13.1614 12.9302 13.289C12.9302 13.4773 12.9448 13.6681 12.9726 13.8576L12.9793 13.8963H18.399L18.3566 13.8318L17.6261 15.3546L17.6685 15.3288H13.5281L13.5759 15.3997C14.3064 16.4828 15.5327 17.1288 16.8571 17.1288C17.9827 17.1288 19.0566 16.6556 19.8043 15.8291L19.7221 15.7994V17.6652L19.7433 17.6278C18.8352 18.2157 17.7733 18.5265 16.6702 18.5265C14.4708 18.5265 12.4954 17.2822 11.6376 15.3572L11.6257 15.3301H9.65954L9.70197 15.3959L10.4311 13.8731L10.3887 13.9002H11.2399L11.2346 13.8499C11.2173 13.6784 11.208 13.5056 11.208 13.3367C11.208 13.2078 11.2147 13.0698 11.2279 12.9138L11.2319 12.8648H9.5906L9.63303 12.9293L10.3635 11.4065L10.3211 11.4336H11.5885L11.6005 11.4052C12.0022 10.4537 12.6849 9.64267 13.5759 9.05859C14.488 8.46161 15.5579 8.14571 16.6702 8.14571C18.0941 8.14571 19.4424 8.66404 20.4672 9.60657L20.4566 9.55371L19.8229 10.8766L19.9011 10.8676C19.1507 9.97018 18.0411 9.45572 16.8571 9.45572C15.4638 9.45572 14.1632 10.1881 13.4605 11.3666L13.4194 11.4349H13.5016V11.4285Z" fill="#FFFFFF"/>
</svg>
