<svg width="24" height="25" viewBox="0 0 24 25" fill="none" xmlns="http://www.w3.org/2000/svg">
<path d="M12 24.3428C18.5415 24.3428 23.8444 19.0403 23.8444 12.4992C23.8444 5.95812 18.5415 0.65554 12 0.65554C5.45846 0.65554 0.155518 5.95812 0.155518 12.4992C0.155518 19.0403 5.45846 24.3428 12 24.3428Z" fill="#F08B16"/>
<path d="M12 24.5C5.38266 24.5 0 19.1161 0 12.5008C0 5.88554 5.38266 0.5 12 0.5C18.6173 0.5 24 5.8823 24 12.4992C24 19.1161 18.6173 24.5 12 24.5ZM12 0.812698C5.55442 0.812698 0.311096 6.05566 0.311096 12.5008C0.311096 18.946 5.55442 24.1889 12 24.1889C18.4456 24.1889 23.6889 18.946 23.6889 12.5008C23.6873 6.05566 18.444 0.812698 12 0.812698Z" fill="white"/>
<path d="M11.9999 21.5966C17.0246 21.5966 21.0979 17.5236 21.0979 12.4992C21.0979 7.47483 17.0246 3.40178 11.9999 3.40178C6.97519 3.40178 2.90186 7.47483 2.90186 12.4992C2.90186 17.5236 6.97519 21.5966 11.9999 21.5966Z" fill="#F08B16"/>
<path d="M12.0001 21.7538C6.8961 21.7538 2.74487 17.6028 2.74487 12.4992C2.74487 7.39556 6.8961 3.24461 12.0001 3.24461C17.104 3.24461 21.2553 7.39556 21.2553 12.4992C21.2553 17.6028 17.1024 21.7538 12.0001 21.7538ZM12.0001 3.55731C7.06947 3.55731 3.05759 7.56892 3.05759 12.4992C3.05759 17.4294 7.06947 21.4411 12.0001 21.4411C16.9307 21.4411 20.9425 17.4294 20.9425 12.4992C20.9425 7.56892 16.9307 3.55731 12.0001 3.55731Z" fill="white"/>
<path d="M12 3.55731C11.9142 3.55731 11.8445 3.48765 11.8445 3.40177V0.655539C11.8445 0.569669 11.9142 0.5 12 0.5C12.0859 0.5 12.1556 0.569669 12.1556 0.655539V3.40015C12.1556 3.48765 12.0859 3.55731 12 3.55731Z" fill="white"/>
<path d="M12 24.5C11.9142 24.5 11.8445 24.4303 11.8445 24.3445V21.5998C11.8445 21.514 11.9142 21.4443 12 21.4443C12.0859 21.4443 12.1556 21.514 12.1556 21.5998V24.3445C12.1556 24.4303 12.0859 24.5 12 24.5Z" fill="white"/>
<path d="M2.86796 12.6563H0.160431C0.0745547 12.6563 0.00488281 12.5867 0.00488281 12.5008C0.00488281 12.4149 0.0745547 12.3453 0.160431 12.3453H2.86796C2.95384 12.3453 3.02351 12.4149 3.02351 12.5008C3.02351 12.5867 2.95546 12.6563 2.86796 12.6563Z" fill="white"/>
<path d="M23.8055 12.6563H21.0979C21.0121 12.6563 20.9424 12.5867 20.9424 12.5008C20.9424 12.4149 21.0121 12.3453 21.0979 12.3453H23.8055C23.8913 12.3453 23.961 12.4149 23.961 12.5008C23.961 12.5867 23.893 12.6563 23.8055 12.6563Z" fill="white"/>
<path d="M18.4164 6.20634C18.3759 6.20634 18.337 6.19176 18.3062 6.16097C18.2446 6.09941 18.2446 6.00057 18.3062 5.94063L20.2473 3.99963C20.3089 3.93806 20.4077 3.93806 20.4677 3.99963C20.5292 4.0612 20.5292 4.16003 20.4677 4.21998L18.5266 6.16097C18.4974 6.19176 18.4569 6.20634 18.4164 6.20634Z" fill="white"/>
<path d="M3.60851 21.0149C3.568 21.0149 3.52911 21.0004 3.49833 20.9696C3.43676 20.908 3.43676 20.8092 3.49833 20.7492L5.43945 18.8082C5.50102 18.7467 5.59987 18.7467 5.65982 18.8082C5.72139 18.8698 5.72139 18.9686 5.65982 19.0286L3.71869 20.9696C3.6879 20.9987 3.64901 21.0149 3.60851 21.0149Z" fill="white"/>
<path d="M20.3739 21.0312C20.3333 21.0312 20.2945 21.0166 20.2637 20.9858L18.3225 19.0448C18.261 18.9832 18.261 18.8844 18.3225 18.8244C18.3841 18.7629 18.483 18.7629 18.5429 18.8244L20.484 20.7654C20.5456 20.827 20.5456 20.9258 20.484 20.9858C20.4549 21.015 20.4144 21.0312 20.3739 21.0312Z" fill="white"/>
<path d="M5.56575 6.22254C5.52524 6.22254 5.48635 6.20796 5.45557 6.17718L3.51444 4.23618C3.45287 4.17461 3.45287 4.07578 3.51444 4.01583C3.57601 3.95427 3.67485 3.95427 3.7348 4.01583L5.67593 5.95683C5.7375 6.0184 5.7375 6.11723 5.67593 6.17718C5.64514 6.20796 5.60625 6.22254 5.56575 6.22254Z" fill="white"/>
<path d="M15.8644 11.4266C16.0361 10.2763 15.1612 9.65736 13.9621 9.24583L14.351 7.6872L13.4015 7.45065L13.024 8.96878C12.7744 8.90721 12.5184 8.84726 12.2641 8.79056L12.6448 7.26271L11.6969 7.02616L11.3081 8.58479C11.1023 8.53781 10.8981 8.49082 10.7021 8.44221L10.7037 8.43735L9.39611 8.11007L9.14334 9.1227C9.14334 9.1227 9.84655 9.28472 9.83197 9.29444C10.216 9.39003 10.2857 9.6444 10.2743 9.84693L9.83197 11.6227C9.8579 11.6291 9.89354 11.6389 9.93081 11.6551C9.8984 11.647 9.866 11.6389 9.83035 11.6308L9.20977 14.1178C9.16278 14.2344 9.04288 14.4094 8.77553 14.343C8.78525 14.3576 8.08528 14.1712 8.08528 14.1712L7.61377 15.2568L8.84844 15.5646C9.07853 15.6229 9.30375 15.6829 9.52411 15.7396L9.132 17.316L10.0799 17.5526L10.4688 15.9923C10.728 16.062 10.9792 16.1268 11.2254 16.1884L10.8382 17.7405L11.7877 17.9771L12.1798 16.4039C13.7969 16.7101 15.0137 16.587 15.5257 15.1239C15.9389 13.946 15.5047 13.2655 14.654 12.8232C15.273 12.6774 15.7396 12.2691 15.8644 11.4266ZM13.6964 14.4661C13.4031 15.644 11.4199 15.0073 10.7766 14.8469L11.2983 12.7584C11.94 12.9204 14.0026 13.238 13.6964 14.4661ZM13.9897 11.4104C13.7223 12.4814 12.0712 11.937 11.5349 11.8041L12.008 9.91011C12.5444 10.043 14.2684 10.2925 13.9897 11.4104Z" fill="white"/>
</svg>
