<svg width="46" height="46" viewBox="0 0 46 46" fill="none" xmlns="http://www.w3.org/2000/svg">
<path d="M23 45.6988C35.5379 45.6988 45.7019 35.5355 45.7019 22.9984C45.7019 10.4614 35.5379 0.298115 23 0.298115C10.4621 0.298115 0.298157 10.4614 0.298157 22.9984C0.298157 35.5355 10.4621 45.6988 23 45.6988Z" fill="#62688F"/>
<path d="M23 46C10.3168 46 0 35.6808 0 23.0015C0 10.3223 10.3168 0 23 0C35.6832 0 46 10.3161 46 22.9984C46 35.6808 35.6832 46 23 46ZM23 0.599338C10.646 0.599338 0.596273 10.6483 0.596273 23.0015C0.596273 35.3548 10.646 45.4038 23 45.4038C35.354 45.4038 45.4037 35.3548 45.4037 23.0015C45.4037 10.6483 35.354 0.599338 23 0.599338Z" fill="white"/>
<path d="M23 40.4352C32.6307 40.4352 40.4379 32.6285 40.4379 22.9984C40.4379 13.3684 32.6307 5.56174 23 5.56174C13.3693 5.56174 5.56213 13.3684 5.56213 22.9984C5.56213 32.6285 13.3693 40.4352 23 40.4352Z" fill="#62688F"/>
<path d="M23 40.7364C13.2174 40.7364 5.26086 32.7804 5.26086 22.9984C5.26086 13.2165 13.2174 5.26051 23 5.26051C32.7826 5.26051 40.7391 13.2165 40.7391 22.9984C40.7391 32.7804 32.7826 40.7364 23 40.7364ZM23 5.85985C13.5497 5.85985 5.86024 13.5488 5.86024 22.9984C5.86024 32.4481 13.5497 40.137 23 40.137C32.4503 40.137 40.1397 32.4481 40.1397 22.9984C40.1397 13.5488 32.4503 5.85985 23 5.85985Z" fill="white"/>
<path d="M23 5.85985C22.8354 5.85985 22.7018 5.72632 22.7018 5.56174V0.298116C22.7018 0.133531 22.8354 0 23 0C23.1646 0 23.2981 0.133531 23.2981 0.298116V5.55863C23.2981 5.72632 23.1646 5.85985 23 5.85985Z" fill="white"/>
<path d="M23 46C22.8354 46 22.7018 45.8665 22.7018 45.7019V40.4414C22.7018 40.2768 22.8354 40.1433 23 40.1433C23.1646 40.1433 23.2981 40.2768 23.2981 40.4414V45.7019C23.2981 45.8665 23.1646 46 23 46Z" fill="white"/>
<path d="M5.49997 23.2997H0.310527C0.145931 23.2997 0.0123901 23.1661 0.0123901 23.0015C0.0123901 22.837 0.145931 22.7034 0.310527 22.7034H5.49997C5.66456 22.7034 5.7981 22.837 5.7981 23.0015C5.7981 23.1661 5.66456 23.2997 5.49997 23.2997Z" fill="white"/>
<path d="M45.6305 23.2997H40.441C40.2764 23.2997 40.1429 23.1661 40.1429 23.0015C40.1429 22.837 40.2764 22.7034 40.441 22.7034H45.6305C45.7951 22.7034 45.9286 22.837 45.9286 23.0015C45.9286 23.1661 45.7951 23.2997 45.6305 23.2997Z" fill="white"/>
<path d="M25.6305 26.0572L23 30.8271L20.3696 26.0572L23 27.3429L25.6305 26.0572ZM23 25.9951L17.4348 23.2438L23 33.3331L28.5652 23.2438L23 25.9951Z" fill="white"/>
<path d="M19.882 21.837L23 20.3092L26.118 21.837L23 23.3649L19.882 21.837ZM23 15.1108L25.9969 20.4924L23 19.0236L20.0031 20.4924L23 15.1108ZM23 12.6637L17.6801 22.1445L23 24.7126L28.3199 22.1445L23 12.6637Z" fill="white"/>
<path d="M35.3012 10.9371C35.2236 10.9371 35.149 10.9092 35.09 10.8502C34.972 10.7322 34.972 10.5428 35.09 10.4279L38.8105 6.70762C38.9285 6.58962 39.118 6.58962 39.2329 6.70762C39.3509 6.82563 39.3509 7.01505 39.2329 7.12995L35.5124 10.8502C35.4534 10.9092 35.3757 10.9371 35.3012 10.9371Z" fill="white"/>
<path d="M6.91614 39.3203C6.8385 39.3203 6.76397 39.2924 6.70496 39.2334C6.58695 39.1154 6.58695 38.9259 6.70496 38.811L10.4255 35.0908C10.5435 34.9728 10.7329 34.9728 10.8478 35.0908C10.9658 35.2088 10.9658 35.3982 10.8478 35.5131L7.12732 39.2334C7.07142 39.2893 6.99378 39.3203 6.91614 39.3203Z" fill="white"/>
<path d="M39.0528 39.3514C38.9751 39.3514 38.9006 39.3234 38.8416 39.2644L35.1211 35.5442C35.0031 35.4262 35.0031 35.2367 35.1211 35.1218C35.2391 35.0038 35.4286 35.0038 35.5435 35.1218L39.264 38.8421C39.382 38.9601 39.382 39.1495 39.264 39.2644C39.2049 39.3203 39.1273 39.3514 39.0528 39.3514Z" fill="white"/>
<path d="M10.6677 10.9682C10.5901 10.9682 10.5155 10.9403 10.4565 10.8813L6.73603 7.16101C6.61802 7.043 6.61802 6.85358 6.73603 6.73868C6.85404 6.62067 7.04348 6.62067 7.15839 6.73868L10.8789 10.4589C10.9969 10.5769 10.9969 10.7664 10.8789 10.8813C10.8199 10.9403 10.7453 10.9682 10.6677 10.9682Z" fill="white"/>
</svg>
