<svg width="24" height="24" viewBox="0 0 24 24" fill="none" xmlns="http://www.w3.org/2000/svg">
<path d="M12 23.8431C18.5415 23.8431 23.8444 18.5405 23.8444 11.9994C23.8444 5.45834 18.5415 0.155762 12 0.155762C5.45846 0.155762 0.155518 5.45834 0.155518 11.9994C0.155518 18.5405 5.45846 23.8431 12 23.8431Z" fill="#266EBF"/>
<path d="M12 24C5.38266 24 0 18.6177 0 12.0008C0 5.38392 5.38428 0 12 0C18.6157 0 24 5.3823 24 11.9992C24 18.6161 18.6173 24 12 24ZM12 0.312697C5.55442 0.312697 0.311096 5.55566 0.311096 12.0008C0.311096 18.446 5.55442 23.6889 12 23.6889C18.4456 23.6889 23.6889 18.446 23.6889 12.0008C23.6889 5.55566 18.4456 0.312697 12 0.312697Z" fill="white"/>
<path d="M12 21.0967C17.0247 21.0967 21.098 17.0236 21.098 11.9993C21.098 6.9749 17.0247 2.90186 12 2.90186C6.97531 2.90186 2.90198 6.9749 2.90198 11.9993C2.90198 17.0236 6.97531 21.0967 12 21.0967Z" fill="#266EBF"/>
<path d="M12 21.2538C6.89604 21.2538 2.74481 17.1028 2.74481 11.9992C2.74481 6.89558 6.89604 2.74463 12 2.74463C17.104 2.74463 21.2552 6.89558 21.2552 11.9992C21.2552 17.1028 17.104 21.2538 12 21.2538ZM12 3.05733C7.06941 3.05733 3.05753 7.06894 3.05753 11.9992C3.05753 16.9295 7.06941 20.9411 12 20.9411C16.9306 20.9411 20.9425 16.9295 20.9425 11.9992C20.9425 7.06894 16.9322 3.05733 12 3.05733Z" fill="white"/>
<path d="M12 3.05716C11.9141 3.05716 11.8444 2.98749 11.8444 2.90162V0.157005C11.8444 0.0711345 11.9141 0.00146484 12 0.00146484C12.0858 0.00146484 12.1555 0.0711345 12.1555 0.157005V2.90162C12.1571 2.98749 12.0875 3.05716 12 3.05716Z" fill="white"/>
<path d="M12 24C11.9141 24 11.8444 23.9304 11.8444 23.8445V21.0999C11.8444 21.014 11.9141 20.9443 12 20.9443C12.0858 20.9443 12.1555 21.014 12.1555 21.0999V23.8445C12.1571 23.9304 12.0875 24 12 24Z" fill="white"/>
<path d="M2.86955 12.1563H0.162023C0.0761465 12.1563 0.00646973 12.0866 0.00646973 12.0008C0.00646973 11.9149 0.0761465 11.8452 0.162023 11.8452H2.86955C2.95543 11.8452 3.0251 11.9149 3.0251 12.0008C3.0251 12.0866 2.95543 12.1563 2.86955 12.1563Z" fill="white"/>
<path d="M23.8072 12.1563H21.0996C21.0138 12.1563 20.9441 12.0866 20.9441 12.0008C20.9441 11.9149 21.0138 11.8452 21.0996 11.8452H23.8072C23.8931 11.8452 23.9627 11.9149 23.9627 12.0008C23.9627 12.0866 23.8931 12.1563 23.8072 12.1563Z" fill="white"/>
<path d="M18.418 5.7065C18.3775 5.7065 18.3386 5.69192 18.3078 5.66113C18.2463 5.59957 18.2463 5.50073 18.3078 5.44079L20.249 3.49979C20.3105 3.43822 20.4094 3.43822 20.4693 3.49979C20.5309 3.56136 20.5309 3.66019 20.4693 3.72014L18.5282 5.66113C18.4974 5.69192 18.4585 5.7065 18.418 5.7065Z" fill="white"/>
<path d="M3.61003 20.5151C3.56953 20.5151 3.53064 20.5005 3.49985 20.4697C3.43828 20.4082 3.43828 20.3093 3.49985 20.2494L5.44098 18.3084C5.50255 18.2468 5.6014 18.2468 5.66135 18.3084C5.72292 18.37 5.72292 18.4688 5.66135 18.5287L3.72021 20.4697C3.68943 20.4989 3.64892 20.5151 3.61003 20.5151Z" fill="white"/>
<path d="M20.3754 20.5312C20.3349 20.5312 20.296 20.5166 20.2652 20.4858L18.3241 18.5448C18.2625 18.4833 18.2625 18.3844 18.3241 18.3245C18.3856 18.2629 18.4845 18.2629 18.5444 18.3245L20.4856 20.2655C20.5471 20.3271 20.5471 20.4259 20.4856 20.4858C20.4564 20.515 20.4159 20.5312 20.3754 20.5312Z" fill="white"/>
<path d="M5.56575 5.72261C5.52524 5.72261 5.48635 5.70803 5.45557 5.67725L3.51444 3.73625C3.45287 3.67468 3.45287 3.57585 3.51444 3.5159C3.57601 3.45433 3.67485 3.45433 3.7348 3.5159L5.67593 5.4569C5.7375 5.51847 5.7375 5.6173 5.67593 5.67725C5.64676 5.70803 5.60625 5.72261 5.56575 5.72261Z" fill="white"/>
<path fill-rule="evenodd" clip-rule="evenodd" d="M12.1912 11.2038C10.7605 11.0126 10.4737 10.6254 10.4737 9.9514C10.4737 9.27577 10.95 8.84156 11.9044 8.84156C12.7632 8.84156 13.2411 9.13158 13.4793 9.85419C13.5263 10 13.6705 10.0956 13.8131 10.0956H14.5763C14.7659 10.0956 14.9101 9.9514 14.9101 9.75859V9.70999C14.7189 8.65038 13.8617 7.83056 12.7632 7.73334V6.57652C12.7632 6.38372 12.6206 6.2379 12.3824 6.19092H11.6662C11.475 6.19092 11.3324 6.33673 11.2854 6.57652V7.68474C9.8547 7.87754 8.94733 8.84156 8.94733 10.047C8.94733 11.638 9.90169 12.265 11.906 12.5064C13.2428 12.7462 13.6722 13.0363 13.6722 13.8075C13.6722 14.5787 13.0046 15.1101 12.0988 15.1101C10.8577 15.1101 10.4283 14.5803 10.2857 13.8561C10.2371 13.6633 10.0945 13.5661 9.95192 13.5661H9.14177C8.95057 13.5661 8.80798 13.7103 8.80798 13.9047V13.9517C8.99756 15.1571 9.76072 16.0255 11.3357 16.2669V17.4254C11.3357 17.6166 11.4783 17.7624 11.7164 17.811H12.4326C12.6238 17.811 12.7664 17.6652 12.815 17.4254V16.2669C14.2457 16.0255 15.2001 15.0129 15.2001 13.7103C15.1969 12.0236 14.1955 11.4452 12.1912 11.2038Z" fill="white"/>
</svg>
