<svg width="40" height="40" viewBox="0 0 40 40" fill="none" xmlns="http://www.w3.org/2000/svg">
<path d="M20 39.7381C30.9025 39.7381 39.7408 30.9004 39.7408 19.9986C39.7408 9.09687 30.9025 0.259239 20 0.259239C9.09751 0.259239 0.259277 9.09687 0.259277 19.9986C0.259277 30.9004 9.09751 39.7381 20 39.7381Z" fill="#00A57C"/>
<path d="M20 40C8.9738 40 0 31.0268 0 19.9986C0 8.9705 8.9738 0 20 0C31.0262 0 40 8.9705 40 19.9986C40 31.0268 31.0289 40 20 40ZM20 0.521162C9.25736 0.521162 0.518499 9.25943 0.518499 20.0013C0.518499 30.7433 9.25736 39.4815 20 39.4815C30.7426 39.4815 39.4815 30.7433 39.4815 20.0013C39.4815 9.25943 30.7426 0.521162 20 0.521162Z" fill="white"/>
<path d="M20 35.161C28.3745 35.161 35.1634 28.3726 35.1634 19.9987C35.1634 11.6247 28.3745 4.8363 20 4.8363C11.6255 4.8363 4.83661 11.6247 4.83661 19.9987C4.83661 28.3726 11.6255 35.161 20 35.161Z" fill="#00A57C"/>
<path d="M20 35.4229C11.4934 35.4229 4.57465 28.5047 4.57465 19.9986C4.57465 11.4926 11.4934 4.57436 20 4.57436C28.5066 4.57436 35.4253 11.4926 35.4253 19.9986C35.4253 28.5047 28.5066 35.4229 20 35.4229ZM20 5.09552C11.7823 5.09552 5.09585 11.7815 5.09585 19.9986C5.09585 28.2157 11.7823 34.9018 20 34.9018C28.2176 34.9018 34.9041 28.2157 34.9041 19.9986C34.9041 11.7815 28.2203 5.09552 20 5.09552Z" fill="white"/>
<path d="M20 5.09553C19.8568 5.09553 19.7407 4.97941 19.7407 4.8363V0.261938C19.7407 0.118821 19.8568 0.00270462 20 0.00270462C20.1431 0.00270462 20.2592 0.118821 20.2592 0.261938V4.8363C20.2619 4.97941 20.1458 5.09553 20 5.09553Z" fill="white"/>
<path d="M20 40C19.8568 40 19.7407 39.8839 19.7407 39.7408V35.1664C19.7407 35.0233 19.8568 34.9072 20 34.9072C20.1431 34.9072 20.2592 35.0233 20.2592 35.1664V39.7408C20.2619 39.8839 20.1458 40 20 40Z" fill="white"/>
<path d="M4.78261 20.2606H0.270052C0.126925 20.2606 0.0108032 20.1445 0.0108032 20.0013C0.0108032 19.8582 0.126925 19.7394 0.270052 19.7394H4.78261C4.92574 19.7394 5.04186 19.8555 5.04186 19.9986C5.04186 20.1418 4.92574 20.2606 4.78261 20.2606Z" fill="white"/>
<path d="M39.6787 20.2606H35.1661C35.023 20.2606 34.9069 20.1445 34.9069 20.0013C34.9069 19.8582 35.023 19.7421 35.1661 19.7421H39.6787C39.8218 19.7421 39.9379 19.8582 39.9379 20.0013C39.9379 20.1445 39.8218 20.2606 39.6787 20.2606Z" fill="white"/>
<path d="M30.6968 9.51056C30.6292 9.51056 30.5644 9.48626 30.5131 9.43495C30.4105 9.33234 30.4105 9.16762 30.5131 9.06771L33.7483 5.83271C33.851 5.7301 34.0157 5.7301 34.1156 5.83271C34.2182 5.93532 34.2182 6.10004 34.1156 6.19996L30.8804 9.43495C30.8291 9.48626 30.7643 9.51056 30.6968 9.51056Z" fill="white"/>
<path d="M6.01676 34.1916C5.94925 34.1916 5.88444 34.1673 5.83313 34.116C5.73051 34.0133 5.73051 33.8486 5.83313 33.7487L9.06834 30.5137C9.17096 30.4111 9.33569 30.4111 9.43561 30.5137C9.53823 30.6163 9.53823 30.781 9.43561 30.881L6.2004 34.116C6.14909 34.1646 6.08158 34.1916 6.01676 34.1916Z" fill="white"/>
<path d="M33.9589 34.2186C33.8914 34.2186 33.8266 34.1943 33.7753 34.143L30.5401 30.908C30.4375 30.8054 30.4375 30.6406 30.5401 30.5407C30.6427 30.4381 30.8074 30.4381 30.9074 30.5407L34.1426 33.7757C34.2452 33.8783 34.2452 34.0431 34.1426 34.143C34.094 34.1916 34.0265 34.2186 33.9589 34.2186Z" fill="white"/>
<path d="M9.27627 9.53756C9.20876 9.53756 9.14395 9.51326 9.09264 9.46195L5.85742 6.22696C5.7548 6.12434 5.7548 5.95962 5.85742 5.85971C5.96004 5.7571 6.12477 5.7571 6.22469 5.85971L9.45991 9.09471C9.56253 9.19732 9.56253 9.36204 9.45991 9.46195C9.4113 9.51326 9.34378 9.53756 9.27627 9.53756Z" fill="white"/>
<path fill-rule="evenodd" clip-rule="evenodd" d="M21.8418 21.4568C21.7392 21.4649 21.2072 21.4973 20.0243 21.4973C19.0819 21.4973 18.4148 21.4703 18.1799 21.4568C14.5396 21.2975 11.8229 20.6629 11.8229 19.9041C11.8229 19.1453 14.5396 18.5135 18.1799 18.3514V20.8276C18.4175 20.8438 19.1008 20.8844 20.0405 20.8844C21.1721 20.8844 21.7365 20.8384 21.8391 20.8276V18.3541C25.4713 18.5162 28.1826 19.1507 28.1826 19.9068C28.1826 20.6629 25.474 21.2975 21.8391 21.4595L21.8418 21.4568ZM21.8418 18.0976V15.8833H26.9106V12.5052H13.111V15.8833H18.1799V18.0976C14.0616 18.2866 10.9641 19.1021 10.9641 20.0797C10.9641 21.0572 14.0616 21.8727 18.1799 22.0617V29.1582H21.8418V22.059C25.952 21.87 29.0441 21.0545 29.0441 20.077C29.0414 19.1021 25.952 18.2866 21.8418 18.0976Z" fill="white"/>
</svg>
