<svg width="56" height="56" viewBox="0 0 56 56" fill="none" xmlns="http://www.w3.org/2000/svg">
<path d="M0 28C0 16.7643 0 11.1465 2.69649 7.11088C3.86382 5.36383 5.36383 3.86382 7.11088 2.69649C11.1465 0 16.7643 0 28 0C39.2357 0 44.8535 0 48.8891 2.69649C50.6362 3.86382 52.1362 5.36383 53.3035 7.11088C56 11.1465 56 16.7643 56 28C56 39.2357 56 44.8535 53.3035 48.8891C52.1362 50.6362 50.6362 52.1362 48.8891 53.3035C44.8535 56 39.2357 56 28 56C16.7643 56 11.1465 56 7.11088 53.3035C5.36383 52.1362 3.86382 50.6362 2.69649 48.8891C0 44.8535 0 39.2357 0 28Z" fill="white"/>
<path fill-rule="evenodd" clip-rule="evenodd" d="M14.6719 20.305C13.3517 22.5918 14.1294 25.4944 15.685 31.2998C17.2405 37.1051 18.0183 40.0078 20.305 41.3281C22.5918 42.6483 25.4944 41.8706 31.2998 40.315C37.1051 38.7595 40.0078 37.9817 41.3281 35.695C42.6483 33.4082 41.8706 30.5056 40.315 24.7002C38.7595 18.8948 37.9817 15.9922 35.695 14.6719C33.4082 13.3517 30.5056 14.1294 24.7002 15.685C18.8948 17.2405 15.9922 18.0183 14.6719 20.305ZM22.6594 33.251C22.8003 32.6885 23.3706 32.3468 23.9331 32.4878C25.5156 32.8844 27.3328 32.8893 29.1776 32.395C31.0225 31.9006 32.5938 30.9878 33.7659 29.8531C34.1825 29.4497 34.8473 29.4605 35.2506 29.8772C35.654 30.2938 35.6432 30.9586 35.2265 31.3619C34.7401 31.8329 34.2017 32.2689 33.618 32.6622L33.8391 33.1127C34.3552 34.1642 33.9113 35.4347 32.8526 35.9358C31.8149 36.427 30.5751 35.9938 30.0692 34.9632L29.7945 34.4035L29.7211 34.4234C27.5436 35.0069 25.3635 35.0112 23.4226 34.5248C22.8601 34.3838 22.5184 33.8135 22.6594 33.251ZM32.8657 24.5222C33.1658 25.6424 32.8037 26.7128 32.0569 26.913C31.31 27.1131 30.4613 26.3671 30.1611 25.2469C29.8609 24.1266 30.223 23.0562 30.9698 22.8561C31.7167 22.656 32.5655 23.4019 32.8657 24.5222ZM23.9431 29.087C24.69 28.8869 25.0521 27.8165 24.7519 26.6962C24.4517 25.576 23.6029 24.83 22.8561 25.0302C22.1092 25.2303 21.7471 26.3007 22.0473 27.4209C22.3475 28.5412 23.1963 29.2872 23.9431 29.087Z" fill="#6652CC"/>
</svg>
