<svg width="56" height="56" viewBox="0 0 56 56" fill="none" xmlns="http://www.w3.org/2000/svg">
<path d="M0 28C0 16.7643 0 11.1465 2.69649 7.11088C3.86382 5.36383 5.36383 3.86382 7.11088 2.69649C11.1465 0 16.7643 0 28 0C39.2357 0 44.8535 0 48.8891 2.69649C50.6362 3.86382 52.1362 5.36383 53.3035 7.11088C56 11.1465 56 16.7643 56 28C56 39.2357 56 44.8535 53.3035 48.8891C52.1362 50.6362 50.6362 52.1362 48.8891 53.3035C44.8535 56 39.2357 56 28 56C16.7643 56 11.1465 56 7.11088 53.3035C5.36383 52.1362 3.86382 50.6362 2.69649 48.8891C0 44.8535 0 39.2357 0 28Z" fill="white"/>
<path d="M33.0129 20.2874C33.0129 23.7598 30.2431 26.5748 26.8264 26.5748C23.4097 26.5748 20.6399 23.7598 20.6399 20.2874C20.6399 16.815 23.4097 14 26.8264 14C30.2431 14 33.0129 16.815 33.0129 20.2874Z" fill="#6652CC"/>
<path fill-rule="evenodd" clip-rule="evenodd" d="M37.6528 34.667C38.2934 34.667 38.8128 35.1948 38.8128 35.8459V36.8899H39.84C40.4807 36.8899 41 37.4177 41 38.0688C41 38.7199 40.4807 39.2477 39.84 39.2477H38.8128V40.2917C38.8128 40.9428 38.2934 41.4706 37.6528 41.4706C37.0122 41.4706 36.4928 40.9428 36.4928 40.2917V39.2477H35.4655C34.8249 39.2477 34.3056 38.7199 34.3056 38.0688C34.3056 37.4177 34.8249 36.8899 35.4655 36.8899H36.4928V35.8459C36.4928 35.1948 37.0121 34.667 37.6528 34.667Z" fill="#6652CC"/>
<path d="M33.2326 40.7816C31.4388 41.5475 29.2236 42 26.8264 42C20.8471 42 16 39.185 16 35.7126C16 32.2402 20.8471 29.4252 26.8264 29.4252C30.8633 29.4252 34.3841 30.7084 36.2456 32.6107C35.3587 33.0097 34.6666 33.7744 34.3543 34.7166C32.9774 35.1879 31.9858 36.5108 31.9858 38.0691C31.9858 39.1585 32.4705 40.1329 33.2326 40.7816Z" fill="#6652CC"/>
</svg>
