<svg width="56" height="56" viewBox="0 0 56 56" fill="none" xmlns="http://www.w3.org/2000/svg">
<path d="M0 28C0 16.7643 0 11.1465 2.69649 7.11088C3.86382 5.36383 5.36383 3.86382 7.11088 2.69649C11.1465 0 16.7643 0 28 0C39.2357 0 44.8535 0 48.8891 2.69649C50.6362 3.86382 52.1362 5.36383 53.3035 7.11088C56 11.1465 56 16.7643 56 28C56 39.2357 56 44.8535 53.3035 48.8891C52.1362 50.6362 50.6362 52.1362 48.8891 53.3035C44.8535 56 39.2357 56 28 56C16.7643 56 11.1465 56 7.11088 53.3035C5.36383 52.1362 3.86382 50.6362 2.69649 48.8891C0 44.8535 0 39.2357 0 28Z" fill="white"/>
<path d="M35.4333 39.6998L29.0336 33.3001L27.0793 35.2544C25.0785 37.2552 24.0782 38.2555 23.003 38.0194C21.9277 37.7832 21.4387 36.4557 20.4605 33.8007L17.1981 24.9458C15.2468 19.6492 14.2711 17.001 15.636 15.636C17.001 14.2711 19.6492 15.2468 24.9458 17.1981L33.8007 20.4605C36.4557 21.4387 37.7832 21.9277 38.0194 23.003C38.2555 24.0782 37.2552 25.0785 35.2544 27.0793L33.3001 29.0336L39.6998 35.4333C40.3625 36.096 40.6938 36.4273 40.8469 36.7969C41.051 37.2897 41.051 37.8434 40.8469 38.3363C40.6938 38.7059 40.3625 39.0372 39.6998 39.6998C39.0372 40.3625 38.7059 40.6938 38.3363 40.8469C37.8434 41.051 37.2897 41.051 36.7969 40.8469C36.4273 40.6938 36.096 40.3625 35.4333 39.6998Z" fill="#6652CC"/>
</svg>
