<svg width="56" height="56" viewBox="0 0 56 56" fill="none" xmlns="http://www.w3.org/2000/svg">
<path d="M0 28C0 16.7643 0 11.1465 2.69649 7.11088C3.86382 5.36383 5.36383 3.86382 7.11088 2.69649C11.1465 0 16.7643 0 28 0C39.2357 0 44.8535 0 48.8891 2.69649C50.6362 3.86382 52.1362 5.36383 53.3035 7.11088C56 11.1465 56 16.7643 56 28C56 39.2357 56 44.8535 53.3035 48.8891C52.1362 50.6362 50.6362 52.1362 48.8891 53.3035C44.8535 56 39.2357 56 28 56C16.7643 56 11.1465 56 7.11088 53.3035C5.36383 52.1362 3.86382 50.6362 2.69649 48.8891C0 44.8535 0 39.2357 0 28Z" fill="white"/>
<path fill-rule="evenodd" clip-rule="evenodd" d="M36.4952 14C29.2244 16.433 21.4649 16.99 13.845 16.5904C13.845 16.5904 13.8412 17.4473 13.8412 24.9385L15.9691 27.064C14.9885 27.6948 14 28.313 13.0039 28.919L13 35.8189L19.0085 41.8245C27.0782 42.351 35.3163 41.7619 43 39.114V30.7698L40.8056 28.5779C41.3725 28.0295 41.9408 27.4703 42.4999 26.9055C42.4999 26.2456 42.5038 20.0016 42.5038 20.0016L36.4952 14ZM40.174 26.3828V23.0374L40.1701 23.0335C34.9369 24.4932 29.7036 25.0469 24.4704 25.0469C23.7029 25.0469 22.9392 25.0353 22.1717 25.0121V28.7137C22.9469 28.737 23.7183 28.7486 24.4936 28.7486C27.1878 28.7486 29.882 28.6015 32.5761 28.2569C28.8315 31.2654 25.0829 33.8945 21.3344 36.2758V39.6213C22.381 39.6639 23.4276 39.6871 24.4743 39.6871C29.8742 39.6871 35.2741 39.0947 40.6779 37.5304V33.8287C36.7588 34.9593 32.8475 35.5827 28.9322 35.8421C32.6769 33.0659 36.4254 29.9528 40.174 26.3828Z" fill="#6652CC"/>
</svg>
