<svg width="16" height="16" viewBox="0 0 16 16" fill="none" xmlns="http://www.w3.org/2000/svg">
<path fill-rule="evenodd" clip-rule="evenodd" d="M6.66634 2.66602H9.33301C11.8472 2.66602 13.1042 2.66602 13.8853 3.44706C14.6663 4.22811 14.6663 5.48519 14.6663 7.99935C14.6663 10.5135 14.6663 11.7706 13.8853 12.5516C13.1042 13.3327 11.8472 13.3327 9.33301 13.3327H6.66634C4.15218 13.3327 2.89511 13.3327 2.11406 12.5516C1.33301 11.7706 1.33301 10.5135 1.33301 7.99935C1.33301 5.48519 1.33301 4.22811 2.11406 3.44706C2.89511 2.66602 4.15218 2.66602 6.66634 2.66602ZM8.83301 5.99935C8.83301 5.72321 9.05686 5.49935 9.33301 5.49935H12.6663C12.9425 5.49935 13.1663 5.72321 13.1663 5.99935C13.1663 6.27549 12.9425 6.49935 12.6663 6.49935H9.33301C9.05686 6.49935 8.83301 6.27549 8.83301 5.99935ZM9.49967 7.99935C9.49967 7.72321 9.72353 7.49935 9.99967 7.49935H12.6663C12.9425 7.49935 13.1663 7.72321 13.1663 7.99935C13.1663 8.27549 12.9425 8.49935 12.6663 8.49935H9.99967C9.72353 8.49935 9.49967 8.27549 9.49967 7.99935ZM10.1663 9.99935C10.1663 9.72321 10.3902 9.49935 10.6663 9.49935H12.6663C12.9425 9.49935 13.1663 9.72321 13.1663 9.99935C13.1663 10.2755 12.9425 10.4993 12.6663 10.4993H10.6663C10.3902 10.4993 10.1663 10.2755 10.1663 9.99935ZM7.33301 5.99935C7.33301 6.73573 6.73605 7.33268 5.99967 7.33268C5.26329 7.33268 4.66634 6.73573 4.66634 5.99935C4.66634 5.26297 5.26329 4.66602 5.99967 4.66602C6.73605 4.66602 7.33301 5.26297 7.33301 5.99935ZM5.99967 11.3327C8.66634 11.3327 8.66634 10.7357 8.66634 9.99935C8.66634 9.26297 7.47243 8.66602 5.99967 8.66602C4.52691 8.66602 3.33301 9.26297 3.33301 9.99935C3.33301 10.7357 3.33301 11.3327 5.99967 11.3327Z" fill="#7252C7"/>
</svg>
