<svg width="16" height="16" viewBox="0 0 16 16" fill="none" xmlns="http://www.w3.org/2000/svg">
<path fill-rule="evenodd" clip-rule="evenodd" d="M14 7.93478V4.28673C14 2.77399 14 2.01762 13.5285 1.60376C13.057 1.18989 12.3363 1.31435 10.8949 1.56327L10.192 1.68466C9.0985 1.8735 8.55175 1.96792 8 1.96792C7.44825 1.96792 6.9015 1.8735 5.80801 1.68466L5.10506 1.56327C3.66369 1.31435 2.943 1.18989 2.4715 1.60376C2 2.01762 2 2.77399 2 4.28673V7.93478C2 11.7274 4.82597 13.5678 6.59904 14.3493C7.08001 14.5613 7.32049 14.6673 8 14.6673C8.67951 14.6673 8.91999 14.5613 9.40096 14.3493C11.174 13.5678 14 11.7274 14 7.93478ZM4.7806 6.09404C4.86292 5.92336 5.17119 5.68977 5.66667 5.68977C6.16214 5.68977 6.47042 5.92336 6.55273 6.09404C6.67617 6.34999 6.97648 6.4538 7.2235 6.3259C7.47052 6.198 7.5707 5.88683 7.44727 5.63088C7.14142 4.99668 6.40233 4.6536 5.66667 4.6536C4.93101 4.6536 4.19192 4.99668 3.88607 5.63088C3.76263 5.88683 3.86282 6.198 4.10983 6.3259C4.35685 6.4538 4.65717 6.34999 4.7806 6.09404ZM10.3333 5.68977C9.83786 5.68977 9.52958 5.92336 9.44727 6.09404C9.32383 6.34999 9.02352 6.4538 8.7765 6.3259C8.52948 6.198 8.4293 5.88683 8.55273 5.63088C8.85858 4.99668 9.59767 4.6536 10.3333 4.6536C11.069 4.6536 11.8081 4.99668 12.1139 5.63088C12.2374 5.88683 12.1372 6.198 11.8902 6.3259C11.6431 6.4538 11.3428 6.34999 11.2194 6.09404C11.1371 5.92336 10.8288 5.68977 10.3333 5.68977ZM5.32568 9.69525C5.12572 9.49792 5.11415 9.16623 5.3046 8.95903C5.49347 8.75355 5.81592 8.75234 6.01612 8.94467C6.02903 8.95508 6.06049 8.98005 6.08433 8.99699C6.15147 9.04469 6.26283 9.11492 6.42203 9.18743C6.73872 9.33167 7.25362 9.48902 8 9.48902C8.74638 9.48902 9.26128 9.33167 9.57797 9.18743C9.73717 9.11492 9.84853 9.04469 9.91567 8.99699C9.94928 8.97311 9.97187 8.95483 9.98388 8.94467C9.989 8.94034 9.99219 8.93749 9.99349 8.93632L9.99399 8.93586C10.1942 8.744 10.5067 8.75371 10.6954 8.95903C10.8858 9.16623 10.8781 9.49416 10.6782 9.69149L10.6773 9.69233L10.6764 9.69324L10.6743 9.69525L10.6694 9.69999L10.6562 9.71231C10.6459 9.72174 10.6326 9.73353 10.6163 9.74735C10.5836 9.77497 10.5387 9.81065 10.4812 9.85154C10.3661 9.93335 10.2003 10.0358 9.98037 10.136C9.53872 10.3371 8.88695 10.5252 8 10.5252C7.11305 10.5252 6.46128 10.3371 6.01963 10.136C5.79967 10.0358 5.63394 9.93335 5.5188 9.85154C5.46126 9.81065 5.4164 9.77497 5.38375 9.74735C5.36831 9.73429 5.33458 9.70359 5.32677 9.69627L5.32568 9.69525Z" fill="#7252C7"/>
</svg>
