<svg width="16" height="16" viewBox="0 0 16 16" fill="none" xmlns="http://www.w3.org/2000/svg">
<path d="M14 11.2188V7.441C14 6.74528 14 6.39742 13.8112 6.13553C13.6588 5.92398 13.4141 5.81153 12.9778 5.66016C12.8886 6.73096 12.5339 7.8245 11.977 8.78158C11.3285 9.89599 10.3656 10.8924 9.13132 11.4308C8.41202 11.7446 7.58798 11.7446 6.86868 11.4308C5.63443 10.8924 4.67145 9.89599 4.02299 8.78158C3.60057 8.05563 3.29453 7.25118 3.13241 6.43769C2.87738 6.40013 2.68167 6.4194 2.51278 6.51363C2.44539 6.55123 2.38258 6.59649 2.32561 6.64853C2 6.94593 2 7.49889 2 8.60482V11.8913C2 12.587 2 12.9349 2.18876 13.1968C2.37752 13.4587 2.70753 13.5687 3.36754 13.7887L3.62325 13.8739L3.62326 13.8739C4.67458 14.2243 5.20024 14.3996 5.73792 14.4006C5.89986 14.4009 6.06162 14.3894 6.22189 14.3662C6.75403 14.2891 7.25393 14.0392 8.25375 13.5393C9.01995 13.1562 9.40306 12.9646 9.81001 12.8757C9.95283 12.8446 10.0976 12.8228 10.2432 12.8106C10.6583 12.7759 11.0771 12.8457 11.9147 12.9853L11.9148 12.9853C12.7636 13.1268 13.1881 13.1975 13.498 13.0195C13.6032 12.9591 13.6966 12.88 13.7735 12.7861C14 12.5097 14 12.0794 14 11.2188Z" fill="#7252C7"/>
<path fill-rule="evenodd" clip-rule="evenodd" d="M8 1.33398C5.79086 1.33398 4 3.03539 4 5.13419C4 7.21654 5.27666 9.64644 7.26853 10.5154C7.73287 10.718 8.26713 10.718 8.73147 10.5154C10.7233 9.64644 12 7.21654 12 5.13419C12 3.03539 10.2091 1.33398 8 1.33398ZM8 6.66732C8.73638 6.66732 9.33333 6.07036 9.33333 5.33398C9.33333 4.5976 8.73638 4.00065 8 4.00065C7.26362 4.00065 6.66667 4.5976 6.66667 5.33398C6.66667 6.07036 7.26362 6.66732 8 6.66732Z" fill="#7252C7"/>
</svg>
