<svg width="16" height="16" viewBox="0 0 16 16" fill="none" xmlns="http://www.w3.org/2000/svg">
<path d="M4.68678 0.0559503C3.83557 0.0961104 3.25429 0.231951 2.74612 0.431632C2.2202 0.636592 1.77443 0.911633 1.33091 1.35675C0.887382 1.80188 0.614259 2.24796 0.410737 2.77468C0.213775 3.28396 0.0803338 3.86572 0.0427334 4.71741C0.00513303 5.56909 -0.00318706 5.84285 0.000972982 8.01534C0.00513302 10.1878 0.0147331 10.4601 0.0560135 11.3136C0.096654 12.1646 0.232015 12.7458 0.431697 13.2541C0.636979 13.78 0.911702 14.2256 1.35699 14.6693C1.80227 15.113 2.24804 15.3854 2.77604 15.5893C3.28485 15.7859 3.86677 15.92 4.7183 15.9573C5.56983 15.9946 5.84391 16.0032 8.01577 15.999C10.1876 15.9949 10.4611 15.9853 11.3144 15.9448C12.1677 15.9043 12.7457 15.768 13.2542 15.5693C13.7802 15.3635 14.2261 15.0893 14.6694 14.6438C15.1128 14.1984 15.3858 13.752 15.5891 13.225C15.7863 12.7162 15.9202 12.1342 15.9571 11.2833C15.9944 10.4294 16.0032 10.1568 15.9991 7.98462C15.9949 5.81245 15.9851 5.54013 15.9447 4.68701C15.9042 3.83388 15.7687 3.25452 15.5691 2.74588C15.3635 2.21996 15.0891 1.77468 14.644 1.33067C14.1989 0.886673 13.7522 0.613872 13.2253 0.410992C12.7161 0.214031 12.1345 0.0797904 11.283 0.0429902C10.4315 0.00619011 10.1574 -0.00324992 7.98473 0.000910092C5.81207 0.00507011 5.54007 0.0143501 4.68678 0.0559503ZM4.78022 14.5181C4.00021 14.4842 3.57669 14.3546 3.29445 14.2461C2.92068 14.1021 2.65444 13.928 2.37316 13.6494C2.09187 13.3709 1.91907 13.1037 1.77315 12.7307C1.66355 12.4485 1.53155 12.0254 1.49507 11.2454C1.45539 10.4024 1.44707 10.1493 1.44243 8.01342C1.43779 5.87757 1.44595 5.62477 1.48291 4.78141C1.51619 4.00204 1.64659 3.57804 1.75491 3.29596C1.89891 2.92172 2.07235 2.65596 2.35156 2.37484C2.63076 2.09372 2.89716 1.9206 3.27045 1.77468C3.55237 1.6646 3.97541 1.53372 4.7551 1.4966C5.59879 1.4566 5.85159 1.4486 7.98713 1.44396C10.1227 1.43931 10.3761 1.44731 11.2201 1.48444C11.9995 1.51836 12.4237 1.64748 12.7054 1.75644C13.0793 1.90044 13.3454 2.0734 13.6266 2.35308C13.9077 2.63276 14.081 2.8982 14.2269 3.27228C14.3371 3.5534 14.468 3.97628 14.5048 4.75645C14.545 5.60013 14.5541 5.85309 14.5579 7.98846C14.5618 10.1238 14.5542 10.3774 14.5173 11.2205C14.4832 12.0005 14.3539 12.4242 14.2453 12.7067C14.1013 13.0803 13.9277 13.3467 13.6483 13.6277C13.3689 13.9086 13.1029 14.0818 12.7294 14.2277C12.4478 14.3376 12.0243 14.4688 11.2452 14.5059C10.4016 14.5456 10.1488 14.5539 8.01241 14.5586C5.87607 14.5632 5.62407 14.5546 4.78038 14.5181M11.302 3.72428C11.3024 3.91417 11.359 4.09969 11.4648 4.25739C11.5705 4.4151 11.7207 4.53789 11.8962 4.61025C12.0718 4.68261 12.2649 4.70128 12.451 4.6639C12.6372 4.62652 12.8081 4.53477 12.9421 4.40026C13.0762 4.26575 13.1673 4.09451 13.204 3.9082C13.2407 3.7219 13.2213 3.5289 13.1483 3.35361C13.0753 3.17831 12.9519 3.02861 12.7938 2.92342C12.6358 2.81824 12.45 2.7623 12.2601 2.76268C12.0056 2.76319 11.7617 2.86478 11.582 3.0451C11.4023 3.22543 11.3016 3.46973 11.302 3.72428ZM3.89237 8.00798C3.89685 10.2768 5.73943 12.1118 8.00778 12.1075C10.2761 12.1032 12.1125 10.2608 12.1081 7.99198C12.1038 5.72317 10.2608 3.88764 7.99209 3.89212C5.72343 3.8966 3.88805 5.73949 3.89237 8.00798ZM5.33335 8.0051C5.3323 7.47767 5.48769 6.96178 5.77984 6.52266C6.072 6.08354 6.48781 5.74091 6.9747 5.53811C7.46158 5.33531 7.99767 5.28144 8.51517 5.38331C9.03267 5.48518 9.50834 5.73822 9.88203 6.11043C10.2557 6.48264 10.5106 6.9573 10.6146 7.47439C10.7185 7.99148 10.6667 8.52777 10.4659 9.01545C10.265 9.50313 9.92401 9.92029 9.48604 10.2142C9.04808 10.5081 8.53281 10.6655 8.00537 10.6665C7.65516 10.6673 7.30823 10.599 6.9844 10.4657C6.66057 10.3323 6.36619 10.1365 6.11806 9.88931C5.86993 9.64216 5.67292 9.34856 5.53828 9.02526C5.40363 8.70196 5.334 8.35531 5.33335 8.0051Z" fill="#E880F1"/>
</svg>
