<svg width="19" height="16" viewBox="0 0 19 16" fill="none" xmlns="http://www.w3.org/2000/svg">
<path fill-rule="evenodd" clip-rule="evenodd" d="M7.16844 15.0195C7.21119 14.3308 7.25122 13.6652 7.29465 12.9989C7.3408 12.2823 7.39508 11.5658 7.43308 10.8485C7.44394 10.6452 7.50976 10.4997 7.6638 10.3597C10.2464 8.03719 12.8237 5.7086 15.4023 3.38138C15.445 3.34263 15.4979 3.31067 15.5285 3.26376C15.5861 3.17198 15.6316 3.07203 15.6818 2.97617C15.561 2.9517 15.4321 2.88779 15.3222 2.91226C15.1661 2.94762 15.0175 3.03532 14.8797 3.12235C11.6681 5.15178 8.45773 7.18394 5.25079 9.22085C5.08318 9.32691 4.9434 9.35139 4.75 9.28816C3.40304 8.85032 2.05267 8.42811 0.705027 7.99503C0.542169 7.94268 0.376598 7.87605 0.236133 7.78155C-0.0400463 7.59594 -0.0861894 7.30904 0.162847 7.09351C0.399669 6.88819 0.682634 6.71278 0.974421 6.59584C2.27253 6.07438 3.58082 5.57739 4.8864 5.0736C9.15462 3.42285 13.4229 1.77347 17.6911 0.123402C17.7596 0.0968869 17.8295 0.0710519 17.8994 0.048616C18.4599 -0.125433 18.9756 0.180512 18.998 0.763848C19.0136 1.17653 18.9349 1.6001 18.8487 2.00802C17.9347 6.34973 17.0125 10.6901 16.089 15.0297C15.8752 16.0346 15.1939 16.2814 14.3606 15.6647C12.9621 14.63 11.5649 13.5945 10.1521 12.5482C10.0958 12.5965 10.0395 12.64 9.98859 12.6889C9.31409 13.3443 8.63959 14.0004 7.96644 14.6572C7.75405 14.8638 7.52198 15.0243 7.16844 15.0195Z" fill="#E880F1"/>
</svg>
