<svg width="19" height="16" viewBox="0 0 19 16" fill="none" xmlns="http://www.w3.org/2000/svg">
<path fill-rule="evenodd" clip-rule="evenodd" d="M16.7577 2.52912C17.5645 2.02903 18.1842 1.24162 18.4774 0.298219C17.7224 0.758164 16.887 1.08792 15.9967 1.28005C15.2882 0.491487 14.2716 0 13.1531 0C11.0008 0 9.25539 1.80652 9.25539 4.03971C9.25539 4.35342 9.28935 4.66368 9.35431 4.95559C6.1204 4.79501 3.24403 3.18062 1.3205 0.741532C0.9862 1.33625 0.794919 2.02903 0.794919 2.77171C0.794919 4.1699 1.48198 5.41381 2.52956 6.12724C1.88957 6.10201 1.28832 5.93053 0.763337 5.62486V5.68049C0.763337 7.63325 2.10707 9.2637 3.88998 9.64049C3.56343 9.73225 3.21841 9.77411 2.86028 9.77411C2.61 9.77411 2.37224 9.75748 2.1315 9.70243C2.6255 11.3128 4.06636 12.4822 5.7718 12.5063C4.4376 13.5948 2.75719 14.2348 0.930782 14.2348C0.61496 14.2348 0.303905 14.217 0 14.178C1.72451 15.3296 3.76961 16 5.9756 16C13.1448 16 17.0675 9.84408 17.0675 4.50712C17.0675 4.33679 17.0634 4.16359 17.0544 3.99039C17.8154 3.41346 18.4774 2.70117 19 1.89311C18.2968 2.22001 17.5496 2.43106 16.7577 2.52912Z" fill="#E880F1"/>
</svg>
