<svg width="16" height="16" viewBox="0 0 16 16" fill="none" xmlns="http://www.w3.org/2000/svg">
<path fill-rule="evenodd" clip-rule="evenodd" d="M13.6687 2.32503C12.1648 0.826459 10.1647 0.000760311 8.0336 0C3.64227 0 0.068376 3.55636 0.066848 7.92777C0.066084 9.32521 0.433176 10.6892 1.13031 11.8913L0 16L4.22327 14.8975C5.3868 15.5294 6.69702 15.862 8.03018 15.8624H8.0336C12.4242 15.8624 15.9985 12.3056 16 7.93423C16.0008 5.81564 15.173 3.82399 13.6687 2.32541V2.32503ZM8.0336 14.5235H8.03093C6.84293 14.5231 5.67751 14.2053 4.66067 13.605L4.41885 13.4621L1.91262 14.1163L2.58148 11.6845L2.4241 11.4351C1.76135 10.3859 1.41107 9.17314 1.41183 7.92817C1.41336 4.295 4.38371 1.33891 8.03631 1.33891C9.80489 1.33967 11.4673 2.02585 12.7176 3.27162C13.9678 4.51702 14.6558 6.17299 14.655 7.93348C14.6535 11.567 11.6832 14.5231 8.0336 14.5231V14.5235ZM11.6656 9.5883C11.4665 9.48909 10.4879 9.01006 10.3053 8.94394C10.1227 8.87777 9.99018 8.84473 9.8576 9.04315C9.72507 9.24161 9.34347 9.68791 9.22733 9.8198C9.1112 9.9521 8.99507 9.96846 8.79604 9.86921C8.59707 9.77 7.95569 9.56092 7.19516 8.88613C6.60347 8.36075 6.20387 7.71223 6.08778 7.51377C5.97164 7.31535 6.07556 7.20813 6.17484 7.10967C6.26422 7.02072 6.37387 6.87817 6.47356 6.76259C6.57329 6.64701 6.60613 6.56417 6.67258 6.43223C6.73907 6.29993 6.70582 6.1844 6.65618 6.08515C6.60649 5.98593 6.20849 5.01081 6.04231 4.61433C5.88071 4.2281 5.71649 4.28056 5.59462 4.2741C5.47849 4.26839 5.34596 4.26725 5.21302 4.26725C5.08009 4.26725 4.86462 4.31667 4.68204 4.51512C4.49947 4.71354 3.98529 5.19291 3.98529 6.16764C3.98529 7.14236 4.69849 8.08479 4.79818 8.21709C4.89787 8.34938 6.20196 10.3501 8.19862 11.2085C8.67347 11.4127 9.04436 11.5347 9.33351 11.6259C9.81027 11.7769 10.2442 11.7556 10.5872 11.7046C10.9696 11.6476 11.7649 11.2252 11.9307 10.7626C12.0964 10.2999 12.0964 9.90305 12.0468 9.82055C11.9972 9.73806 11.8642 9.68826 11.6652 9.58905L11.6656 9.5883Z" fill="#E880F1"/>
</svg>
