<svg width="11" height="31" viewBox="0 0 11 31" fill="none" xmlns="http://www.w3.org/2000/svg">
<path d="M10.3536 27.3536C10.5488 27.1583 10.5488 26.8417 10.3536 26.6464L7.17157 23.4645C6.97631 23.2692 6.65973 23.2692 6.46447 23.4645C6.2692 23.6597 6.2692 23.9763 6.46447 24.1716L9.29289 27L6.46447 29.8284C6.2692 30.0237 6.2692 30.3403 6.46447 30.5355C6.65973 30.7308 6.97631 30.7308 7.17157 30.5355L10.3536 27.3536ZM3 1.5H10V0.5H3V1.5ZM10 26.5H3V27.5H10V26.5ZM1.5 25V3H0.5V25H1.5ZM3 26.5C2.17157 26.5 1.5 25.8284 1.5 25H0.5C0.5 26.3807 1.61929 27.5 3 27.5V26.5ZM3 0.5C1.61929 0.5 0.5 1.61929 0.5 3H1.5C1.5 2.17157 2.17157 1.5 3 1.5V0.5Z" fill="white" fill-opacity="0.25"/>
</svg>
