<svg width="24" height="24" viewBox="0 0 24 24" fill="none" xmlns="http://www.w3.org/2000/svg">
<path fill-rule="evenodd" clip-rule="evenodd" d="M11.4783 0.521739C11.4783 0.23359 11.7119 0 12 0C18.6274 0 24 5.37258 24 12C24 18.6274 18.6274 24 12 24C7.55765 24 3.67978 21.5858 1.60571 18.0004C1.46143 17.7509 1.54666 17.4318 1.79608 17.2875C2.04551 17.1432 2.36467 17.2285 2.50895 17.4779C4.40417 20.7541 7.9452 22.9565 12 22.9565C18.0511 22.9565 22.9565 18.0511 22.9565 12C22.9565 5.94888 18.0511 1.04348 12 1.04348C11.7119 1.04348 11.4783 0.809887 11.4783 0.521739Z" fill="#504C5C"/>
<path fill-rule="evenodd" clip-rule="evenodd" d="M12 1.04348C11.6777 1.04348 11.3587 1.05738 11.0437 1.0846C10.7566 1.10941 10.5038 0.896793 10.479 0.609714C10.4542 0.322635 10.6668 0.0698027 10.9539 0.0449969C11.2987 0.015199 11.6477 0 12 0C12.2881 0 12.5217 0.23359 12.5217 0.521739C12.5217 0.809887 12.2881 1.04348 12 1.04348ZM7.62059 1.37389C7.74254 1.63496 7.62976 1.94546 7.36869 2.06741C6.78822 2.33855 6.23534 2.65915 5.71549 3.02382C5.4796 3.1893 5.15422 3.13221 4.98874 2.89632C4.82326 2.66042 4.88035 2.33504 5.11624 2.16957C5.68546 1.77027 6.29103 1.41909 6.92707 1.12199C7.18815 1.00004 7.49864 1.11282 7.62059 1.37389ZM2.89632 4.98874C3.13221 5.15422 3.1893 5.4796 3.02382 5.71549C2.65915 6.23534 2.33855 6.78822 2.06741 7.36869C1.94546 7.62976 1.63496 7.74254 1.37389 7.62059C1.11282 7.49864 1.00004 7.18815 1.12199 6.92707C1.41909 6.29103 1.77027 5.68545 2.16957 5.11624C2.33505 4.88035 2.66042 4.82326 2.89632 4.98874ZM0.609714 10.479C0.896793 10.5038 1.10941 10.7566 1.0846 11.0437C1.05738 11.3587 1.04348 11.6777 1.04348 12C1.04348 12.3221 1.05736 12.6408 1.08454 12.9556C1.10933 13.2427 0.8967 13.4955 0.60962 13.5203C0.322539 13.5451 0.0697203 13.3324 0.0449323 13.0453C0.0151771 12.7007 0 12.3521 0 12C0 11.6477 0.0151991 11.2987 0.044997 10.9539C0.0698029 10.6668 0.322635 10.4542 0.609714 10.479ZM1.37354 16.3786C1.63463 16.2566 1.94512 16.3694 2.06704 16.6305C2.20226 16.9201 2.34979 17.2027 2.50895 17.4779C2.65324 17.7273 2.568 18.0465 2.31857 18.1907C2.06915 18.335 1.74999 18.2498 1.60571 18.0004C1.43138 17.699 1.26975 17.3893 1.12159 17.0721C0.999659 16.811 1.11246 16.5005 1.37354 16.3786Z" fill="#504C5C"/>
<path fill-rule="evenodd" clip-rule="evenodd" d="M12 20.3478C16.6104 20.3478 20.3478 16.6104 20.3478 12C20.3478 7.38962 16.6104 3.65217 12 3.65217C7.38962 3.65217 3.65217 7.38962 3.65217 12C3.65217 16.6104 7.38962 20.3478 12 20.3478ZM14.7651 8.09837C14.915 7.72382 14.7328 7.29872 14.3582 7.1489C13.9837 6.99908 13.5586 7.18126 13.4087 7.55582L11.597 12.0853L6.02005 9.76154C5.64768 9.60638 5.22002 9.78248 5.06487 10.1549C4.90971 10.5272 5.0858 10.9549 5.45818 11.11L11.719 13.7187C11.8995 13.7939 12.1026 13.7936 12.2829 13.7179C12.4632 13.6422 12.6056 13.4973 12.6782 13.3158L14.7651 8.09837Z" fill="#504C5C"/>
</svg>
