<svg width="56" height="56" viewBox="0 0 56 56" fill="none" xmlns="http://www.w3.org/2000/svg">
<path d="M19.2759 5H17.6897V6.58621H19.2759V5Z" fill="white"/>
<path d="M20.8621 5H19.2759V6.58621H20.8621V5Z" fill="white"/>
<path d="M24.0345 5H22.4483V6.58621H24.0345V5Z" fill="white"/>
<path d="M27.2069 5H25.6207V6.58621H27.2069V5Z" fill="white"/>
<path d="M28.7931 5H27.2069V6.58621H28.7931V5Z" fill="white"/>
<path d="M30.3793 5H28.7931V6.58621H30.3793V5Z" fill="white"/>
<path d="M35.1379 5H33.5517V6.58621H35.1379V5Z" fill="white"/>
<path d="M36.7241 5H35.1379V6.58621H36.7241V5Z" fill="white"/>
<path d="M38.3103 5H36.7241V6.58621H38.3103V5Z" fill="white"/>
<path d="M19.2759 6.58621H17.6897V8.17241H19.2759V6.58621Z" fill="white"/>
<path d="M20.8621 6.58621H19.2759V8.17241H20.8621V6.58621Z" fill="white"/>
<path d="M22.4483 6.58621H20.8621V8.17241H22.4483V6.58621Z" fill="white"/>
<path d="M24.0345 6.58621H22.4483V8.17241H24.0345V6.58621Z" fill="white"/>
<path d="M27.2069 6.58621H25.6207V8.17241H27.2069V6.58621Z" fill="white"/>
<path d="M31.9655 6.58621H30.3793V8.17241H31.9655V6.58621Z" fill="white"/>
<path d="M33.5517 6.58621H31.9655V8.17241H33.5517V6.58621Z" fill="white"/>
<path d="M35.1379 6.58621H33.5517V8.17241H35.1379V6.58621Z" fill="white"/>
<path d="M38.3103 6.58621H36.7241V8.17241H38.3103V6.58621Z" fill="white"/>
<path d="M20.8621 8.17241H19.2759V9.75862H20.8621V8.17241Z" fill="white"/>
<path d="M24.0345 8.17241H22.4483V9.75862H24.0345V8.17241Z" fill="white"/>
<path d="M31.9655 8.17241H30.3793V9.75862H31.9655V8.17241Z" fill="white"/>
<path d="M35.1379 8.17241H33.5517V9.75862H35.1379V8.17241Z" fill="white"/>
<path d="M36.7241 8.17241H35.1379V9.75862H36.7241V8.17241Z" fill="white"/>
<path d="M38.3103 8.17241H36.7241V9.75862H38.3103V8.17241Z" fill="white"/>
<path d="M19.2759 9.75862H17.6897V11.3448H19.2759V9.75862Z" fill="white"/>
<path d="M22.4483 9.75862H20.8621V11.3448H22.4483V9.75862Z" fill="white"/>
<path d="M24.0345 9.75862H22.4483V11.3448H24.0345V9.75862Z" fill="white"/>
<path d="M28.7931 9.75862H27.2069V11.3448H28.7931V9.75862Z" fill="white"/>
<path d="M30.3793 9.75862H28.7931V11.3448H30.3793V9.75862Z" fill="white"/>
<path d="M33.5517 9.75862H31.9655V11.3448H33.5517V9.75862Z" fill="white"/>
<path d="M36.7241 9.75862H35.1379V11.3448H36.7241V9.75862Z" fill="white"/>
<path d="M20.8621 11.3448H19.2759V12.931H20.8621V11.3448Z" fill="white"/>
<path d="M25.6207 11.3448H24.0345V12.931H25.6207V11.3448Z" fill="white"/>
<path d="M28.7931 11.3448H27.2069V12.931H28.7931V11.3448Z" fill="white"/>
<path d="M31.9655 11.3448H30.3793V12.931H31.9655V11.3448Z" fill="white"/>
<path d="M33.5517 11.3448H31.9655V12.931H33.5517V11.3448Z" fill="white"/>
<path d="M35.1379 11.3448H33.5517V12.931H35.1379V11.3448Z" fill="white"/>
<path d="M36.7241 11.3448H35.1379V12.931H36.7241V11.3448Z" fill="white"/>
<path d="M20.8621 12.931H19.2759V14.5172H20.8621V12.931Z" fill="white"/>
<path d="M24.0345 12.931H22.4483V14.5172H24.0345V12.931Z" fill="white"/>
<path d="M27.2069 12.931H25.6207V14.5172H27.2069V12.931Z" fill="white"/>
<path d="M30.3793 12.931H28.7931V14.5172H30.3793V12.931Z" fill="white"/>
<path d="M31.9655 12.931H30.3793V14.5172H31.9655V12.931Z" fill="white"/>
<path d="M35.1379 12.931H33.5517V14.5172H35.1379V12.931Z" fill="white"/>
<path d="M36.7241 12.931H35.1379V14.5172H36.7241V12.931Z" fill="white"/>
<path d="M19.2759 14.5172H17.6897V16.1034H19.2759V14.5172Z" fill="white"/>
<path d="M22.4483 14.5172H20.8621V16.1034H22.4483V14.5172Z" fill="white"/>
<path d="M25.6207 14.5172H24.0345V16.1034H25.6207V14.5172Z" fill="white"/>
<path d="M28.7931 14.5172H27.2069V16.1034H28.7931V14.5172Z" fill="white"/>
<path d="M31.9655 14.5172H30.3793V16.1034H31.9655V14.5172Z" fill="white"/>
<path d="M35.1379 14.5172H33.5517V16.1034H35.1379V14.5172Z" fill="white"/>
<path d="M38.3103 14.5172H36.7241V16.1034H38.3103V14.5172Z" fill="white"/>
<path d="M19.2759 16.1034H17.6897V17.6897H19.2759V16.1034Z" fill="white"/>
<path d="M20.8621 16.1034H19.2759V17.6897H20.8621V16.1034Z" fill="white"/>
<path d="M24.0345 16.1034H22.4483V17.6897H24.0345V16.1034Z" fill="white"/>
<path d="M25.6207 16.1034H24.0345V17.6897H25.6207V16.1034Z" fill="white"/>
<path d="M30.3793 16.1034H28.7931V17.6897H30.3793V16.1034Z" fill="white"/>
<path d="M31.9655 16.1034H30.3793V17.6897H31.9655V16.1034Z" fill="white"/>
<path d="M33.5517 16.1034H31.9655V17.6897H33.5517V16.1034Z" fill="white"/>
<path d="M6.58621 17.6897H5V19.2759H6.58621V17.6897Z" fill="white"/>
<path d="M9.75862 17.6897H8.17241V19.2759H9.75862V17.6897Z" fill="white"/>
<path d="M11.3448 17.6897H9.75862V19.2759H11.3448V17.6897Z" fill="white"/>
<path d="M14.5172 17.6897H12.931V19.2759H14.5172V17.6897Z" fill="white"/>
<path d="M16.1034 17.6897H14.5172V19.2759H16.1034V17.6897Z" fill="white"/>
<path d="M17.6897 17.6897H16.1034V19.2759H17.6897V17.6897Z" fill="white"/>
<path d="M20.8621 17.6897H19.2759V19.2759H20.8621V17.6897Z" fill="white"/>
<path d="M24.0345 17.6897H22.4483V19.2759H24.0345V17.6897Z" fill="white"/>
<path d="M27.2069 17.6897H25.6207V19.2759H27.2069V17.6897Z" fill="white"/>
<path d="M30.3793 17.6897H28.7931V19.2759H30.3793V17.6897Z" fill="white"/>
<path d="M33.5517 17.6897H31.9655V19.2759H33.5517V17.6897Z" fill="white"/>
<path d="M41.4828 17.6897H39.8966V19.2759H41.4828V17.6897Z" fill="white"/>
<path d="M46.2414 17.6897H44.6552V19.2759H46.2414V17.6897Z" fill="white"/>
<path d="M49.4138 17.6897H47.8276V19.2759H49.4138V17.6897Z" fill="white"/>
<path d="M51 17.6897H49.4138V19.2759H51V17.6897Z" fill="white"/>
<path d="M11.3448 19.2759H9.75862V20.8621H11.3448V19.2759Z" fill="white"/>
<path d="M14.5172 19.2759H12.931V20.8621H14.5172V19.2759Z" fill="white"/>
<path d="M17.6897 19.2759H16.1034V20.8621H17.6897V19.2759Z" fill="white"/>
<path d="M20.8621 19.2759H19.2759V20.8621H20.8621V19.2759Z" fill="white"/>
<path d="M27.2069 19.2759H25.6207V20.8621H27.2069V19.2759Z" fill="white"/>
<path d="M28.7931 19.2759H27.2069V20.8621H28.7931V19.2759Z" fill="white"/>
<path d="M30.3793 19.2759H28.7931V20.8621H30.3793V19.2759Z" fill="white"/>
<path d="M33.5517 19.2759H31.9655V20.8621H33.5517V19.2759Z" fill="white"/>
<path d="M35.1379 19.2759H33.5517V20.8621H35.1379V19.2759Z" fill="white"/>
<path d="M36.7241 19.2759H35.1379V20.8621H36.7241V19.2759Z" fill="white"/>
<path d="M38.3103 19.2759H36.7241V20.8621H38.3103V19.2759Z" fill="white"/>
<path d="M39.8966 19.2759H38.3103V20.8621H39.8966V19.2759Z" fill="white"/>
<path d="M41.4828 19.2759H39.8966V20.8621H41.4828V19.2759Z" fill="white"/>
<path d="M43.069 19.2759H41.4828V20.8621H43.069V19.2759Z" fill="white"/>
<path d="M44.6552 19.2759H43.069V20.8621H44.6552V19.2759Z" fill="white"/>
<path d="M51 19.2759H49.4138V20.8621H51V19.2759Z" fill="white"/>
<path d="M8.17241 20.8621H6.58621V22.4483H8.17241V20.8621Z" fill="white"/>
<path d="M9.75862 20.8621H8.17241V22.4483H9.75862V20.8621Z" fill="white"/>
<path d="M11.3448 20.8621H9.75862V22.4483H11.3448V20.8621Z" fill="white"/>
<path d="M12.931 20.8621H11.3448V22.4483H12.931V20.8621Z" fill="white"/>
<path d="M16.1034 20.8621H14.5172V22.4483H16.1034V20.8621Z" fill="white"/>
<path d="M17.6897 20.8621H16.1034V22.4483H17.6897V20.8621Z" fill="white"/>
<path d="M19.2759 20.8621H17.6897V22.4483H19.2759V20.8621Z" fill="white"/>
<path d="M24.0345 20.8621H22.4483V22.4483H24.0345V20.8621Z" fill="white"/>
<path d="M27.2069 20.8621H25.6207V22.4483H27.2069V20.8621Z" fill="white"/>
<path d="M31.9655 20.8621H30.3793V22.4483H31.9655V20.8621Z" fill="white"/>
<path d="M35.1379 20.8621H33.5517V22.4483H35.1379V20.8621Z" fill="white"/>
<path d="M43.069 20.8621H41.4828V22.4483H43.069V20.8621Z" fill="white"/>
<path d="M44.6552 20.8621H43.069V22.4483H44.6552V20.8621Z" fill="white"/>
<path d="M47.8276 20.8621H46.2414V22.4483H47.8276V20.8621Z" fill="white"/>
<path d="M49.4138 20.8621H47.8276V22.4483H49.4138V20.8621Z" fill="white"/>
<path d="M8.17241 22.4483H6.58621V24.0345H8.17241V22.4483Z" fill="white"/>
<path d="M9.75862 22.4483H8.17241V24.0345H9.75862V22.4483Z" fill="white"/>
<path d="M11.3448 22.4483H9.75862V24.0345H11.3448V22.4483Z" fill="white"/>
<path d="M12.931 22.4483H11.3448V24.0345H12.931V22.4483Z" fill="white"/>
<path d="M17.6897 22.4483H16.1034V24.0345H17.6897V22.4483Z" fill="white"/>
<path d="M31.9655 22.4483H30.3793V24.0345H31.9655V22.4483Z" fill="white"/>
<path d="M36.7241 22.4483H35.1379V24.0345H36.7241V22.4483Z" fill="white"/>
<path d="M39.8966 22.4483H38.3103V24.0345H39.8966V22.4483Z" fill="white"/>
<path d="M43.069 22.4483H41.4828V24.0345H43.069V22.4483Z" fill="white"/>
<path d="M44.6552 22.4483H43.069V24.0345H44.6552V22.4483Z" fill="white"/>
<path d="M51 22.4483H49.4138V24.0345H51V22.4483Z" fill="white"/>
<path d="M16.1034 24.0345H14.5172V25.6207H16.1034V24.0345Z" fill="white"/>
<path d="M20.8621 24.0345H19.2759V25.6207H20.8621V24.0345Z" fill="white"/>
<path d="M24.0345 24.0345H22.4483V25.6207H24.0345V24.0345Z" fill="white"/>
<path d="M28.7931 24.0345H27.2069V25.6207H28.7931V24.0345Z" fill="white"/>
<path d="M30.3793 24.0345H28.7931V25.6207H30.3793V24.0345Z" fill="white"/>
<path d="M33.5517 24.0345H31.9655V25.6207H33.5517V24.0345Z" fill="white"/>
<path d="M46.2414 24.0345H44.6552V25.6207H46.2414V24.0345Z" fill="white"/>
<path d="M47.8276 24.0345H46.2414V25.6207H47.8276V24.0345Z" fill="white"/>
<path d="M6.58621 25.6207H5V27.2069H6.58621V25.6207Z" fill="white"/>
<path d="M8.17241 25.6207H6.58621V27.2069H8.17241V25.6207Z" fill="white"/>
<path d="M11.3448 25.6207H9.75862V27.2069H11.3448V25.6207Z" fill="white"/>
<path d="M14.5172 25.6207H12.931V27.2069H14.5172V25.6207Z" fill="white"/>
<path d="M20.8621 25.6207H19.2759V27.2069H20.8621V25.6207Z" fill="white"/>
<path d="M22.4483 25.6207H20.8621V27.2069H22.4483V25.6207Z" fill="white"/>
<path d="M28.7931 25.6207H27.2069V27.2069H28.7931V25.6207Z" fill="white"/>
<path d="M31.9655 25.6207H30.3793V27.2069H31.9655V25.6207Z" fill="white"/>
<path d="M33.5517 25.6207H31.9655V27.2069H33.5517V25.6207Z" fill="white"/>
<path d="M36.7241 25.6207H35.1379V27.2069H36.7241V25.6207Z" fill="white"/>
<path d="M39.8966 25.6207H38.3103V27.2069H39.8966V25.6207Z" fill="white"/>
<path d="M41.4828 25.6207H39.8966V27.2069H41.4828V25.6207Z" fill="white"/>
<path d="M43.069 25.6207H41.4828V27.2069H43.069V25.6207Z" fill="white"/>
<path d="M47.8276 25.6207H46.2414V27.2069H47.8276V25.6207Z" fill="white"/>
<path d="M49.4138 25.6207H47.8276V27.2069H49.4138V25.6207Z" fill="white"/>
<path d="M51 25.6207H49.4138V27.2069H51V25.6207Z" fill="white"/>
<path d="M6.58621 27.2069H5V28.7931H6.58621V27.2069Z" fill="white"/>
<path d="M12.931 27.2069H11.3448V28.7931H12.931V27.2069Z" fill="white"/>
<path d="M16.1034 27.2069H14.5172V28.7931H16.1034V27.2069Z" fill="white"/>
<path d="M19.2759 27.2069H17.6897V28.7931H19.2759V27.2069Z" fill="white"/>
<path d="M22.4483 27.2069H20.8621V28.7931H22.4483V27.2069Z" fill="white"/>
<path d="M27.2069 27.2069H25.6207V28.7931H27.2069V27.2069Z" fill="white"/>
<path d="M30.3793 27.2069H28.7931V28.7931H30.3793V27.2069Z" fill="white"/>
<path d="M31.9655 27.2069H30.3793V28.7931H31.9655V27.2069Z" fill="white"/>
<path d="M33.5517 27.2069H31.9655V28.7931H33.5517V27.2069Z" fill="white"/>
<path d="M36.7241 27.2069H35.1379V28.7931H36.7241V27.2069Z" fill="white"/>
<path d="M38.3103 27.2069H36.7241V28.7931H38.3103V27.2069Z" fill="white"/>
<path d="M41.4828 27.2069H39.8966V28.7931H41.4828V27.2069Z" fill="white"/>
<path d="M43.069 27.2069H41.4828V28.7931H43.069V27.2069Z" fill="white"/>
<path d="M44.6552 27.2069H43.069V28.7931H44.6552V27.2069Z" fill="white"/>
<path d="M47.8276 27.2069H46.2414V28.7931H47.8276V27.2069Z" fill="white"/>
<path d="M49.4138 27.2069H47.8276V28.7931H49.4138V27.2069Z" fill="white"/>
<path d="M51 27.2069H49.4138V28.7931H51V27.2069Z" fill="white"/>
<path d="M6.58621 28.7931H5V30.3793H6.58621V28.7931Z" fill="white"/>
<path d="M8.17241 28.7931H6.58621V30.3793H8.17241V28.7931Z" fill="white"/>
<path d="M12.931 28.7931H11.3448V30.3793H12.931V28.7931Z" fill="white"/>
<path d="M19.2759 28.7931H17.6897V30.3793H19.2759V28.7931Z" fill="white"/>
<path d="M25.6207 28.7931H24.0345V30.3793H25.6207V28.7931Z" fill="white"/>
<path d="M28.7931 28.7931H27.2069V30.3793H28.7931V28.7931Z" fill="white"/>
<path d="M31.9655 28.7931H30.3793V30.3793H31.9655V28.7931Z" fill="white"/>
<path d="M36.7241 28.7931H35.1379V30.3793H36.7241V28.7931Z" fill="white"/>
<path d="M38.3103 28.7931H36.7241V30.3793H38.3103V28.7931Z" fill="white"/>
<path d="M39.8966 28.7931H38.3103V30.3793H39.8966V28.7931Z" fill="white"/>
<path d="M41.4828 28.7931H39.8966V30.3793H41.4828V28.7931Z" fill="white"/>
<path d="M43.069 28.7931H41.4828V30.3793H43.069V28.7931Z" fill="white"/>
<path d="M44.6552 28.7931H43.069V30.3793H44.6552V28.7931Z" fill="white"/>
<path d="M49.4138 28.7931H47.8276V30.3793H49.4138V28.7931Z" fill="white"/>
<path d="M8.17241 30.3793H6.58621V31.9655H8.17241V30.3793Z" fill="white"/>
<path d="M9.75862 30.3793H8.17241V31.9655H9.75862V30.3793Z" fill="white"/>
<path d="M12.931 30.3793H11.3448V31.9655H12.931V30.3793Z" fill="white"/>
<path d="M16.1034 30.3793H14.5172V31.9655H16.1034V30.3793Z" fill="white"/>
<path d="M17.6897 30.3793H16.1034V31.9655H17.6897V30.3793Z" fill="white"/>
<path d="M20.8621 30.3793H19.2759V31.9655H20.8621V30.3793Z" fill="white"/>
<path d="M22.4483 30.3793H20.8621V31.9655H22.4483V30.3793Z" fill="white"/>
<path d="M28.7931 30.3793H27.2069V31.9655H28.7931V30.3793Z" fill="white"/>
<path d="M30.3793 30.3793H28.7931V31.9655H30.3793V30.3793Z" fill="white"/>
<path d="M31.9655 30.3793H30.3793V31.9655H31.9655V30.3793Z" fill="white"/>
<path d="M35.1379 30.3793H33.5517V31.9655H35.1379V30.3793Z" fill="white"/>
<path d="M39.8966 30.3793H38.3103V31.9655H39.8966V30.3793Z" fill="white"/>
<path d="M44.6552 30.3793H43.069V31.9655H44.6552V30.3793Z" fill="white"/>
<path d="M46.2414 30.3793H44.6552V31.9655H46.2414V30.3793Z" fill="white"/>
<path d="M49.4138 30.3793H47.8276V31.9655H49.4138V30.3793Z" fill="white"/>
<path d="M8.17241 31.9655H6.58621V33.5517H8.17241V31.9655Z" fill="white"/>
<path d="M9.75862 31.9655H8.17241V33.5517H9.75862V31.9655Z" fill="white"/>
<path d="M14.5172 31.9655H12.931V33.5517H14.5172V31.9655Z" fill="white"/>
<path d="M20.8621 31.9655H19.2759V33.5517H20.8621V31.9655Z" fill="white"/>
<path d="M25.6207 31.9655H24.0345V33.5517H25.6207V31.9655Z" fill="white"/>
<path d="M28.7931 31.9655H27.2069V33.5517H28.7931V31.9655Z" fill="white"/>
<path d="M31.9655 31.9655H30.3793V33.5517H31.9655V31.9655Z" fill="white"/>
<path d="M33.5517 31.9655H31.9655V33.5517H33.5517V31.9655Z" fill="white"/>
<path d="M38.3103 31.9655H36.7241V33.5517H38.3103V31.9655Z" fill="white"/>
<path d="M39.8966 31.9655H38.3103V33.5517H39.8966V31.9655Z" fill="white"/>
<path d="M43.069 31.9655H41.4828V33.5517H43.069V31.9655Z" fill="white"/>
<path d="M46.2414 31.9655H44.6552V33.5517H46.2414V31.9655Z" fill="white"/>
<path d="M47.8276 31.9655H46.2414V33.5517H47.8276V31.9655Z" fill="white"/>
<path d="M49.4138 31.9655H47.8276V33.5517H49.4138V31.9655Z" fill="white"/>
<path d="M6.58621 33.5517H5V35.1379H6.58621V33.5517Z" fill="white"/>
<path d="M9.75862 33.5517H8.17241V35.1379H9.75862V33.5517Z" fill="white"/>
<path d="M11.3448 33.5517H9.75862V35.1379H11.3448V33.5517Z" fill="white"/>
<path d="M14.5172 33.5517H12.931V35.1379H14.5172V33.5517Z" fill="white"/>
<path d="M16.1034 33.5517H14.5172V35.1379H16.1034V33.5517Z" fill="white"/>
<path d="M17.6897 33.5517H16.1034V35.1379H17.6897V33.5517Z" fill="white"/>
<path d="M19.2759 33.5517H17.6897V35.1379H19.2759V33.5517Z" fill="white"/>
<path d="M20.8621 33.5517H19.2759V35.1379H20.8621V33.5517Z" fill="white"/>
<path d="M25.6207 33.5517H24.0345V35.1379H25.6207V33.5517Z" fill="white"/>
<path d="M27.2069 33.5517H25.6207V35.1379H27.2069V33.5517Z" fill="white"/>
<path d="M28.7931 33.5517H27.2069V35.1379H28.7931V33.5517Z" fill="white"/>
<path d="M30.3793 33.5517H28.7931V35.1379H30.3793V33.5517Z" fill="white"/>
<path d="M31.9655 33.5517H30.3793V35.1379H31.9655V33.5517Z" fill="white"/>
<path d="M33.5517 33.5517H31.9655V35.1379H33.5517V33.5517Z" fill="white"/>
<path d="M38.3103 33.5517H36.7241V35.1379H38.3103V33.5517Z" fill="white"/>
<path d="M39.8966 33.5517H38.3103V35.1379H39.8966V33.5517Z" fill="white"/>
<path d="M41.4828 33.5517H39.8966V35.1379H41.4828V33.5517Z" fill="white"/>
<path d="M43.069 33.5517H41.4828V35.1379H43.069V33.5517Z" fill="white"/>
<path d="M47.8276 33.5517H46.2414V35.1379H47.8276V33.5517Z" fill="white"/>
<path d="M9.75862 35.1379H8.17241V36.7241H9.75862V35.1379Z" fill="white"/>
<path d="M11.3448 35.1379H9.75862V36.7241H11.3448V35.1379Z" fill="white"/>
<path d="M19.2759 35.1379H17.6897V36.7241H19.2759V35.1379Z" fill="white"/>
<path d="M24.0345 35.1379H22.4483V36.7241H24.0345V35.1379Z" fill="white"/>
<path d="M27.2069 35.1379H25.6207V36.7241H27.2069V35.1379Z" fill="white"/>
<path d="M28.7931 35.1379H27.2069V36.7241H28.7931V35.1379Z" fill="white"/>
<path d="M33.5517 35.1379H31.9655V36.7241H33.5517V35.1379Z" fill="white"/>
<path d="M35.1379 35.1379H33.5517V36.7241H35.1379V35.1379Z" fill="white"/>
<path d="M36.7241 35.1379H35.1379V36.7241H36.7241V35.1379Z" fill="white"/>
<path d="M39.8966 35.1379H38.3103V36.7241H39.8966V35.1379Z" fill="white"/>
<path d="M47.8276 35.1379H46.2414V36.7241H47.8276V35.1379Z" fill="white"/>
<path d="M8.17241 36.7241H6.58621V38.3103H8.17241V36.7241Z" fill="white"/>
<path d="M12.931 36.7241H11.3448V38.3103H12.931V36.7241Z" fill="white"/>
<path d="M16.1034 36.7241H14.5172V38.3103H16.1034V36.7241Z" fill="white"/>
<path d="M17.6897 36.7241H16.1034V38.3103H17.6897V36.7241Z" fill="white"/>
<path d="M19.2759 36.7241H17.6897V38.3103H19.2759V36.7241Z" fill="white"/>
<path d="M24.0345 36.7241H22.4483V38.3103H24.0345V36.7241Z" fill="white"/>
<path d="M27.2069 36.7241H25.6207V38.3103H27.2069V36.7241Z" fill="white"/>
<path d="M28.7931 36.7241H27.2069V38.3103H28.7931V36.7241Z" fill="white"/>
<path d="M31.9655 36.7241H30.3793V38.3103H31.9655V36.7241Z" fill="white"/>
<path d="M33.5517 36.7241H31.9655V38.3103H33.5517V36.7241Z" fill="white"/>
<path d="M35.1379 36.7241H33.5517V38.3103H35.1379V36.7241Z" fill="white"/>
<path d="M38.3103 36.7241H36.7241V38.3103H38.3103V36.7241Z" fill="white"/>
<path d="M39.8966 36.7241H38.3103V38.3103H39.8966V36.7241Z" fill="white"/>
<path d="M41.4828 36.7241H39.8966V38.3103H41.4828V36.7241Z" fill="white"/>
<path d="M43.069 36.7241H41.4828V38.3103H43.069V36.7241Z" fill="white"/>
<path d="M44.6552 36.7241H43.069V38.3103H44.6552V36.7241Z" fill="white"/>
<path d="M46.2414 36.7241H44.6552V38.3103H46.2414V36.7241Z" fill="white"/>
<path d="M47.8276 36.7241H46.2414V38.3103H47.8276V36.7241Z" fill="white"/>
<path d="M19.2759 38.3103H17.6897V39.8966H19.2759V38.3103Z" fill="white"/>
<path d="M22.4483 38.3103H20.8621V39.8966H22.4483V38.3103Z" fill="white"/>
<path d="M24.0345 38.3103H22.4483V39.8966H24.0345V38.3103Z" fill="white"/>
<path d="M30.3793 38.3103H28.7931V39.8966H30.3793V38.3103Z" fill="white"/>
<path d="M31.9655 38.3103H30.3793V39.8966H31.9655V38.3103Z" fill="white"/>
<path d="M33.5517 38.3103H31.9655V39.8966H33.5517V38.3103Z" fill="white"/>
<path d="M35.1379 38.3103H33.5517V39.8966H35.1379V38.3103Z" fill="white"/>
<path d="M38.3103 38.3103H36.7241V39.8966H38.3103V38.3103Z" fill="white"/>
<path d="M44.6552 38.3103H43.069V39.8966H44.6552V38.3103Z" fill="white"/>
<path d="M46.2414 38.3103H44.6552V39.8966H46.2414V38.3103Z" fill="white"/>
<path d="M47.8276 38.3103H46.2414V39.8966H47.8276V38.3103Z" fill="white"/>
<path d="M49.4138 38.3103H47.8276V39.8966H49.4138V38.3103Z" fill="white"/>
<path d="M51 38.3103H49.4138V39.8966H51V38.3103Z" fill="white"/>
<path d="M19.2759 39.8966H17.6897V41.4828H19.2759V39.8966Z" fill="white"/>
<path d="M22.4483 39.8966H20.8621V41.4828H22.4483V39.8966Z" fill="white"/>
<path d="M25.6207 39.8966H24.0345V41.4828H25.6207V39.8966Z" fill="white"/>
<path d="M28.7931 39.8966H27.2069V41.4828H28.7931V39.8966Z" fill="white"/>
<path d="M30.3793 39.8966H28.7931V41.4828H30.3793V39.8966Z" fill="white"/>
<path d="M33.5517 39.8966H31.9655V41.4828H33.5517V39.8966Z" fill="white"/>
<path d="M35.1379 39.8966H33.5517V41.4828H35.1379V39.8966Z" fill="white"/>
<path d="M36.7241 39.8966H35.1379V41.4828H36.7241V39.8966Z" fill="white"/>
<path d="M38.3103 39.8966H36.7241V41.4828H38.3103V39.8966Z" fill="white"/>
<path d="M41.4828 39.8966H39.8966V41.4828H41.4828V39.8966Z" fill="white"/>
<path d="M44.6552 39.8966H43.069V41.4828H44.6552V39.8966Z" fill="white"/>
<path d="M46.2414 39.8966H44.6552V41.4828H46.2414V39.8966Z" fill="white"/>
<path d="M49.4138 39.8966H47.8276V41.4828H49.4138V39.8966Z" fill="white"/>
<path d="M19.2759 41.4828H17.6897V43.069H19.2759V41.4828Z" fill="white"/>
<path d="M20.8621 41.4828H19.2759V43.069H20.8621V41.4828Z" fill="white"/>
<path d="M25.6207 41.4828H24.0345V43.069H25.6207V41.4828Z" fill="white"/>
<path d="M27.2069 41.4828H25.6207V43.069H27.2069V41.4828Z" fill="white"/>
<path d="M28.7931 41.4828H27.2069V43.069H28.7931V41.4828Z" fill="white"/>
<path d="M30.3793 41.4828H28.7931V43.069H30.3793V41.4828Z" fill="white"/>
<path d="M35.1379 41.4828H33.5517V43.069H35.1379V41.4828Z" fill="white"/>
<path d="M38.3103 41.4828H36.7241V43.069H38.3103V41.4828Z" fill="white"/>
<path d="M44.6552 41.4828H43.069V43.069H44.6552V41.4828Z" fill="white"/>
<path d="M46.2414 41.4828H44.6552V43.069H46.2414V41.4828Z" fill="white"/>
<path d="M51 41.4828H49.4138V43.069H51V41.4828Z" fill="white"/>
<path d="M24.0345 43.069H22.4483V44.6552H24.0345V43.069Z" fill="white"/>
<path d="M25.6207 43.069H24.0345V44.6552H25.6207V43.069Z" fill="white"/>
<path d="M31.9655 43.069H30.3793V44.6552H31.9655V43.069Z" fill="white"/>
<path d="M35.1379 43.069H33.5517V44.6552H35.1379V43.069Z" fill="white"/>
<path d="M38.3103 43.069H36.7241V44.6552H38.3103V43.069Z" fill="white"/>
<path d="M39.8966 43.069H38.3103V44.6552H39.8966V43.069Z" fill="white"/>
<path d="M41.4828 43.069H39.8966V44.6552H41.4828V43.069Z" fill="white"/>
<path d="M43.069 43.069H41.4828V44.6552H43.069V43.069Z" fill="white"/>
<path d="M44.6552 43.069H43.069V44.6552H44.6552V43.069Z" fill="white"/>
<path d="M47.8276 43.069H46.2414V44.6552H47.8276V43.069Z" fill="white"/>
<path d="M51 43.069H49.4138V44.6552H51V43.069Z" fill="white"/>
<path d="M19.2759 44.6552H17.6897V46.2414H19.2759V44.6552Z" fill="white"/>
<path d="M27.2069 44.6552H25.6207V46.2414H27.2069V44.6552Z" fill="white"/>
<path d="M38.3103 44.6552H36.7241V46.2414H38.3103V44.6552Z" fill="white"/>
<path d="M39.8966 44.6552H38.3103V46.2414H39.8966V44.6552Z" fill="white"/>
<path d="M44.6552 44.6552H43.069V46.2414H44.6552V44.6552Z" fill="white"/>
<path d="M46.2414 44.6552H44.6552V46.2414H46.2414V44.6552Z" fill="white"/>
<path d="M49.4138 44.6552H47.8276V46.2414H49.4138V44.6552Z" fill="white"/>
<path d="M19.2759 46.2414H17.6897V47.8276H19.2759V46.2414Z" fill="white"/>
<path d="M20.8621 46.2414H19.2759V47.8276H20.8621V46.2414Z" fill="white"/>
<path d="M22.4483 46.2414H20.8621V47.8276H22.4483V46.2414Z" fill="white"/>
<path d="M25.6207 46.2414H24.0345V47.8276H25.6207V46.2414Z" fill="white"/>
<path d="M28.7931 46.2414H27.2069V47.8276H28.7931V46.2414Z" fill="white"/>
<path d="M33.5517 46.2414H31.9655V47.8276H33.5517V46.2414Z" fill="white"/>
<path d="M35.1379 46.2414H33.5517V47.8276H35.1379V46.2414Z" fill="white"/>
<path d="M39.8966 46.2414H38.3103V47.8276H39.8966V46.2414Z" fill="white"/>
<path d="M43.069 46.2414H41.4828V47.8276H43.069V46.2414Z" fill="white"/>
<path d="M47.8276 46.2414H46.2414V47.8276H47.8276V46.2414Z" fill="white"/>
<path d="M51 46.2414H49.4138V47.8276H51V46.2414Z" fill="white"/>
<path d="M20.8621 47.8276H19.2759V49.4138H20.8621V47.8276Z" fill="white"/>
<path d="M22.4483 47.8276H20.8621V49.4138H22.4483V47.8276Z" fill="white"/>
<path d="M28.7931 47.8276H27.2069V49.4138H28.7931V47.8276Z" fill="white"/>
<path d="M30.3793 47.8276H28.7931V49.4138H30.3793V47.8276Z" fill="white"/>
<path d="M33.5517 47.8276H31.9655V49.4138H33.5517V47.8276Z" fill="white"/>
<path d="M35.1379 47.8276H33.5517V49.4138H35.1379V47.8276Z" fill="white"/>
<path d="M36.7241 47.8276H35.1379V49.4138H36.7241V47.8276Z" fill="white"/>
<path d="M38.3103 47.8276H36.7241V49.4138H38.3103V47.8276Z" fill="white"/>
<path d="M39.8966 47.8276H38.3103V49.4138H39.8966V47.8276Z" fill="white"/>
<path d="M43.069 47.8276H41.4828V49.4138H43.069V47.8276Z" fill="white"/>
<path d="M46.2414 47.8276H44.6552V49.4138H46.2414V47.8276Z" fill="white"/>
<path d="M49.4138 47.8276H47.8276V49.4138H49.4138V47.8276Z" fill="white"/>
<path d="M19.2759 49.4138H17.6897V51H19.2759V49.4138Z" fill="white"/>
<path d="M20.8621 49.4138H19.2759V51H20.8621V49.4138Z" fill="white"/>
<path d="M22.4483 49.4138H20.8621V51H22.4483V49.4138Z" fill="white"/>
<path d="M25.6207 49.4138H24.0345V51H25.6207V49.4138Z" fill="white"/>
<path d="M28.7931 49.4138H27.2069V51H28.7931V49.4138Z" fill="white"/>
<path d="M33.5517 49.4138H31.9655V51H33.5517V49.4138Z" fill="white"/>
<path d="M35.1379 49.4138H33.5517V51H35.1379V49.4138Z" fill="white"/>
<path d="M36.7241 49.4138H35.1379V51H36.7241V49.4138Z" fill="white"/>
<path d="M38.3103 49.4138H36.7241V51H38.3103V49.4138Z" fill="white"/>
<path d="M46.2414 49.4138H44.6552V51H46.2414V49.4138Z" fill="white"/>
<path d="M49.4138 49.4138H47.8276V51H49.4138V49.4138Z" fill="white"/>
<path d="M5 5V16.1034H16.1034V5H5ZM14.4379 14.4379H6.66552V6.66552H14.4379V14.4379Z" fill="white"/>
<path d="M39.8966 5V16.1034H51V5H39.8966ZM49.3345 14.4379H41.5621V6.66552H49.3345V14.4379Z" fill="white"/>
<path d="M5 39.8966V51H16.1034V39.8966H5ZM14.4379 49.3345H6.66552V41.5621H14.4379V49.3345Z" fill="white"/>
<path d="M12.931 8.17241H8.17241V12.931H12.931V8.17241Z" fill="white"/>
<path d="M47.8276 8.17241H43.069V12.931H47.8276V8.17241Z" fill="white"/>
<path d="M12.931 43.069H8.17241V47.8276H12.931V43.069Z" fill="white"/>
<rect width="56" height="56" rx="10" fill="#777385" fill-opacity="0.5"/>
<circle cx="28" cy="28" r="9" stroke="white" stroke-width="2"/>
<line x1="28" y1="24" x2="28" y2="32" stroke="white" stroke-width="2" stroke-linecap="round"/>
<line x1="32" y1="28" x2="24" y2="28" stroke="white" stroke-width="2" stroke-linecap="round"/>
</svg>
