<svg width="52" height="81" viewBox="0 0 52 81" fill="none" xmlns="http://www.w3.org/2000/svg">
<path d="M26.0144 80.4999C24.7344 80.4999 23.4644 80.0099 22.4844 79.0399L2.45438 59.0699C0.494375 57.1199 0.494375 53.9499 2.45438 51.9999C4.40438 50.0499 7.56437 50.0399 9.52437 51.9999L29.5544 71.9699C31.5144 73.9199 31.5144 77.0899 29.5544 79.0399C28.5744 80.0199 27.2944 80.5099 26.0144 80.5099V80.4999Z" fill="url(#paint0_linear_1248_17584)"/>
<path d="M25.9849 80.5C24.7049 80.5 23.4249 80.01 22.4449 79.03C20.4949 77.07 20.4949 73.91 22.4449 71.96L42.4749 51.99C44.4349 50.04 47.5949 50.04 49.5449 51.99C51.4949 53.95 51.4949 57.11 49.5449 59.06L29.5149 79.03C28.5349 80 27.2649 80.49 25.9849 80.49V80.5Z" fill="#FFCB8F"/>
<path d="M25.9941 80.5C23.2341 80.5 20.9941 78.26 20.9941 75.5V5.5C20.9941 2.74 23.2341 0.5 25.9941 0.5C28.7541 0.5 30.9941 2.74 30.9941 5.5V75.5C30.9941 78.26 28.7541 80.5 25.9941 80.5Z" fill="url(#paint1_linear_1248_17584)"/>
<defs>
<linearGradient id="paint0_linear_1248_17584" x1="27.2744" y1="76.7899" x2="2.91437" y2="52.4299" gradientUnits="userSpaceOnUse">
<stop stop-color="#FFCB8F" stop-opacity="0"/>
<stop offset="1" stop-color="#FFCB8F"/>
</linearGradient>
<linearGradient id="paint1_linear_1248_17584" x1="25.9941" y1="73.83" x2="25.9941" y2="1.83" gradientUnits="userSpaceOnUse">
<stop stop-color="#FFCB8F" stop-opacity="0"/>
<stop offset="1" stop-color="#FFCB8F"/>
</linearGradient>
</defs>
</svg>
