<svg width="150" height="50" fill="none" xmlns="http://www.w3.org/2000/svg"><path fill-rule="evenodd" clip-rule="evenodd" d="m138.734 0 .68.003c.381.002.774.01 1.156.016.84.02 1.681.071 2.507.221a8.47 8.47 0 0 1 2.392.784 8.073 8.073 0 0 1 2.026 1.472 8.073 8.073 0 0 1 1.482 2.027c.384.76.633 1.542.776 2.38.154.827.203 1.665.232 2.502.005.383.005.768.005 1.15l.01.681v26.845c0 .462 0 .913-.01 1.368 0 .388 0 .764-.005 1.153-.029.837-.078 1.673-.232 2.502a8.298 8.298 0 0 1-.776 2.38 7.983 7.983 0 0 1-1.482 2.017 7.867 7.867 0 0 1-2.026 1.474 8.56 8.56 0 0 1-2.392.789c-.826.149-1.667.198-2.507.22l-.579.01-1.257.006H11.265l-.685-.002c-.384 0-.765-.005-1.152-.014-.835-.022-1.679-.071-2.511-.22a8.444 8.444 0 0 1-2.384-.789 7.866 7.866 0 0 1-2.028-1.474 7.8 7.8 0 0 1-1.478-2.017 8.324 8.324 0 0 1-.784-2.38c-.15-.829-.203-1.665-.223-2.502l-.012-.577L0 39.449V10.555c.006-.382.007-.767.02-1.15.02-.837.073-1.675.223-2.502a8.338 8.338 0 0 1 .784-2.38 8.072 8.072 0 0 1 3.506-3.499A8.357 8.357 0 0 1 6.917.24C7.749.09 8.593.039 9.427.019c.388-.007.769-.014 1.153-.016L11.952 0h126.782zm.674 1.094H10.586l-1.13.015-.524.018c-.555.025-1.194.074-1.827.187a7.244 7.244 0 0 0-2.072.681 6.922 6.922 0 0 0-1.759 1.276A6.7 6.7 0 0 0 2.002 5.02a7.166 7.166 0 0 0-.68 2.078 14.43 14.43 0 0 0-.2 2.047l-.028 1.41v28.933l.02 1.085.017.522c.026.553.077 1.19.192 1.822.132.763.354 1.44.68 2.07a6.61 6.61 0 0 0 1.279 1.747c.509.513 1.097.94 1.75 1.27a7.374 7.374 0 0 0 2.078.685c.81.146 1.64.185 2.343.204l.565.01.568.004 127.469.002 1.359-.002c.374 0 .757-.005 1.124-.014.71-.019 1.541-.058 2.343-.204a7.348 7.348 0 0 0 2.091-.686 6.797 6.797 0 0 0 1.755-1.279 6.822 6.822 0 0 0 1.272-1.732c.328-.643.548-1.32.677-2.088.144-.771.19-1.58.215-2.316l.003-.382.002-.78.009-.67V11.47c0-.3-.003-.602-.009-.915l-.001-.75-.003-.361c-.026-.763-.072-1.571-.218-2.36a7.14 7.14 0 0 0-.671-2.061 6.972 6.972 0 0 0-3.027-3.025 7.44 7.44 0 0 0-2.095-.684 13.772 13.772 0 0 0-1.81-.186l-.519-.018-1.144-.016zM64.364 26.685c2.88 0 4.778 2.27 4.778 5.778 0 3.516-1.887 5.776-4.735 5.776-1.617 0-2.902-.721-3.572-1.98h-.053v5.605h-2.33v-15.06h2.256v1.882h.042c.647-1.215 2.028-2 3.614-2zm12.491 0c2.88 0 4.78 2.27 4.78 5.778 0 3.516-1.89 5.776-4.737 5.776-1.617 0-2.902-.721-3.572-1.98h-.053v5.605h-2.33v-15.06h2.255v1.882h.043c.647-1.215 2.028-2 3.614-2zm16.722-4.346c3.29 0 5.545 1.84 5.622 4.518h-2.352c-.141-1.549-1.425-2.484-3.301-2.484-1.877 0-3.16.946-3.16 2.323 0 1.097.82 1.743 2.825 2.237l1.716.42c3.193.754 4.519 2.033 4.519 4.304 0 2.904-2.32 4.722-6.008 4.722-3.452 0-5.783-1.776-5.933-4.583h2.384c.173 1.538 1.672 2.55 3.722 2.55 1.963 0 3.376-1.012 3.376-2.4 0-1.204-.853-1.925-2.87-2.42l-2.017-.484c-2.859-.689-4.185-2.021-4.185-4.185 0-2.678 2.34-4.518 5.662-4.518zm38.552 4.325c3.14 0 5.115 2.151 5.115 5.582v.797h-8.017v.14c0 1.936 1.22 3.206 3.054 3.206 1.294 0 2.309-.614 2.621-1.593h2.211c-.313 2.056-2.319 3.465-4.886 3.465-3.302 0-5.351-2.206-5.351-5.745 0-3.55 2.061-5.852 5.253-5.852zm-18.863 0c3.29 0 5.383 2.237 5.383 5.799 0 3.57-2.083 5.798-5.383 5.798-3.301 0-5.383-2.228-5.383-5.798 0-3.562 2.102-5.8 5.383-5.8zm-8.79-2.539v2.679h2.158v1.839h-2.158v6.239c0 .97.432 1.42 1.381 1.42l.271-.008.282-.022.213-.023v1.829a3.71 3.71 0 0 1-.549.078l-.36.022a9.721 9.721 0 0 1-.384.007c-2.298 0-3.194-.86-3.194-3.055v-6.487h-1.651v-1.84h1.651v-2.678h2.34zm21.099 2.56c.334 0 .614.043.798.087v2.173c-.184-.076-.594-.14-1.046-.14-1.5 0-2.429 1.01-2.429 2.603v6.713h-2.329V26.803h2.222v1.927h.054c.357-1.28 1.392-2.045 2.73-2.045zm-74.19-4.087 5.62 15.522H54.45l-1.423-4.195h-5.933l-1.426 4.195h-2.513l5.62-15.522h2.612zm-27.608-4.632c.303 0 .682-.114 1.117-.276l1.193-.463c.944-.355 2.022-.681 3.116-.567l.198.01.235.02.13.014.285.042c1.197.199 3.053.827 4.354 2.719l-.098.06-.206.139-.186.136a7.916 7.916 0 0 0-.105.081l-.228.19c-.919.793-2.27 2.372-2.248 4.791.024 2.792 1.61 4.366 2.727 5.129l.231.15.213.128.19.104.23.115.213.092-.026.093-.065.208-.106.307-.096.254-.115.289-.136.32-.158.345-.18.37c-.285.567-.648 1.2-1.097 1.834l-.407.598-.276.39c-.98 1.344-2.078 2.456-3.644 2.48-.733.018-1.277-.145-1.795-.351l-.665-.278c-.601-.248-1.26-.475-2.22-.475-.971 0-1.644.212-2.25.455l-.667.276c-.516.21-1.047.39-1.75.419-1.369.05-2.5-.993-3.484-2.238l-.291-.378-.422-.58-.272-.384c-2.415-3.518-4.295-9.914-1.774-14.268 1.222-2.134 3.45-3.507 5.831-3.546.925-.019 1.816.293 2.619.609l.584.233c.566.224 1.074.404 1.5.404zm89.489 10.613c-1.888 0-3.011 1.452-3.011 3.884 0 2.452 1.123 3.882 3.011 3.882 1.886 0 3.009-1.43 3.009-3.882 0-2.443-1.123-3.884-3.009-3.884zm-49.518.086c-1.78 0-2.977 1.538-2.977 3.798 0 2.28 1.197 3.807 2.977 3.807 1.813 0 3-1.495 3-3.807 0-2.292-1.187-3.798-3-3.798zm12.492 0c-1.78 0-2.978 1.538-2.978 3.798 0 2.28 1.198 3.807 2.978 3.807 1.812 0 3-1.495 3-3.807 0-2.292-1.188-3.798-3-3.798zM50.09 25.18h-.063l-2.32 6.809h4.703l-2.32-6.809zm82.039 3.366c-1.608 0-2.771 1.163-2.89 2.873h5.673c-.054-1.733-1.164-2.873-2.783-2.873zm-3.26-15.912c1.571 0 2.518 1.072 2.518 2.84v.385h-3.986v.064c.037.986.612 1.611 1.503 1.611.675 0 1.136-.24 1.344-.68h1.072c-.253 1.008-1.156 1.628-2.446 1.628-1.617 0-2.607-1.106-2.607-2.905 0-1.8 1.01-2.943 2.602-2.943zm-49.468 0c1.645 0 2.661 1.107 2.661 2.922 0 1.825-1.013 2.926-2.661 2.926-1.652 0-2.664-1.101-2.664-2.926 0-1.815 1.017-2.921 2.664-2.921zm22.579 0c1.645 0 2.66 1.107 2.66 2.922 0 1.825-1.012 2.926-2.66 2.926-1.652 0-2.664-1.101-2.664-2.926 0-1.815 1.017-2.921 2.664-2.921zm-47.07 0c1.645 0 2.66 1.107 2.66 2.922 0 1.825-1.01 2.926-2.66 2.926-1.651 0-2.663-1.101-2.663-2.926 0-1.815 1.017-2.921 2.664-2.921zm30.849 0c1.415 0 2.213.704 2.213 1.893v3.845H86.9v-.791h-.087c-.338.564-.954.883-1.696.883-1.088 0-1.882-.655-1.882-1.683 0-1.014.757-1.598 2.1-1.68l1.529-.088v-.486c0-.595-.394-.93-1.156-.93-.621 0-1.052.227-1.175.625h-1.08c.114-.968 1.027-1.588 2.307-1.588zm8.948-2.087v7.825H93.64v-.889h-.089c-.335.615-.995.982-1.772.982-1.435 0-2.343-1.125-2.343-2.91 0-1.778.916-2.904 2.343-2.904.772 0 1.425.367 1.731.987h.083v-3.091h1.114zm22.516.796v1.426h1.223v.937h-1.223v2.893c0 .59.243.848.798.848.171 0 .27-.01.425-.025v.926c-.182.029-.39.055-.607.055-1.238 0-1.732-.434-1.732-1.519v-3.178h-.895v-.937h.895v-1.426h1.116zm-69.807-.43c2.218 0 3.519 1.36 3.519 3.707 0 2.382-1.291 3.752-3.519 3.752h-2.702v-7.458h2.702zm27.773-.365v7.825h-1.114v-7.825h1.114zm45.883 0v3.1h.087c.275-.63.872-1.008 1.721-1.008 1.203 0 1.945.76 1.945 2.1v3.632h-1.116v-3.36c0-.897-.42-1.355-1.207-1.355-.913 0-1.42.575-1.42 1.429v3.286h-1.115v-7.825h1.105zm-12.097 2.086c1.26 0 1.953.755 1.953 2.095v3.643h-1.113v-3.364c0-.905-.395-1.355-1.219-1.355-.823 0-1.347.549-1.347 1.426v3.293h-1.114v-5.628h1.071v.894h.084c.275-.625.835-1.004 1.685-1.004zm-49.47.11 1.011 4.296h.084l1.16-4.296h1.069l1.16 4.296h.088l1.007-4.296h1.113l-1.55 5.628h-1.155l-1.167-4.145h-.088l-1.162 4.145H59.93l-1.555-5.628h1.13zm10.841-.11c1.26 0 1.953.755 1.953 2.095v3.643h-1.113v-3.364c0-.905-.395-1.355-1.218-1.355-.824 0-1.348.549-1.348 1.426v3.293h-1.114v-5.628h1.072v.894h.084c.274-.625.834-1.004 1.684-1.004zm16.517 3.195-1.379.088c-.777.052-1.13.316-1.13.812 0 .506.442.8 1.047.8.84 0 1.462-.531 1.462-1.23v-.47zm15.117-2.207c-.968 0-1.513.714-1.513 1.934 0 1.229.545 1.937 1.513 1.937.965 0 1.514-.713 1.514-1.937 0-1.22-.549-1.934-1.514-1.934zm-22.58 0c-.967 0-1.512.714-1.512 1.934 0 1.229.545 1.937 1.513 1.937.965 0 1.514-.713 1.514-1.937 0-1.22-.549-1.934-1.514-1.934zm-24.49 0c-.967 0-1.512.714-1.512 1.934 0 1.229.545 1.937 1.513 1.937.965 0 1.514-.713 1.514-1.937 0-1.22-.549-1.934-1.514-1.934zm37.185.026c-.938 0-1.508.724-1.508 1.908 0 1.194.564 1.912 1.508 1.912.939 0 1.52-.73 1.52-1.907 0-1.174-.587-1.913-1.52-1.913zm-44.81-1.68h-1.41v5.35h1.41c1.565 0 2.468-.972 2.468-2.683 0-1.685-.918-2.667-2.467-2.667zm-18.06-2.16c.186 1.675-.48 3.326-1.452 4.538-1.015 1.194-2.637 2.108-4.22 1.99-.206-1.611.595-3.324 1.491-4.37 1.014-1.187 2.774-2.095 4.182-2.157zm99.638 3.773c-.824 0-1.399.58-1.462 1.458h2.851c-.025-.883-.564-1.458-1.389-1.458z" fill="#504C5C"/></svg>