<svg width="19" height="20" viewBox="0 0 19 20" fill="none" xmlns="http://www.w3.org/2000/svg">
<path d="M17.6884 9.8573H2.57076L6.14751 6.16814C6.35176 5.95755 6.35176 5.61714 6.14751 5.40734C5.94405 5.19755 5.61393 5.19755 5.41126 5.40734L0.943885 10.0148C0.895593 10.0655 0.857593 10.1241 0.831468 10.1906C0.778427 10.322 0.778427 10.4701 0.831468 10.6015C0.858385 10.6664 0.894802 10.7266 0.943885 10.7756L5.40968 15.3839C5.51259 15.4892 5.6448 15.5415 5.77859 15.5415C5.91159 15.5415 6.04459 15.4892 6.14672 15.3839C6.35097 15.1741 6.35097 14.8337 6.14672 14.6239L2.57076 10.9332H17.6884C17.9766 10.9332 18.2093 10.6925 18.2093 10.3948C18.2093 10.098 17.9766 9.85809 17.6884 9.85809" fill="white"/>
</svg>
