<svg width="20" height="20" viewBox="0 0 20 20" fill="none" xmlns="http://www.w3.org/2000/svg">
<path d="M18.6687 9.39892C18.6426 9.33401 18.6046 9.27384 18.5571 9.22476L14.0913 4.61567C13.8871 4.40588 13.5569 4.40588 13.3535 4.61567C13.15 4.82546 13.15 5.16588 13.3535 5.37646L16.9294 9.06563H1.81416C1.5252 9.06642 1.29166 9.30788 1.29166 9.60476C1.29166 9.90163 1.5252 10.1431 1.81416 10.1431H16.9294L13.3535 13.8323C13.15 14.0428 13.15 14.3825 13.3535 14.593C13.4556 14.6975 13.5894 14.7506 13.7224 14.7506C13.8546 14.7506 13.9892 14.6975 14.0913 14.593L18.5563 9.98555C18.6038 9.93567 18.6426 9.8763 18.6695 9.8098C18.721 9.67838 18.721 9.53034 18.6695 9.39892" fill="white"/>
</svg>
