<svg width="17" height="16" viewBox="0 0 17 16" fill="none" xmlns="http://www.w3.org/2000/svg">
<path fill-rule="evenodd" clip-rule="evenodd" d="M8.65252 16C13.263 16 17.0003 12.4183 17.0003 8C17.0003 3.58172 13.2629 -2.26569e-06 8.65251 -1.45958e-06C4.04208 -6.53466e-07 0.304688 3.58173 0.304689 8C0.30469 12.4183 4.04208 16 8.65252 16ZM12.6636 5.98575C12.9106 5.7319 12.8723 5.35345 12.5779 5.14044C12.2837 4.9274 11.8449 4.96048 11.5979 5.21429L7.41861 9.50915L5.66971 7.97882C5.39992 7.7428 4.95958 7.74008 4.68585 7.97269C4.41224 8.20532 4.40918 8.5852 4.67884 8.8212L6.96451 10.8212C7.10207 10.9415 7.29199 11.0063 7.48777 10.9995C7.68355 10.9928 7.86685 10.9151 7.99283 10.7857L12.6636 5.98575Z" fill="#00D8C4"/>
</svg>
