<svg width="16" height="16" viewBox="0 0 16 16" fill="none" xmlns="http://www.w3.org/2000/svg">
<path fill-rule="evenodd" clip-rule="evenodd" d="M8 16C12.4183 16 16 12.4183 16 8C16 3.58172 12.4183 -2.17129e-06 8 -1.39876e-06C3.58167 -6.26238e-07 6.26249e-07 3.58173 1.39876e-06 8C2.17128e-06 12.4183 3.58167 16 8 16ZM11.844 5.98575C12.0807 5.7319 12.0439 5.35345 11.7618 5.14044C11.4799 4.9274 11.0593 4.96048 10.8226 5.21429L6.81751 9.50915L5.14148 7.97882C4.88294 7.7428 4.46094 7.74008 4.19861 7.97269C3.9364 8.20532 3.93347 8.5852 4.1919 8.8212L6.38233 10.8212C6.51416 10.9415 6.69617 11.0063 6.88379 10.9995C7.07141 10.9928 7.24707 10.9151 7.3678 10.7857L11.844 5.98575Z" fill="#00D8C4"/>
</svg>
