<svg width="16" height="16" viewBox="0 0 16 16" fill="none" xmlns="http://www.w3.org/2000/svg">
<path fill-rule="evenodd" clip-rule="evenodd" d="M8 16C12.4183 16 16 12.4183 16 8C16 3.58172 12.4183 0 8 0C3.58172 0 0 3.58172 0 8C0 12.4183 3.58172 16 8 16ZM12.3985 6.2135C12.7601 5.85569 12.7554 5.28011 12.3881 4.92789C12.0207 4.57568 11.4298 4.58021 11.0682 4.93801L6.83333 9.12835L4.93181 7.24682C4.5702 6.88901 3.97927 6.88448 3.61192 7.23669C3.24457 7.58891 3.23992 8.1645 3.60152 8.5223L6.16819 11.062C6.34363 11.2356 6.58325 11.3333 6.83333 11.3333C7.08342 11.3333 7.32304 11.2356 7.49848 11.062L12.3985 6.2135Z" fill="url(#paint0_linear_35_876)"/>
<defs>
<linearGradient id="paint0_linear_35_876" x1="0.209393" y1="0.5" x2="18.7243" y2="7.98392" gradientUnits="userSpaceOnUse">
<stop stop-color="#E880F1"/>
<stop offset="1" stop-color="#FF6F71"/>
</linearGradient>
</defs>
</svg>
