<svg width="80" height="80" fill="none" xmlns="http://www.w3.org/2000/svg"><path fill-rule="evenodd" clip-rule="evenodd" d="M24.353 24.353a3.688 3.688 0 0 0 0 5.216L50.43 55.647a3.688 3.688 0 1 0 5.216-5.216L29.568 24.353a3.688 3.688 0 0 0-5.215 0z" fill="#FF6F71"/><path fill-rule="evenodd" clip-rule="evenodd" d="M24.353 55.647a3.688 3.688 0 0 1 0-5.216L50.43 24.353a3.688 3.688 0 1 1 5.216 5.216L29.568 55.647a3.688 3.688 0 0 1-5.215 0z" fill="url(#a)"/><path fill-rule="evenodd" clip-rule="evenodd" d="M68.284 68.284c-15.62 15.621-40.947 15.621-56.568 0-15.621-15.62-15.621-40.947 0-56.568 15.62-15.621 40.947-15.621 56.568 0 15.621 15.62 15.621 40.947 0 56.568zm-51.426-5.142c12.781 12.78 33.503 12.78 46.284 0 12.78-12.781 12.78-33.503 0-46.284-12.781-12.78-33.503-12.78-46.284 0-12.78 12.781-12.78 33.503 0 46.284z" fill="url(#b)"/><defs><linearGradient id="a" x1="40" y1="23.273" x2="40" y2="56.727" gradientUnits="userSpaceOnUse"><stop stop-color="#FF6F71"/><stop offset="1" stop-color="#FF6F71" stop-opacity="0"/></linearGradient><linearGradient id="b" x1="80" y1="0" x2="0" y2="80" gradientUnits="userSpaceOnUse"><stop stop-color="#FF6F71"/><stop offset="1" stop-color="#FF6F71" stop-opacity="0"/></linearGradient></defs></svg>