<svg width="32" height="32" fill="none" xmlns="http://www.w3.org/2000/svg"><path d="M10.764 16.259 5.616 11.11c-2.027 2.209-2.795 4.422-2.808 4.468L2.667 16l.14.421c.03.09 3.088 8.912 13.265 8.912 1.239 0 2.367-.136 3.403-.364l-3.662-3.661a5.316 5.316 0 0 1-5.049-5.05zm5.308-9.592c-2.473 0-4.5.538-6.19 1.33l-4.94-4.94-1.885 1.886 24 24 1.886-1.886-4.398-4.397c3.518-2.604 4.772-6.183 4.791-6.239l.14-.421-.14-.421c-.03-.09-3.087-8.912-13.264-8.912zm2.541 10.061c.25-.903.038-1.919-.656-2.613-.693-.695-1.71-.906-2.613-.656l-2.01-2.011a5.273 5.273 0 0 1 2.738-.781A5.339 5.339 0 0 1 21.405 16a5.253 5.253 0 0 1-.782 2.737l-2.01-2.009z" fill="#fff" fill-opacity=".4"/></svg>