<svg width="24" height="14" viewBox="0 0 24 14" fill="none" xmlns="http://www.w3.org/2000/svg">
<path d="M23.7675 6.37C22.1879 4.48 17.1489 0 12 0C6.85107 0 1.81212 4.49 0.232452 6.37C-0.0774839 6.74 -0.0774839 7.26 0.232452 7.63C1.81212 9.52 6.85107 14 12 14C17.1489 14 22.1879 9.51 23.7675 7.63C24.0775 7.26 24.0775 6.74 23.7675 6.37ZM12 10.95C9.82045 10.95 8.05082 9.18 8.05082 7C8.05082 4.82 9.82045 3.05 12 3.05C14.1795 3.05 15.9492 4.82 15.9492 7C15.9492 9.18 14.1795 10.95 12 10.95Z" fill="#8E8A99"/>
</svg>
