<svg width="36" height="10" viewBox="0 0 36 10" fill="none" xmlns="http://www.w3.org/2000/svg">
<path fill-rule="evenodd" clip-rule="evenodd" d="M-8.74228e-08 1C-3.91405e-08 0.447715 0.447715 3.91405e-08 1 8.74228e-08L35 3.0598e-06C35.5523 3.10808e-06 36 0.447718 36 1C36 1.55229 35.5523 2 35 2L1 2C0.447715 2 -1.35705e-07 1.55228 -8.74228e-08 1Z" fill="white"/>
<path fill-rule="evenodd" clip-rule="evenodd" d="M-8.74228e-08 9C-3.91405e-08 8.44772 0.447715 8 1 8L35 8C35.5523 8 36 8.44772 36 9C36 9.55229 35.5523 10 35 10L1 10C0.447715 10 -1.35705e-07 9.55228 -8.74228e-08 9Z" fill="white"/>
</svg>
