<svg width="17" height="16" fill="none" xmlns="http://www.w3.org/2000/svg"><path fill-rule="evenodd" clip-rule="evenodd" d="M8.5 16a8 8 0 1 0 0-16 8 8 0 0 0 0 16zm-.944-8.167-.543 3.132c-.024.142-.036.28-.036.415 0 .656.322.984.966.984.246 0 .483-.066.713-.197.233-.135.419-.283.556-.443.14-.16.273-.346.398-.557a6.08 6.08 0 0 0 .242-.443c.036-.084.062-.151.078-.202l-.356-.17-.127.225c-.072.149-.169.298-.29.448-.12.15-.221.224-.302.224-.113 0-.169-.075-.169-.224v-.06l.544-3.132c.024-.142.036-.28.036-.415 0-.656-.318-.984-.954-.984-.246 0-.486.068-.72.203-.229.134-.414.282-.555.442-.14.16-.274.348-.399.563-.12.211-.201.359-.241.443a1.87 1.87 0 0 0-.079.196l.363.17.12-.224c.077-.15.172-.299.284-.448.117-.15.216-.224.296-.224.117 0 .175.074.175.224v.054zm2.399-3.246a.889.889 0 0 0-.29-.683c-.194-.178-.447-.268-.761-.268-.31 0-.564.09-.762.268a.889.889 0 0 0-.29.683c0 .277.097.505.29.683.198.179.451.268.761.268.315 0 .568-.09.762-.268a.889.889 0 0 0 .29-.683z" fill="#504C5C"/></svg>