<svg width="86" height="86" viewBox="0 0 86 86" fill="none" xmlns="http://www.w3.org/2000/svg">
<path d="M64.5 21.5C64.5 33.3741 54.8741 43 43 43C31.1259 43 21.5 33.3741 21.5 21.5C21.5 9.62588 31.1259 -5.44222e-06 43 -7.51836e-06C54.8741 -9.59449e-06 64.5 9.62587 64.5 21.5Z" fill="white"/>
<path d="M30.1332 48.375C12.6705 51.1733 9.46642e-06 54.1416 1.119e-05 63.9991C1.33145e-05 76.1499 1.50367e-05 86 43 86C86 86 86 76.1498 86 63.9991C86 54.1416 73.3295 51.1732 55.8668 48.375C52.2792 50.8164 47.8252 52.2622 43 52.2622C38.1748 52.2622 33.7208 50.8164 30.1332 48.375Z" fill="#7252C7"/>
</svg>
