<svg width="110" height="110" fill="none" xmlns="http://www.w3.org/2000/svg"><path fill-rule="evenodd" clip-rule="evenodd" d="M33.485 33.485a5.071 5.071 0 0 0 0 7.172l35.858 35.858a5.07 5.07 0 1 0 7.171-7.172L40.656 33.485a5.071 5.071 0 0 0-7.171 0z" fill="#FF6F71"/><path fill-rule="evenodd" clip-rule="evenodd" d="M33.485 76.515a5.071 5.071 0 0 1 0-7.172l35.858-35.858a5.07 5.07 0 1 1 7.171 7.172L40.656 76.515a5.071 5.071 0 0 1-7.171 0z" fill="url(#a)"/><path fill-rule="evenodd" clip-rule="evenodd" d="M93.89 93.89c-21.478 21.48-56.302 21.48-77.78 0-21.48-21.478-21.48-56.302 0-77.78 21.478-21.48 56.302-21.48 77.78 0 21.48 21.478 21.48 56.302 0 77.78zm-70.71-7.07c17.574 17.573 46.066 17.573 63.64 0 17.573-17.574 17.573-46.066 0-63.64-17.574-17.573-46.066-17.573-63.64 0-17.573 17.574-17.573 46.066 0 63.64z" fill="url(#b)"/><defs><linearGradient id="a" x1="54.999" y1="32" x2="54.999" y2="78" gradientUnits="userSpaceOnUse"><stop stop-color="#FF6F71"/><stop offset="1" stop-color="#FF6F71" stop-opacity="0"/></linearGradient><linearGradient id="b" x1="110" y1="0" x2="0" y2="110" gradientUnits="userSpaceOnUse"><stop stop-color="#FF6F71"/><stop offset="1" stop-color="#FF6F71" stop-opacity="0"/></linearGradient></defs></svg>