<svg width="80" height="90" fill="none" xmlns="http://www.w3.org/2000/svg"><path d="M4 8.005c2.21 0 4-1.792 4-4.002C8 1.792 6.21 0 4 0S0 1.792 0 4.003c0 2.21 1.79 4.002 4 4.002z" fill="#FFCB8F"/><path d="M76 8.005H26a4 4 0 0 1-4-4.002A4 4 0 0 1 26 0h50a4 4 0 0 1 4 4.003 4 4 0 0 1-4 4.002z" fill="url(#a)"/><path d="M4 90c2.21 0 4-1.792 4-4.003 0-2.21-1.79-4.002-4-4.002s-4 1.792-4 4.002S1.79 90 4 90z" fill="#FFCB8F"/><path d="M76 90H26a4 4 0 0 1-4-4.003 4 4 0 0 1 4-4.002h50a4 4 0 0 1 4 4.002A4 4 0 0 1 76 90z" fill="url(#b)"/><path d="M4 62.671c2.21 0 4-1.792 4-4.002s-1.79-4.003-4-4.003-4 1.792-4 4.003c0 2.21 1.79 4.002 4 4.002z" fill="#FFCB8F"/><path d="M76 62.671H26a4 4 0 0 1-4-4.002 4 4 0 0 1 4-4.003h50a4 4 0 0 1 4 4.003 4 4 0 0 1-4 4.002z" fill="url(#c)"/><path d="M4 35.333c2.21 0 4-1.792 4-4.003 0-2.21-1.79-4.002-4-4.002S0 29.12 0 31.33s1.79 4.003 4 4.003z" fill="#FFCB8F"/><path d="M76 35.333H26a4 4 0 0 1-4-4.003 4 4 0 0 1 4-4.002h50a4 4 0 0 1 4 4.002 4 4 0 0 1-4 4.003z" fill="url(#d)"/><defs><linearGradient id="a" x1="0" y1="45" x2="80" y2="45" gradientUnits="userSpaceOnUse"><stop stop-color="#FFCB8F"/><stop offset="1" stop-color="#FFCB8F" stop-opacity="0"/></linearGradient><linearGradient id="b" x1="0" y1="45" x2="80" y2="45" gradientUnits="userSpaceOnUse"><stop stop-color="#FFCB8F" stop-opacity="0"/><stop offset="1" stop-color="#FFCB8F"/></linearGradient><linearGradient id="c" x1="0" y1="49.164" x2="80" y2="49.164" gradientUnits="userSpaceOnUse"><stop stop-color="#FFCB8F"/><stop offset="1" stop-color="#FFCB8F" stop-opacity="0"/></linearGradient><linearGradient id="d" x1="0" y1="31.33" x2="1" y2="31.33" gradientUnits="userSpaceOnUse"><stop stop-color="#FFCB8F" stop-opacity="0"/><stop offset="1" stop-color="#FFCB8F"/></linearGradient></defs></svg>