<svg width="26" height="26" viewBox="0 0 26 26" fill="none" xmlns="http://www.w3.org/2000/svg">
<path fill-rule="evenodd" clip-rule="evenodd" d="M0.292425 25.7076C-0.097475 25.3177 -0.0974751 24.6855 0.292425 24.2956L24.2956 0.292425C24.6855 -0.0974747 25.3177 -0.0974752 25.7076 0.292425C26.0975 0.682325 26.0975 1.31448 25.7076 1.70438L1.70438 25.7076C1.31448 26.0975 0.682325 26.0975 0.292425 25.7076Z" fill="white"/>
<path fill-rule="evenodd" clip-rule="evenodd" d="M25.7076 25.7076C26.0975 25.3177 26.0975 24.6855 25.7076 24.2956L1.70438 0.292425C1.31448 -0.0974747 0.682324 -0.0974752 0.292424 0.292425C-0.0974764 0.682325 -0.0974759 1.31448 0.292424 1.70438L24.2956 25.7076C24.6855 26.0975 25.3177 26.0975 25.7076 25.7076Z" fill="white"/>
</svg>
