<svg width="24" height="24" viewBox="0 0 24 24" fill="none" xmlns="http://www.w3.org/2000/svg">
<path d="M4.28501 7.26878C4.29654 7.15399 4.28081 7.03811 4.23911 6.93055C4.1974 6.82299 4.1309 6.72679 4.04501 6.64978L2.27501 4.51678V4.19678H7.77301L12.023 13.5168L15.759 4.19678H21V4.51578L19.485 5.96678C19.4216 6.01616 19.3726 6.08163 19.343 6.15636C19.3135 6.2311 19.3045 6.31239 19.317 6.39178V17.0578C19.3043 17.1372 19.3132 17.2185 19.3427 17.2933C19.3723 17.3681 19.4214 17.4335 19.485 17.4828L20.964 18.9338V19.2528H13.528V18.9338L15.057 17.4468C15.209 17.2968 15.209 17.2518 15.209 17.0228V8.40078L10.95 19.2178H10.375L5.41701 8.40078V15.6498C5.37601 15.9548 5.47701 16.2618 5.69201 16.4828L7.68401 18.8998V19.2188H2.03601V18.8998L4.02801 16.4828C4.13281 16.3736 4.21062 16.2414 4.25525 16.0967C4.29987 15.9521 4.31006 15.799 4.28501 15.6498V7.26878Z" fill="#FFCB8F"/>
</svg>
