<svg width="169" height="50" fill="none" xmlns="http://www.w3.org/2000/svg"><path fill-rule="evenodd" clip-rule="evenodd" d="M162.741 0c3.366 0 6.134 2.689 6.255 6.022l.004.228v37.5c0 3.361-2.693 6.125-6.031 6.246l-.228.004H6.259C2.893 50 .125 47.311.004 43.978L0 43.75V6.25C0 2.889 2.693.125 6.03.004L6.26 0H162.74zm0 1H6.259a5.262 5.262 0 0 0-5.253 5.034L1 6.25v37.5c0 2.823 2.244 5.132 5.042 5.246l.216.004h156.482a5.26 5.26 0 0 0 5.253-5.034l.005-.216V6.25c0-2.821-2.243-5.132-5.042-5.246L162.741 1zM96.723 27.19c1.19 0 2.151.496 2.7 1.072l.103.116h.08v-.865h2.22v9.543c0 3.928-2.32 5.54-5.063 5.54-2.49 0-4.022-1.612-4.653-2.991l-.066-.152 2.037-.845c.363.866 1.25 1.892 2.682 1.892 1.692 0 2.765-1.011 2.84-2.907l.003-.214v-.765h-.08c-.524.645-1.533 1.209-2.803 1.209-2.661 0-5.103-2.317-5.103-5.298 0-3 2.442-5.335 5.103-5.335zm52.648.313 2.779 6.775h.08l2.678-6.775h2.598l-6.423 14.736h-2.437l2.376-5.268-4.167-9.468h2.516zM29.022 26.342l4.867 4.732-16.989 9.61a2.973 2.973 0 0 1-1.502.393c-.35 0-.698-.055-1.032-.175l-.2-.08 14.856-14.48zM12.773 10.546l14.878 14.462-14.875 14.497a2.742 2.742 0 0 1-.284-1.023l-.008-.219V11.801c0-.366.07-.726.203-1.06l.086-.195zM111.93 27.19c2.317 0 3.641 1.544 4.27 2.743l.133.27c.04.087.076.171.109.252l.046.118.241.603-7.119 2.942c.544 1.066 1.392 1.61 2.581 1.61 1.116 0 1.912-.514 2.507-1.308l.116-.162 1.815 1.208c-.09.133-.2.281-.33.436l-.21.237c-.752.801-2.02 1.684-3.898 1.684-3.024 0-5.284-2.337-5.284-5.317 0-3.162 2.28-5.316 5.023-5.316zm-26.634 0c2.945 0 5.345 2.235 5.345 5.316 0 3.06-2.4 5.317-5.345 5.317-2.944 0-5.345-2.257-5.345-5.317 0-3.08 2.401-5.316 5.345-5.316zm-11.66 0c2.946 0 5.346 2.235 5.346 5.316 0 3.06-2.4 5.317-5.345 5.317-2.943 0-5.343-2.257-5.343-5.317 0-3.08 2.4-5.316 5.343-5.316zM59.77 21.31c2.411 0 4.157.903 5.487 2.11l.179.166-1.593 1.591c-.969-.906-2.278-1.612-4.073-1.612-3.328 0-5.93 2.679-5.93 6.001 0 3.323 2.602 6.001 5.93 6.001 1.962 0 3.156-.715 3.949-1.434l.226-.216c.596-.595 1.001-1.43 1.187-2.553l.042-.287h-5.404v-2.255h7.602c.082.403.122.887.122 1.41 0 1.692-.463 3.785-1.957 5.275-1.452 1.51-3.307 2.317-5.767 2.317-4.56 0-8.39-3.705-8.39-8.258 0-4.55 3.83-8.256 8.39-8.256zm82.174 5.851c2.6 0 4.631 1.462 4.745 4.088l.005.235v5.99h-2.254V36.27h-.081c-.543.824-1.409 1.526-2.98 1.526-2.053 0-3.886-1.346-3.886-3.437 0-2.292 2.275-3.518 4.51-3.518 1.028 0 1.883.312 2.339.55l.098.053v-.162c-.02-1.286-1.248-2.01-2.456-2.01-.809 0-1.581.245-2.041.981l-.094.166-2.074-.865c.726-1.65 2.477-2.393 4.169-2.393zm-5.74-5.286V37.5h-2.335V21.874h2.335zm-8.758 0c2.59 0 5.135 1.871 5.135 4.852 0 2.903-2.413 4.755-4.931 4.85l-.204.004h-3.261v5.92h-2.335V21.874h5.596zm-21.667-.001V37.5h-2.338V21.873h2.338zm-20.482 7.41c-1.613 0-3.005 1.31-3.005 3.223 0 1.893 1.392 3.222 3.005 3.222 1.614 0 3.005-1.33 3.005-3.222 0-1.912-1.391-3.222-3.005-3.222zm-11.66 0c-1.613 0-3.004 1.31-3.004 3.223 0 1.893 1.391 3.222 3.005 3.222 1.613 0 3.004-1.33 3.004-3.222 0-1.912-1.39-3.222-3.004-3.222zm23.289 0c-1.614 0-2.966 1.37-2.966 3.242 0 1.854 1.352 3.203 2.966 3.203 1.592 0 2.843-1.35 2.843-3.203 0-1.872-1.25-3.241-2.843-3.241zm45.381 3.446c-1.148 0-2.478.464-2.478 1.669 0 .945 1.068 1.327 1.833 1.327a2.83 2.83 0 0 0 2.778-2.474l-.303-.143c-.497-.225-.976-.38-1.83-.38zm-30.296-3.486c-1.147 0-2.726.974-2.783 2.886v.216l4.761-1.974c-.263-.663-1.049-1.128-1.978-1.128zm-81.617-4.236 5.229-5.097 4.733 2.675c.878.517 1.401 1.42 1.401 2.417 0 .928-.456 1.778-1.23 2.306l-.185.117-4.715 2.668-5.233-5.086zm97.113-.96h-3.322v5.357h3.322c1.747 0 2.738-1.466 2.738-2.678 0-1.187-.917-2.568-2.54-2.672l-.198-.006zM14.14 9.208a2.96 2.96 0 0 1 2.575.028l.186.1 16.986 9.595-4.867 4.743L14.14 9.207zm41.53-.876c.572 0 1.121.113 1.64.336.45.193.825.442 1.125.75l.143.158.148.175-1.017 1.014-.176-.21c-.448-.534-1.062-.8-1.863-.8-.726 0-1.348.252-1.878.762-.527.508-.789 1.163-.789 1.984 0 .822.262 1.476.789 1.983.53.51 1.15.762 1.878.762.773 0 1.408-.253 1.92-.764.2-.2.348-.45.443-.755l.05-.19.028-.148-2.692.001v-1.401h4.1l.036.206c.038.21.057.413.057.61 0 1.11-.334 2.008-1.002 2.676-.756.791-1.742 1.188-2.94 1.188-1.15 0-2.137-.402-2.94-1.199-.808-.797-1.212-1.79-1.212-2.969 0-1.178.404-2.172 1.212-2.97.804-.797 1.79-1.199 2.94-1.199zm33.724.001c1.159 0 2.139.407 2.928 1.218.788.809 1.183 1.795 1.183 2.95 0 1.16-.394 2.15-1.178 2.955-.786.807-1.769 1.212-2.933 1.212-1.165 0-2.148-.406-2.932-1.212-.784-.804-1.178-1.794-1.178-2.956 0-1.161.394-2.151 1.177-2.954.785-.807 1.768-1.213 2.933-1.213zm6.528.168 3.278 5.24-.017-.601V8.5h1.467v8h-1.397l-3.447-5.523.019.602V16.5h-1.466v-8h1.563zm-13.294 0v1.421H80.53l.001 6.579h-1.466V9.921h-2.098V8.5h5.662zm-6.379 0v8h-1.466v-8h1.466zm-4.7 0v1.421h-2.098V16.5h-1.465V9.921h-2.098V8.5h5.662zm-6.167 0v1.422h-3.42v1.877h3.083V13.2h-3.083v1.877h3.42V16.5h-4.886v-8h4.886zm24.012 1.255c-.739 0-1.354.253-1.862.767-.508.516-.762 1.17-.762 1.977 0 .809.254 1.464.761 1.978.51.514 1.125.769 1.863.769.737 0 1.354-.255 1.862-.768.509-.515.763-1.17.763-1.979 0-.807-.254-1.462-.763-1.976-.508-.514-1.124-.768-1.862-.768z" fill="#504C5C"/></svg>