<svg width="24" height="24" fill="none" xmlns="http://www.w3.org/2000/svg"><path fill-rule="evenodd" clip-rule="evenodd" d="M2 12C2 6.477 6.479 2 12 2s10 4.477 10 10c0 5.521-4.479 10-10 10S2 17.521 2 12zm15.859 1.769a2.681 2.681 0 0 0 0-.439c.504-.25.821-.767.811-1.33a1.46 1.46 0 0 0-2.469-1 7.123 7.123 0 0 0-3.85-1.23L13 6.65l2.138.45a1 1 0 1 0 .131-.61L12.82 6a.313.313 0 0 0-.371.236v.004l-.743 3.47a7.145 7.145 0 0 0-3.899 1.23 1.458 1.458 0 0 0-2.432 1.343 1.46 1.46 0 0 0 .824 1.047 2.681 2.681 0 0 0 0 .439c0 2.242 2.609 4.062 5.83 4.062s5.83-1.822 5.83-4.062zm-8.189.232a1.001 1.001 0 1 0 0-2.002 1.001 1.001 0 0 0 0 2.002zm4.42 1.39A3.28 3.28 0 0 1 12 16a3.272 3.272 0 0 1-2.081-.63.27.27 0 0 0-.379.38c.71.535 1.582.809 2.471.77a3.811 3.811 0 0 0 2.469-.77v.04a.284.284 0 0 0 .006-.396.28.28 0 0 0-.396-.003zm.209-3.351a1 1 0 0 0 0 2l-.008.039H14.342a1 1 0 0 0 .958-1.038 1 1 0 0 0-1.001-1.001z" fill="#FFCB8F"/></svg>