<svg width="24" height="24" fill="none" xmlns="http://www.w3.org/2000/svg"><path d="m13 7.101.01.001a5.005 5.005 0 0 1 3.889 3.89 5.06 5.06 0 0 1-.001 2.016 4.976 4.976 0 0 1-1.363 2.527l1.414 1.414a7.014 7.014 0 0 0 1.908-3.54 6.98 6.98 0 0 0 0-2.819 6.956 6.956 0 0 0-1.907-3.539 6.97 6.97 0 0 0-3.538-1.908c-.137-.028-.275-.043-.412-.063V2L9 6l4 4V7.101zm-7.45 7.623c.174.412.392.812.646 1.19a7.034 7.034 0 0 0 3.078 2.535c.425.18.868.317 1.315.408.167.034.338.056.508.078v2.944l4-4-4-4v3.03c-.035-.006-.072-.003-.107-.011a4.978 4.978 0 0 1-2.526-1.362 4.995 4.995 0 0 1 .001-7.071L7.051 7.05A6.974 6.974 0 0 0 5 12c0 .936.186 1.862.55 2.724z" fill="#FFCB8F"/></svg>