<svg width="86" height="142" fill="none" xmlns="http://www.w3.org/2000/svg"><path fill-rule="evenodd" clip-rule="evenodd" d="M47.965 47.327a9.951 9.951 0 0 0-9.93 0L4.965 66.374A9.902 9.902 0 0 0 0 74.954v38.093a9.902 9.902 0 0 0 4.965 8.579l33.07 19.047a9.954 9.954 0 0 0 9.93 0l33.07-19.047A9.902 9.902 0 0 0 86 113.047V74.953c0-3.539-1.893-6.81-4.965-8.579l-33.07-19.047zM44.81 79.254c-.74-1.473-2.88-1.472-3.62 0l-3.653 7.262c-.294.584-.862.99-1.52 1.084l-8.168 1.164c-1.656.236-2.317 2.233-1.119 3.379l5.91 5.652c.476.455.694 1.111.581 1.754l-1.395 7.981c-.283 1.619 1.448 2.852 2.929 2.088l7.306-3.768a2.055 2.055 0 0 1 1.878 0l7.306 3.768c1.481.764 3.212-.469 2.93-2.088l-1.396-7.981a1.958 1.958 0 0 1 .58-1.754l5.91-5.653c1.199-1.145.538-3.142-1.118-3.378L49.983 87.6a2.016 2.016 0 0 1-1.52-1.084l-3.653-7.262z" fill="#7252C7"/><path d="M25 0c-5.523 0-10 4.477-10 10v42c0 .7.072 1.385.21 2.045L38 40.887a10 10 0 0 1 10 0l22.79 13.158c.138-.66.21-1.344.21-2.045V10c0-5.523-4.477-10-10-10H25z" fill="#fff"/></svg>