<svg width="31" height="44" fill="none" xmlns="http://www.w3.org/2000/svg"><path fill-rule="evenodd" clip-rule="evenodd" d="M16.674 9.19a5.36 5.36 0 0 0-7.611 0 5.439 5.439 0 0 0 0 7.658l11.516 11.586a3.567 3.567 0 0 1 0 5.023 3.515 3.515 0 0 1-4.993 0L4.07 21.871c-4.86-4.889-4.86-12.816 0-17.704a12.39 12.39 0 0 1 17.597 0l8.299 8.348a3.567 3.567 0 0 1 0 5.024 3.515 3.515 0 0 1-4.993 0l-8.298-8.35zm-6.253 1.353a3.515 3.515 0 0 1 4.993 0L26.93 22.129c4.86 4.889 4.86 12.816 0 17.704a12.39 12.39 0 0 1-17.597 0l-8.299-8.348a3.567 3.567 0 0 1 0-5.024 3.515 3.515 0 0 1 4.993 0l8.298 8.35a5.36 5.36 0 0 0 7.612 0 5.44 5.44 0 0 0 0-7.66L10.42 15.566a3.567 3.567 0 0 1 0-5.023h.001z" fill="#fff"/></svg>