<svg width="80" height="80" fill="none" xmlns="http://www.w3.org/2000/svg"><path d="m26 41 10 10" stroke="#00D8C4" stroke-width="10" stroke-linecap="round"/><path d="M54 29 36 51" stroke="url(#a)" stroke-width="10" stroke-linecap="round"/><path fill-rule="evenodd" clip-rule="evenodd" d="M68.284 68.284c-15.62 15.621-40.947 15.621-56.568 0-15.621-15.62-15.621-40.947 0-56.568 15.62-15.621 40.947-15.621 56.568 0 15.621 15.62 15.621 40.947 0 56.568zm-51.426-5.142c12.781 12.78 33.503 12.78 46.284 0 12.78-12.781 12.78-33.503 0-46.284-12.781-12.78-33.503-12.78-46.284 0-12.78 12.781-12.78 33.503 0 46.284z" fill="url(#b)"/><defs><linearGradient id="a" x1="36" y1="41.909" x2="36" y2="60.091" gradientUnits="userSpaceOnUse"><stop stop-color="#00D8C4"/><stop offset="1" stop-color="#00D8C4" stop-opacity="0"/></linearGradient><linearGradient id="b" x1="80" y1="0" x2="0" y2="80" gradientUnits="userSpaceOnUse"><stop stop-color="#00D8C4"/><stop offset="1" stop-color="#00D8C4" stop-opacity="0"/></linearGradient></defs></svg>